<svg xmlns="http://www.w3.org/2000/svg" width="226" height="446" viewBox="0 0 226 446" version="1.1">
	<path d="M 130.027 14.022 C 128.117 14.471, 126.413 15.261, 126.241 15.778 C 126.069 16.294, 125.380 17.466, 124.710 18.381 C 123.580 19.927, 123.150 19.930, 118.728 18.423 C 116.108 17.530, 113.297 17.056, 112.482 17.369 C 109.879 18.368, 110.796 23.498, 114.497 28.641 C 116.420 31.313, 118.735 34.625, 119.640 36 C 120.546 37.375, 122.175 39.790, 123.260 41.367 C 124.750 43.533, 125.113 45.308, 124.740 48.617 C 124.106 54.236, 122.485 56.330, 119.857 54.924 C 117.180 53.491, 114.097 54.692, 112.725 57.704 C 111.721 59.909, 111.872 60.478, 113.897 62.117 C 115.175 63.153, 117.522 64, 119.111 64 C 121.441 64, 122 64.436, 121.999 66.250 C 121.997 69.675, 119.006 95.296, 118.412 96.975 C 117.798 98.712, 112.044 89.513, 112.017 86.750 C 112.007 85.695, 111.235 85, 110.073 85 C 109.013 85, 106.769 83.329, 105.085 81.287 C 102.849 78.574, 101.727 77.873, 100.919 78.681 C 99.101 80.499, 100.265 83.540, 102.651 83.208 C 104.024 83.017, 105.715 84.057, 107.532 86.208 L 110.311 89.500 107.406 89.938 C 104.686 90.348, 104.750 90.412, 108.397 90.938 C 111.912 91.445, 112.576 92.040, 115.176 97.015 C 118.005 102.430, 118.037 102.669, 116.923 110.158 L 115.789 117.786 113.019 116.196 C 110.468 114.732, 110.042 114.742, 107.625 116.326 C 104.288 118.513, 104.282 121.290, 107.607 123.905 C 109.563 125.444, 110.670 125.712, 112.041 124.978 C 116.337 122.679, 116.336 122.676, 115.738 150.938 C 115.425 165.754, 114.773 178.583, 114.289 179.448 C 113.635 180.617, 112.295 178.262, 109.059 170.260 C 99.904 147.616, 92.167 132.169, 82.654 117.543 L 72.925 102.586 76.199 101.040 C 80.421 99.046, 80.784 96.808, 77.395 93.665 L 74.678 91.146 71.114 93.568 L 67.551 95.990 66.280 93.565 C 65.581 92.231, 64.758 87.184, 64.450 82.349 C 64.142 77.513, 63.690 73.357, 63.445 73.112 C 63.200 72.867, 63 73.642, 63 74.833 C 63 76.025, 62.534 77, 61.965 77 C 61.271 77, 61.291 77.674, 62.025 79.046 C 62.627 80.172, 62.980 82.534, 62.810 84.296 L 62.500 87.500 60.056 83.500 C 58.712 81.300, 56.125 77.523, 54.306 75.106 C 52.428 72.610, 51 69.523, 51 67.958 C 51 66.443, 49.650 62.637, 48 59.500 C 46.350 56.363, 44.997 53.055, 44.993 52.148 C 44.984 49.727, 41.635 45.058, 38.359 42.898 C 32.617 39.113, 24.446 41.283, 23.815 46.761 C 23.543 49.124, 22.996 49.542, 19.826 49.806 C 12.583 50.409, 12.281 55.381, 19.278 58.837 C 21.600 59.984, 25.975 61.662, 29 62.566 C 38.636 65.446, 49.461 71.229, 49.811 73.682 C 50.009 75.078, 49.379 76.262, 48.061 76.968 C 43.190 79.574, 48.375 84.948, 54.320 83.456 C 56.606 82.882, 57.239 83.297, 59.188 86.648 C 61.666 90.908, 74.195 109.656, 77.959 114.738 C 79.279 116.518, 80.161 118.173, 79.920 118.413 C 79.679 118.654, 77.245 117.773, 74.511 116.456 C 71.300 114.908, 69.197 114.403, 68.570 115.030 C 67.943 115.657, 68.158 116, 69.178 116 C 70.045 116, 71.315 116.675, 72 117.500 C 72.685 118.325, 74.202 119.003, 75.372 119.007 C 78.545 119.016, 83.088 122.403, 85.687 126.696 C 88.348 131.092, 88.514 132, 86.655 132 C 84.412 132, 81.759 135.666, 82.443 137.820 C 83.186 140.161, 85.964 141.042, 90.352 140.330 L 93.559 139.810 101.272 158.655 C 113.891 189.489, 115.876 197.866, 114.130 212.933 L 113.500 218.367 110.813 213.433 C 106.354 205.248, 99.960 196.715, 91 186.993 C 86.325 181.921, 82.216 176.585, 81.868 175.135 C 80.924 171.195, 80.882 162, 81.809 162 C 82.254 162, 83.491 161.318, 84.559 160.485 C 86.403 159.045, 86.362 159.001, 83.750 159.593 C 81.093 160.196, 81 160.077, 81 156.084 C 81 152.595, 81.390 151.802, 83.500 151 C 86.495 149.861, 86.697 148.444, 84.066 147.035 C 80.821 145.299, 80.273 145.808, 79.772 151.022 C 79.196 157.020, 78.470 158.003, 76.521 155.427 C 74.413 152.640, 74.670 154.718, 76.886 158.382 C 77.938 160.120, 79.089 164.578, 79.488 168.457 C 80.173 175.122, 80.126 175.355, 78.352 174.006 C 74.970 171.435, 74 169.652, 74 166.009 C 74 164.024, 73.460 161.860, 72.800 161.200 C 71.351 159.751, 66 159.593, 66 161 C 66 165.652, 46.485 149.627, 37.667 137.734 C 32.620 130.928, 21.394 126.006, 18.200 129.200 C 16.524 130.876, 16.702 135.508, 18.500 137 C 20.875 138.971, 20.265 140, 16.723 140 C 13.048 140, 9 142.376, 9 144.534 C 9 145.315, 10.060 146.648, 11.356 147.497 C 13.689 149.026, 37.107 152.939, 44.163 152.979 C 47.061 152.996, 49.569 154.284, 56.163 159.142 C 65.247 165.834, 76.219 174.926, 79.703 178.649 C 81.830 180.921, 81.847 181.105, 80.203 183.982 C 78.898 186.266, 78.757 187.375, 79.601 188.731 C 80.955 190.907, 85.592 191.584, 87.620 189.901 C 88.860 188.871, 89.665 189.204, 92.290 191.828 L 95.462 195 89.569 195 C 85.008 195, 82.639 194.399, 79.088 192.343 C 75.141 190.057, 74.757 189.977, 76.340 191.771 C 78.157 193.830, 78.136 193.869, 74.614 194.841 C 72.653 195.382, 70.138 195.587, 69.024 195.296 C 67.479 194.892, 67 195.251, 67 196.812 C 67 199.181, 69.730 202.285, 71.081 201.450 C 71.586 201.138, 72 200.009, 72 198.941 C 72 197.309, 72.712 197, 76.475 197 C 80.866 197, 80.932 197.048, 79.975 199.565 C 78.439 203.606, 78.910 203.826, 80.939 200.016 C 82.617 196.862, 83.158 196.557, 86.647 196.793 C 97.177 197.506, 97.745 197.785, 102.634 204.636 C 105.168 208.187, 107.074 211.239, 106.871 211.419 C 106.667 211.599, 105.010 212.504, 103.188 213.431 C 99.163 215.478, 99.155 218.681, 103.171 220.928 C 105.474 222.216, 106.202 222.230, 108.442 221.031 C 110.132 220.127, 111.382 219.982, 112.017 220.617 C 113.681 222.281, 115.100 232.545, 114.793 240.708 L 114.500 248.500 111.189 248.178 C 107.489 247.818, 105 249.355, 105 252 C 105 254.333, 107.210 256.053, 110.675 256.417 C 113.254 256.688, 113.523 257.095, 113.760 261.107 C 113.903 263.523, 113.669 272.025, 113.240 280 L 112.459 294.500 110.073 290 C 108.761 287.525, 107.133 283.250, 106.454 280.500 C 105.559 276.870, 105.191 276.254, 105.111 278.250 C 105.050 279.762, 104.590 281, 104.089 281 C 102.980 281, 98 275.213, 98 273.923 C 98 272.193, 95.074 272.993, 93.989 275.021 C 92.545 277.719, 93.683 279.296, 96.554 278.576 C 98.405 278.111, 99.449 278.723, 101.585 281.522 C 103.066 283.465, 104.104 285.201, 103.889 285.380 C 103.675 285.559, 102.600 286.233, 101.500 286.879 C 99.726 287.921, 99.888 288.022, 102.929 287.777 C 106.077 287.523, 106.607 287.909, 109.407 292.500 C 112.237 297.141, 112.481 298.298, 112.811 308.627 L 113.166 319.754 110.741 319.291 C 107.743 318.718, 104.778 321.437, 105.197 324.375 C 105.400 325.799, 106.654 326.872, 109 327.630 C 112.319 328.701, 112.543 329.062, 113.326 334.630 C 113.781 337.858, 113.921 362.469, 113.639 389.320 C 113.195 431.580, 113.318 437.981, 114.556 436.954 C 117.387 434.604, 117.905 427.856, 118.471 386 C 118.786 362.625, 119.260 336.750, 119.524 328.500 L 120.003 313.500 123.011 311 C 124.665 309.625, 126.014 308.007, 126.009 307.405 C 125.996 305.811, 122.612 303, 120.706 303 C 118.166 303, 116.806 299.354, 116.646 292.122 L 116.500 285.500 119.500 285.162 C 123.561 284.703, 125.160 283.174, 124.801 280.090 C 124.569 278.098, 123.816 277.393, 121.500 277 C 118.808 276.543, 118.474 276.080, 118.250 272.495 C 118.048 269.255, 118.565 267.886, 120.986 265.250 C 123.996 261.974, 126.361 261.157, 127.500 263 C 127.840 263.550, 128.879 263.982, 129.809 263.960 C 130.933 263.933, 130.548 263.404, 128.664 262.383 C 125.896 260.883, 125.872 260.799, 127.653 258.831 C 130.564 255.614, 132.917 254.686, 134.606 256.088 C 136.599 257.742, 138.416 255.887, 137.532 253.101 C 136.668 250.380, 135.584 250.453, 131.589 253.500 C 127.588 256.552, 125.573 256.741, 126.290 253.999 C 126.578 252.898, 126.456 252.218, 126.020 252.488 C 125.584 252.757, 124.937 254.445, 124.582 256.239 C 123.982 259.273, 119.953 265, 118.419 265 C 117.622 265, 118.598 254.838, 120.148 247 C 121.278 241.286, 125.419 232.140, 128.640 228.244 C 130.327 226.202, 130.840 226.099, 134.162 227.137 C 140.899 229.242, 143.281 225.754, 138.575 220.675 L 136.150 218.058 138.693 214.279 C 141.760 209.720, 149.761 199.985, 151.866 198.250 C 153.427 196.963, 162.606 196.528, 165.418 197.607 C 166.288 197.941, 167.007 198.953, 167.015 199.857 C 167.024 200.761, 167.510 202.175, 168.096 203 C 168.917 204.155, 169.024 203.868, 168.562 201.750 C 168.028 199.305, 168.248 199, 170.547 199 C 174.184 199, 177 200.735, 177 202.976 C 177 205.748, 178.913 206.491, 180.535 204.350 C 182.780 201.387, 182.277 200.518, 177.500 199.108 C 172.735 197.701, 171.621 195.572, 175.075 194.476 C 179.104 193.197, 176.346 193.091, 171.953 194.356 C 169.205 195.147, 165.021 195.420, 161.025 195.069 L 154.550 194.500 158.503 191.250 C 161.288 188.960, 163.496 187.995, 165.978 187.985 C 171.218 187.962, 172.216 186.927, 171.833 181.913 C 171.510 177.677, 171.646 177.448, 176.363 174.273 C 179.838 171.934, 182.366 171, 185.219 171 C 188.228 171, 189.671 170.416, 191.074 168.633 C 192.254 167.133, 194.467 166.021, 197.115 165.598 C 206.849 164.041, 217 157.833, 217 153.435 C 217 149.060, 212.643 148.055, 204.391 150.528 C 202.553 151.078, 202.199 150.649, 201.646 147.189 C 201.077 143.632, 199.615 142, 196.995 142 C 194.601 142, 189.416 148.165, 186.541 154.429 C 184.756 158.318, 182.329 162.357, 181.148 163.405 C 179.966 164.453, 178.986 166.028, 178.968 166.905 C 178.922 169.224, 177.276 170.983, 170 176.488 C 166.425 179.193, 163.169 181.878, 162.765 182.453 C 162.361 183.029, 162.024 182.325, 162.015 180.890 C 162.007 179.454, 163.121 176.628, 164.490 174.610 C 166.702 171.350, 166.758 171.059, 164.990 172.005 C 163.105 173.014, 163 172.751, 163 167.035 C 163 160.606, 161.771 159.372, 158.562 162.581 C 156.823 164.320, 157.312 166, 159.559 166 C 160.592 166, 161 167.227, 161 170.333 C 161 175.725, 160.448 176.297, 157.135 174.334 C 154.517 172.782, 154.518 172.789, 157.342 175.417 C 160.129 178.011, 160.160 178.163, 158.967 183.139 C 158.115 186.691, 156.383 189.761, 153.204 193.358 C 150.705 196.186, 148.142 198.630, 147.508 198.789 C 146.875 198.948, 145.836 197.935, 145.200 196.539 C 143.856 193.590, 140.037 193.106, 137.571 195.571 C 135.273 197.870, 135.634 199.856, 138.906 202.913 L 141.813 205.628 134.399 215.564 C 130.322 221.029, 125.301 228.761, 123.243 232.746 C 121.184 236.731, 119.144 239.993, 118.709 239.996 C 117.559 240.002, 118.898 217.928, 120.648 208.033 C 122.027 200.240, 129.296 178.239, 132.636 171.750 C 133.817 169.455, 134.703 169, 137.990 169 C 140.934 169, 142.206 168.484, 143.024 166.956 C 143.948 165.228, 143.644 164.470, 141.059 162.055 C 139.376 160.483, 138 158.741, 138 158.183 C 138 157.268, 150.286 133.717, 153.187 129.072 C 154.358 127.198, 154.453 127.201, 157.992 129.238 C 161.968 131.526, 166.631 131.126, 167.674 128.406 C 168.632 125.911, 166.181 121.895, 162.958 120.678 C 161.067 119.964, 160.155 119.038, 160.488 118.170 C 161.915 114.452, 168.968 106.823, 172.694 104.966 C 175.001 103.816, 177.926 102.065, 179.194 101.075 C 180.462 100.085, 184.057 98.070, 187.182 96.597 C 197.311 91.823, 202.239 83.433, 196.459 80.799 C 194.332 79.830, 193.155 80.012, 189.240 81.914 C 186.667 83.164, 184.434 83.807, 184.277 83.343 C 183.146 79.997, 179.628 75.945, 177.360 75.375 C 172.989 74.278, 170.446 78.136, 169.704 86.993 C 169.336 91.378, 168.486 94.911, 167.548 95.947 C 166.697 96.888, 166 99.391, 166 101.510 C 166 104.637, 164.448 107.762, 157.750 118.118 C 153.213 125.135, 149.142 130.903, 148.705 130.937 C 147.687 131.017, 148.736 124.676, 150.597 119.500 C 151.874 115.950, 151.868 115.714, 150.549 117.398 C 149.119 119.225, 149.024 119.194, 148.032 116.583 C 147.464 115.091, 147 112.549, 147 110.935 C 147 107.838, 145.314 107.086, 143.174 109.226 C 142.206 110.194, 142.389 110.785, 144.043 112.033 C 146.334 113.761, 148.109 122, 146.191 122 C 145.601 122, 144.840 121.550, 144.500 121 C 144.160 120.450, 143.346 120.012, 142.691 120.027 C 142.036 120.041, 142.783 120.829, 144.351 121.777 C 147.151 123.469, 147.191 123.622, 146.591 130.279 C 145.726 139.888, 143.065 143.536, 140.232 139 C 139.545 137.900, 138.165 137, 137.166 137 C 135.183 137, 131 140.927, 131 142.789 C 131 144.109, 136.115 147, 138.450 147 C 140.463 147, 140.432 147.213, 137.611 152.783 C 134.799 158.335, 125.245 182.584, 122.061 192.250 C 120.838 195.963, 119.351 199, 118.757 199 C 117.042 199, 118.829 122.806, 121.050 101.289 C 121.572 96.224, 122 91.386, 122 90.539 C 122 89.392, 123.096 89, 126.300 89 C 131.109 89, 133 87.686, 133 84.342 C 133 82.724, 131.726 81.338, 128.500 79.447 C 126.025 77.997, 124 76.363, 124 75.817 C 124 75.271, 126.398 72.328, 129.329 69.278 L 134.659 63.732 138.396 64.966 C 140.452 65.644, 142.382 65.951, 142.685 65.648 C 142.988 65.345, 142.058 64.802, 140.618 64.440 C 139.178 64.079, 138 63.182, 138 62.448 C 138 60.537, 146.219 55.819, 147.433 57.033 C 149.396 58.996, 152 58.104, 152 55.469 C 152 52.370, 149.529 51.229, 147.213 53.258 C 145.431 54.819, 139.567 58, 138.470 58 C 138.124 58, 138.101 56.538, 138.419 54.750 C 138.932 51.868, 138.765 52.009, 136.945 56 C 135.102 60.043, 126.553 70, 124.926 70 C 124.569 70, 124.419 68.987, 124.592 67.750 C 127.379 47.808, 127.155 48.636, 130.649 45.317 C 133.073 43.015, 134 41.259, 134 38.972 C 134 37.232, 134.831 34.614, 135.847 33.154 C 140.264 26.807, 141.276 18.276, 138 15 C 135.845 12.845, 135.308 12.779, 130.027 14.022 M 129.324 15.779 C 128.677 16.190, 127.609 18.666, 126.951 21.280 C 125.562 26.796, 124.515 27.830, 123.063 25.117 C 122.114 23.344, 116.127 19, 114.632 19 C 112.940 19, 114.332 24.158, 117.027 27.879 C 121.136 33.551, 125.780 35.748, 129.981 34.008 C 133.518 32.543, 136.602 27.344, 137.586 21.187 C 138.126 17.809, 137.909 17.021, 136.178 16.095 C 133.817 14.832, 131.016 14.702, 129.324 15.779 M 137.671 44.226 C 135.642 46.702, 134.018 49.778, 134.039 51.103 C 134.076 53.346, 134.164 53.308, 135.412 50.500 C 136.145 48.850, 137.872 46.461, 139.249 45.191 L 141.754 42.883 142.396 45.441 C 142.749 46.849, 142.749 49.238, 142.395 50.750 C 141.788 53.343, 141.852 53.405, 143.503 51.837 C 145.456 49.983, 145.029 44.789, 142.658 41.547 C 141.441 39.882, 141.065 40.084, 137.671 44.226 M 28 43.998 C 26.700 44.837, 26.801 45.497, 28.763 48.953 L 31.025 52.940 24.368 52.720 C 19.735 52.567, 17.575 52.885, 17.267 53.765 C 16.646 55.537, 27.291 60.225, 33.231 60.796 C 39.595 61.408, 42 59.392, 42 53.449 C 42 49.845, 41.468 48.740, 38.465 46.104 C 34.871 42.948, 30.875 42.144, 28 43.998 M 149 55 C 149 55.550, 149.450 56, 150 56 C 150.550 56, 151 55.550, 151 55 C 151 54.450, 150.550 54, 150 54 C 149.450 54, 149 54.450, 149 55 M 115.229 57.171 C 113.357 59.043, 113.755 60.703, 116.233 61.351 C 118.911 62.051, 120.317 60.885, 119.832 58.368 C 119.402 56.132, 116.915 55.485, 115.229 57.171 M 141.500 61 C 141.147 61.571, 142.021 62, 143.537 62 C 144.997 62, 147.517 62.944, 149.137 64.098 C 151.554 65.819, 151.864 66.459, 150.864 67.664 C 148.626 70.361, 144.591 71.910, 142.644 70.821 C 140.482 69.611, 139.171 70.571, 140.783 72.183 C 143.013 74.413, 147.965 73.497, 151.205 70.256 C 154.937 66.524, 154.494 64.803, 149.089 62.045 C 144.666 59.789, 142.438 59.482, 141.500 61 M 62.473 65.250 C 62.218 65.938, 62.359 67.780, 62.785 69.345 L 63.561 72.189 64.913 69.662 C 66.322 67.029, 65.834 64, 64 64 C 63.415 64, 62.729 64.563, 62.473 65.250 M 56 68 C 56 68.550, 56.413 69, 56.918 69 C 57.423 69, 58.661 69.262, 59.668 69.582 C 61.344 70.114, 61.335 70.029, 59.559 68.582 C 57.336 66.770, 56 66.552, 56 68 M 68.174 71.314 C 66.978 72.587, 66.018 74.275, 66.040 75.064 C 66.062 75.854, 66.751 75.263, 67.572 73.750 C 68.393 72.237, 69.500 71, 70.032 71 C 71.448 71, 71.215 78.372, 69.750 79.925 C 68.741 80.994, 68.789 81.162, 70 80.796 C 71.053 80.477, 71.589 78.653, 71.800 74.671 C 72.129 68.453, 71.452 67.826, 68.174 71.314 M 55 72.223 C 55 73.078, 55.922 74.841, 57.049 76.139 L 59.099 78.500 57.422 75 C 55.340 70.654, 55 70.264, 55 72.223 M 108.559 73.887 C 107.701 75.544, 107.046 77.711, 107.102 78.700 C 107.158 79.690, 107.673 79.037, 108.247 77.250 C 108.820 75.463, 109.845 74, 110.523 74 C 112.153 74, 114.398 79.517, 113.450 81.190 C 112.877 82.199, 112.996 82.233, 113.966 81.338 C 114.977 80.404, 114.944 79.332, 113.800 75.900 C 112.024 70.573, 110.563 70.011, 108.559 73.887 M 174.153 78.750 C 172.578 81.757, 171.814 86.877, 172.485 89.933 C 172.943 92.019, 174.274 93.462, 177.096 94.933 C 180.803 96.865, 181.303 96.900, 184.728 95.469 C 192.709 92.134, 198.242 86.201, 195.947 83.436 C 194.258 81.401, 192.622 81.638, 188.352 84.536 C 183.579 87.775, 182.122 87.417, 180.470 82.600 C 178.610 77.175, 175.857 75.498, 174.153 78.750 M 49.480 79.032 C 49.092 79.660, 49.245 80.645, 49.820 81.220 C 51.164 82.564, 54.297 81.392, 53.750 79.749 C 53.194 78.078, 50.364 77.602, 49.480 79.032 M 125 82.878 C 125 85.130, 127.494 87.431, 128.956 86.527 C 130.553 85.540, 130.197 82.290, 128.418 81.607 C 125.805 80.604, 125 80.903, 125 82.878 M 98.750 87.162 C 95.581 88.320, 95.437 89.010, 97.518 93.035 C 99.170 96.230, 103.460 97.940, 105.273 96.127 C 106.109 95.291, 105.743 95, 103.855 95 C 102.455 95, 100.457 94.057, 99.414 92.905 C 97.544 90.839, 97.551 90.782, 99.945 88.843 C 101.560 87.536, 103.177 87.079, 104.771 87.479 C 106.303 87.863, 106.936 87.705, 106.525 87.040 C 105.738 85.767, 102.429 85.819, 98.750 87.162 M 73.250 94.667 C 72.563 94.942, 72 96.029, 72 97.083 C 72 98.475, 72.704 99, 74.570 99 C 76.638 99, 77.077 98.577, 76.820 96.828 C 76.483 94.539, 75.324 93.837, 73.250 94.667 M 62 107.441 C 62 108.784, 62.337 110.091, 62.750 110.345 C 63.163 110.600, 63.500 109.502, 63.500 107.905 C 63.500 106.307, 63.163 105, 62.750 105 C 62.337 105, 62 106.098, 62 107.441 M 66 106.709 C 66.825 107.013, 68.287 107.947, 69.250 108.785 C 70.301 109.701, 71 109.862, 71 109.190 C 71 107.904, 67.764 105.962, 65.816 106.079 C 64.908 106.133, 64.965 106.329, 66 106.709 M 153.250 108.989 C 151.463 110.079, 150 111.460, 150 112.058 C 150 112.656, 151.202 112.200, 152.671 111.044 C 156.005 108.422, 157.277 109.548, 156.002 113.993 C 155.168 116.901, 155.226 117.190, 156.395 115.953 C 157.150 115.154, 158.065 112.813, 158.429 110.750 C 159.206 106.344, 158.167 105.991, 153.250 108.989 M 57 112.067 C 57 112.680, 57.853 112.864, 59 112.500 C 60.419 112.050, 61 112.320, 61 113.433 C 61 114.366, 61.863 115, 63.135 115 C 65.179 115, 65.161 114.915, 62.727 113 C 59.976 110.836, 57 110.351, 57 112.067 M 136.037 112.977 C 134.371 114.007, 134.296 120.447, 135.927 122.412 C 136.652 123.285, 138.202 123.964, 139.372 123.921 C 140.809 123.868, 141.013 123.668, 140 123.306 C 137.737 122.497, 136 119.893, 136 117.309 C 136 115.470, 136.547 115, 138.686 115 C 140.163 115, 142.474 116.013, 143.823 117.250 C 145.396 118.694, 146.110 118.962, 145.814 118 C 145.186 115.952, 137.562 112.034, 136.037 112.977 M 60.785 119.367 C 59.479 120.358, 59.348 120.948, 60.235 121.835 C 61.739 123.339, 63.333 123.349, 62.406 121.848 C 62.015 121.215, 62.524 120.090, 63.538 119.348 C 64.875 118.371, 64.986 118.009, 63.941 118.032 C 63.149 118.049, 61.728 118.650, 60.785 119.367 M 108.170 120.170 C 108.596 123.181, 112.500 123.478, 112.500 120.500 C 112.500 119.167, 111.723 118.390, 110.170 118.170 C 108.231 117.895, 107.895 118.231, 108.170 120.170 M 67 123 L 63.500 123.737 66.691 123.868 C 68.446 123.941, 70.160 123.550, 70.500 123 C 70.840 122.450, 70.979 122.059, 70.809 122.132 C 70.639 122.204, 68.925 122.595, 67 123 M 159.096 124.385 C 158.084 125.604, 158.330 126.170, 160.484 127.582 C 163.425 129.508, 165.430 128.482, 164.834 125.356 C 164.390 123.030, 160.734 122.411, 159.096 124.385 M 20.494 131.009 C 19.455 132.690, 20.941 135.773, 24.053 138.392 C 25.674 139.755, 27 141.125, 27 141.435 C 27 141.746, 24.188 142.007, 20.750 142.015 C 9.023 142.044, 9.192 146.040, 21 147.939 C 33.901 150.015, 38 149.138, 38 144.303 C 38 141.364, 31.752 134.424, 26.858 131.928 C 22.575 129.742, 21.384 129.570, 20.494 131.009 M 86.110 135.367 C 85.246 136.409, 85.346 137.042, 86.530 138.025 C 88.441 139.611, 90.574 137.939, 89.664 135.567 C 88.923 133.637, 87.608 133.563, 86.110 135.367 M 135.250 140.662 C 133.487 141.374, 133.696 143.669, 135.590 144.396 C 137.725 145.215, 139 144.297, 139 141.941 C 139 140.050, 137.790 139.637, 135.250 140.662 M 67 145.965 C 67 148.506, 69.417 154.522, 70.775 155.361 C 71.314 155.694, 71.127 154.144, 70.359 151.917 C 68.468 146.428, 69.476 145.363, 73.590 148.501 C 75.465 149.931, 77 150.660, 77 150.119 C 77 148.895, 72.262 145.499, 69.250 144.564 C 67.409 143.992, 67 144.247, 67 145.965 M 194.173 145.292 C 192.263 147.593, 188.020 157.441, 188.010 159.595 C 187.999 161.998, 190.905 165, 193.243 165 C 196.132 165, 210.738 158.947, 212.472 157.031 C 214.672 154.600, 214.078 151.586, 211.322 151.191 C 210.136 151.021, 206.893 152.034, 204.116 153.441 C 201.339 154.849, 198.804 156, 198.484 156 C 198.163 156, 198.206 153.300, 198.580 150 C 199.209 144.434, 199.113 144, 197.252 144 C 196.148 144, 194.763 144.581, 194.173 145.292 M 86.250 153.097 C 83.863 153.802, 83 154.639, 83 156.251 L 83 158.445 84.557 156.223 C 85.653 154.658, 87.132 154, 89.557 154 C 92.842 154, 93 154.165, 93 157.594 C 93 160.346, 92.532 161.310, 91 161.710 C 88.755 162.297, 88.268 164, 90.345 164 C 93.009 164, 95.145 160.345, 94.816 156.348 C 94.545 153.054, 94.140 152.474, 92 152.319 C 90.625 152.219, 88.037 152.570, 86.250 153.097 M 69 163.441 C 69 165.055, 70.416 166.250, 71.292 165.375 C 72.072 164.595, 70.997 162, 69.893 162 C 69.402 162, 69 162.648, 69 163.441 M 169.250 163.491 C 167.463 164.268, 166 165.348, 166 165.892 C 166 166.436, 167.237 166.236, 168.750 165.447 C 174.327 162.538, 175.422 164.131, 171.881 170 L 169.770 173.500 172.224 171.227 C 173.574 169.976, 175.159 167.389, 175.746 165.477 C 176.737 162.248, 176.659 162.003, 174.656 162.039 C 173.470 162.061, 171.037 162.714, 169.250 163.491 M 136.550 163.919 C 136.237 164.425, 136.697 165.554, 137.571 166.429 C 139.458 168.315, 141 167.646, 141 164.941 C 141 162.922, 137.643 162.151, 136.550 163.919 M 148.035 166.934 C 145.574 171.532, 148.445 179.018, 152.189 177.770 C 153.049 177.484, 152.727 176.924, 151.247 176.132 C 149.581 175.241, 149 174.033, 149 171.465 C 149 168.419, 149.308 168, 151.545 168 C 152.945 168, 155.195 169.105, 156.545 170.455 C 158.620 172.529, 159 172.638, 159 171.154 C 159 170.063, 157.288 168.567, 154.473 167.199 C 149.001 164.541, 149.309 164.553, 148.035 166.934 M 66.636 185.750 C 68.211 189.603, 72 194.283, 72 192.377 C 72 191.790, 71.100 190.495, 70 189.500 C 67.780 187.491, 67.303 183.997, 69.250 184.006 C 69.938 184.010, 71.737 184.658, 73.250 185.447 C 74.763 186.236, 76 186.484, 76 185.997 C 76 184.321, 71.546 182, 68.329 182 L 65.102 182 66.636 185.750 M 166 184.500 C 166 185.325, 166.675 186, 167.500 186 C 168.325 186, 169 185.325, 169 184.500 C 169 183.675, 168.325 183, 167.500 183 C 166.675 183, 166 183.675, 166 184.500 M 82.446 186.087 C 81.416 187.755, 83.733 189.667, 85.113 188.287 C 86.267 187.133, 85.545 185, 84 185 C 83.515 185, 82.816 185.489, 82.446 186.087 M 176.750 188.392 C 175.787 189.123, 175 190.098, 175 190.560 C 175 191.022, 175.540 190.860, 176.200 190.200 C 177.597 188.803, 184 188.566, 184 189.911 C 184 190.412, 182.648 191.960, 180.996 193.350 C 178.036 195.841, 178.082 197.919, 181.048 195.661 C 183.402 193.869, 187.017 188.350, 186.304 187.637 C 185.169 186.502, 178.550 187.025, 176.750 188.392 M 138.583 197.866 C 137.903 198.967, 141.433 202.234, 142.331 201.336 C 142.699 200.968, 143 199.842, 143 198.833 C 143 196.944, 139.611 196.202, 138.583 197.866 M 75.143 199.750 C 74.633 200.713, 73.765 203.145, 73.215 205.156 C 71.966 209.715, 73.054 211, 78.165 211 C 82.089 211, 84.043 209.083, 83.960 205.316 C 83.929 203.934, 83.572 204.141, 82.464 206.181 C 80.958 208.955, 77.772 210.595, 76.009 209.506 C 74.374 208.495, 74.775 201.024, 76.500 200.362 C 78.162 199.724, 78.552 198, 77.035 198 C 76.505 198, 75.653 198.787, 75.143 199.750 M 171 201.178 C 171 201.960, 171.506 203.106, 172.125 203.725 C 173.395 204.995, 172.460 212, 171.020 212 C 168.271 212, 165 209.840, 165 208.025 C 165 206.911, 164.550 206, 164 206 C 162.342 206, 162.870 208.565, 165.116 211.420 C 166.750 213.497, 167.944 214.040, 170.366 213.805 C 173.427 213.507, 173.507 213.370, 173.795 207.910 C 174.011 203.814, 173.677 201.977, 172.545 201.037 C 171.275 199.983, 171 200.008, 171 201.178 M 178.500 203 C 178.840 203.550, 179.316 204, 179.559 204 C 179.802 204, 180 203.550, 180 203 C 180 202.450, 179.523 202, 178.941 202 C 178.359 202, 178.160 202.450, 178.500 203 M 103.336 216.567 C 103.005 217.429, 103.225 218.625, 103.825 219.225 C 105.269 220.669, 108.096 218.414, 107.334 216.427 C 106.602 214.521, 104.087 214.609, 103.336 216.567 M 134 223.465 C 134 224.270, 134.907 225.415, 136.015 226.008 C 137.621 226.867, 138.158 226.753, 138.661 225.442 C 139.016 224.515, 138.682 223.413, 137.896 222.914 C 135.781 221.575, 134 221.827, 134 223.465 M 125.058 242.627 C 123.881 244.622, 123.089 246.759, 123.298 247.377 C 123.507 247.995, 124.437 247.037, 125.364 245.250 C 127.570 241, 128.766 241.144, 129.537 245.750 C 130.444 251.177, 130.831 251.918, 130.921 248.399 C 131.011 244.848, 129.195 239, 128.001 239 C 127.559 239, 126.235 240.632, 125.058 242.627 M 108.323 251.601 C 107.623 253.425, 109.655 255.070, 111.659 254.300 C 113.495 253.596, 113.349 251.348, 111.418 250.607 C 109.188 249.751, 109.011 249.808, 108.323 251.601 M 135 254 C 135 254.550, 135.450 255, 136 255 C 136.550 255, 137 254.550, 137 254 C 137 253.450, 136.550 253, 136 253 C 135.450 253, 135 253.450, 135 254 M 129.667 258.667 C 128.339 259.995, 129.042 261.121, 130.843 260.550 C 132.962 259.877, 138 263.396, 138 265.550 C 138 266.322, 136.905 267.671, 135.567 268.548 C 133.675 269.788, 132.675 269.896, 131.067 269.036 C 129.930 268.427, 129 268.319, 129 268.796 C 129 269.272, 130.063 270.231, 131.362 270.926 C 134.158 272.423, 137.102 271.047, 139.103 267.307 C 140.139 265.372, 140.033 264.694, 138.416 262.907 C 136.781 261.101, 131.916 258, 130.716 258 C 130.506 258, 130.033 258.300, 129.667 258.667 M 104.199 266.750 C 101.734 270.250, 100.663 273.674, 101.811 274.383 C 102.302 274.686, 103.238 273.149, 103.892 270.967 C 104.545 268.785, 105.458 267, 105.919 267 C 107.340 267, 109.264 272.839, 108.742 275.568 C 108.404 277.339, 108.572 277.828, 109.278 277.122 C 110.760 275.640, 110.396 270.667, 108.544 267.084 C 107.666 265.388, 106.766 264, 106.542 264 C 106.319 264, 105.265 265.238, 104.199 266.750 M 119.097 280.383 C 118.224 281.435, 118.255 281.879, 119.224 282.236 C 121.119 282.933, 123 282.027, 123 280.417 C 123 278.604, 120.591 278.583, 119.097 280.383 M 92.250 283.584 C 90.361 284.411, 89.002 285.737, 89.005 286.753 C 89.011 288.956, 93.009 293.831, 95 294.063 C 97.998 294.411, 100 293.978, 100 292.981 C 100 292.408, 98.962 292.222, 97.632 292.556 C 95.833 293.008, 94.751 292.499, 93.132 290.440 C 90.352 286.907, 90.405 286.654, 94.313 284.791 C 96.581 283.709, 98.157 283.509, 99.313 284.155 C 100.576 284.862, 101 284.710, 101 283.550 C 101 281.595, 96.761 281.612, 92.250 283.584 M 118 306.378 C 118 308.223, 120.651 310.334, 121.956 309.527 C 123.523 308.559, 123.212 306.295, 121.418 305.607 C 118.960 304.664, 118 304.880, 118 306.378 M 108 323.893 C 108 326.128, 110.312 327.288, 111.800 325.800 C 113.288 324.312, 112.128 322, 109.893 322 C 108.702 322, 108 322.702, 108 323.893" stroke="none" fill="#ffffff" fill-rule="evenodd"/>
</svg>