<svg xmlns="http://www.w3.org/2000/svg" width="194" height="446" viewBox="0 0 194 446" version="1.1">
	<path d="M 51.560 50.902 C 51.152 51.564, 49.818 84.702, 49.980 90.180 C 49.991 90.554, 47.188 89.706, 43.750 88.296 C 36.154 85.180, 27.959 82.907, 26.830 83.605 C 25.380 84.501, 25.877 86.610, 31.570 103.741 C 37.444 121.414, 39.914 126.059, 46.382 131.595 C 50.855 135.424, 55.947 136.126, 59.777 133.443 C 63.196 131.049, 62.503 130.500, 56.056 130.500 C 50.622 130.500, 49.802 130.201, 46.517 127.016 C 42.901 123.512, 37.011 113.050, 36.987 110.090 C 36.980 109.216, 35.855 104.995, 34.487 100.712 C 31.664 91.871, 31.393 89, 33.384 89 C 35.889 89, 50.433 96.871, 53.761 100.028 C 57.593 103.664, 60.450 108.931, 62.063 115.335 C 63.411 120.687, 65.641 123.194, 67.045 120.936 C 67.536 120.146, 68.925 119.500, 70.131 119.500 C 73.478 119.500, 73.465 117.358, 70.110 116.188 C 67.764 115.370, 66.377 113.590, 63.595 107.825 C 61.652 103.796, 58.473 98.313, 56.531 95.641 C 53.694 91.737, 53 89.869, 53.001 86.141 C 53.002 79.771, 54.952 59.712, 55.635 59.044 C 56.378 58.317, 64.118 67.155, 68.726 73.992 C 74.046 81.884, 76.918 89.727, 78.319 100.191 C 79.892 111.932, 82 113.363, 82 102.689 C 82 88.233, 76.477 76.329, 61.918 59.404 C 53.967 50.162, 52.674 49.101, 51.560 50.902 M 109.500 62.631 C 95.082 73.755, 89.066 81.320, 87.099 90.799 C 85.738 97.363, 85.671 109.004, 86.975 112.435 C 88.195 115.643, 90.430 115.932, 89.421 112.751 C 88.264 109.106, 88.533 97.911, 89.912 92.268 C 90.615 89.391, 92.456 85.290, 94.002 83.156 C 97.074 78.916, 112.406 65, 114.006 65 C 115.472 65, 115.238 69.590, 112.887 86.923 C 111.129 99.890, 110.316 103.254, 108.035 107 C 106.527 109.475, 104.291 113.188, 103.066 115.250 L 100.837 119 102.939 119 C 104.442 119, 106.324 117.015, 109.551 112.027 L 114.062 105.054 117.031 83.778 C 118.664 72.076, 120 61.489, 120 60.251 C 120 56.610, 116.182 57.475, 109.500 62.631 M 139 80.471 C 127.435 86.980, 122.816 90.752, 119.520 96.376 C 114.337 105.219, 111.690 120.532, 113.923 128.750 C 115.530 134.668, 116.965 134.064, 116.313 127.743 C 115.562 120.468, 117.565 108.514, 120.576 102.303 C 123.485 96.302, 130.122 90.317, 138.684 85.975 C 146.270 82.128, 147.228 82.161, 146.558 86.250 C 146.265 88.037, 145.542 92.425, 144.951 96 C 142.920 108.290, 140.221 115.353, 134.029 124.578 C 128.250 133.188, 126.989 136, 128.907 136 C 130.288 136, 138.490 126.545, 141.365 121.641 C 144.841 115.708, 147.479 105.655, 149.504 90.617 C 151.116 78.642, 151.063 74.921, 149.281 75.062 C 148.852 75.096, 144.225 77.530, 139 80.471 M 98.977 102.750 C 93.136 115.120, 86.567 133.599, 85.387 140.983 C 84.054 149.315, 82.794 146.966, 79.493 130 C 76.287 113.517, 72.520 100.147, 71.399 101.268 C 71.099 101.568, 72.546 108.820, 74.615 117.385 C 76.684 125.949, 78.085 133.248, 77.729 133.605 C 77.372 133.961, 74.925 132.462, 72.290 130.273 C 66.896 125.792, 52.256 117, 50.188 117 C 47.146 117, 50.188 119.825, 59.412 125.567 C 72.789 133.894, 78.692 139.142, 79.955 143.833 C 82.446 153.086, 82.425 153.849, 79.638 155.119 C 74.462 157.477, 75.503 163, 81.122 163 C 82.705 163, 83.995 163.338, 83.989 163.750 C 83.983 164.162, 84.956 172.970, 86.152 183.321 L 88.326 202.142 85.607 204.663 C 82.034 207.977, 82.558 210.361, 87 211 C 91.361 211.627, 91.619 212.841, 89.553 223.033 C 86.771 236.764, 87.098 236.677, 80.527 225.427 C 69.608 206.730, 46.935 174, 44.902 174 C 44.341 174, 44.112 174.338, 44.392 174.750 C 44.673 175.162, 50.535 184.036, 57.419 194.470 L 69.935 213.440 67.885 215.622 C 66.694 216.891, 65.974 218.787, 66.168 220.152 C 66.469 222.281, 66.943 222.477, 71.244 222.258 L 75.988 222.016 80.665 231.258 L 85.342 240.500 82.582 260 C 79.403 282.463, 79.071 284.162, 77.989 283.493 C 77.550 283.222, 75.773 280.488, 74.041 277.418 C 71.622 273.132, 71.152 271.521, 72.018 270.479 C 73.594 268.580, 72.845 263.918, 70.753 262.608 C 69.450 261.792, 68.453 261.860, 66.825 262.877 C 64.788 264.149, 64.337 263.884, 60.071 258.904 C 45.941 242.410, 37.942 234.507, 36.045 235.165 C 35.514 235.349, 39.340 240.225, 44.548 246 C 54.366 256.889, 55.959 259.441, 54.099 261.301 C 51.162 264.238, 54.607 269.351, 58.068 267.190 C 59.116 266.535, 60.411 266, 60.947 266 C 61.916 266, 69.904 276.468, 75.396 284.934 L 78.272 289.368 77.585 301.736 C 76.806 315.749, 76.508 317, 73.950 317 C 71.622 317, 69.073 320.562, 69.696 322.944 C 69.957 323.943, 71.515 325.151, 73.158 325.630 L 76.146 326.500 76.527 342 C 76.736 350.525, 77.159 363.575, 77.466 371 C 77.774 378.425, 78.258 390.125, 78.542 397 C 79.309 415.542, 80.081 423, 81.235 423 C 81.917 423, 82.057 419.688, 81.647 413.250 C 81.305 407.887, 80.723 392.137, 80.353 378.250 C 79.742 355.332, 79.829 353, 81.304 353 C 83.428 353, 85.316 349.395, 84.627 346.657 C 84.328 345.471, 83.052 344.050, 81.792 343.500 C 79.554 342.523, 79.500 342.160, 79.500 327.946 L 79.500 313.392 83.191 305.926 C 87.338 297.538, 89.356 295.361, 96.413 291.660 C 101.617 288.932, 103 288.990, 103 291.937 C 103 292.937, 103.683 294.322, 104.519 295.016 C 106.877 296.972, 110.268 293.497, 109.484 289.927 C 108.967 287.575, 109.300 287.091, 112.112 286.111 C 113.883 285.493, 119.757 284.698, 125.166 284.344 C 134.796 283.713, 137.247 282.836, 132.750 281.630 C 126.244 279.887, 107.587 283.206, 98.651 287.697 C 95.983 289.038, 93.572 289.905, 93.292 289.625 C 92.577 288.911, 105.001 273.023, 106.375 272.894 C 106.994 272.836, 108.736 272.869, 110.246 272.969 C 112.394 273.111, 113.217 272.560, 114.022 270.443 C 114.588 268.954, 114.777 266.874, 114.443 265.820 C 114.049 264.580, 114.814 262.601, 116.615 260.203 C 121.020 254.336, 129.233 245, 129.989 245 C 130.369 245, 131.187 246.116, 131.809 247.479 C 132.710 249.459, 133.368 249.800, 135.068 249.171 C 136.239 248.737, 137.940 247.145, 138.849 245.632 C 140.395 243.055, 140.389 242.817, 138.750 241.890 C 137.787 241.346, 137.019 240.135, 137.043 239.200 C 137.066 238.265, 141.346 233.043, 146.554 227.595 C 155.853 217.867, 157.865 214.796, 152.308 218.810 C 149.249 221.019, 128.180 242.183, 122.967 248.284 C 121.189 250.365, 119.572 251.906, 119.375 251.708 C 119.177 251.511, 121.759 243.283, 125.112 233.425 C 133.366 209.159, 140.347 181.320, 137.452 184.214 C 137.151 184.515, 135.569 189.878, 133.936 196.131 C 129.049 214.841, 128.180 217, 125.530 217 C 124.261 217, 122.175 217.847, 120.897 218.883 C 118.845 220.544, 118.712 221.072, 119.765 223.383 C 120.420 224.822, 121.642 226, 122.479 226 C 124.717 226, 124.421 227.663, 119.871 240.684 C 114.465 256.152, 113.399 258.141, 103.741 270.790 C 93.179 284.623, 82 301.028, 82 302.695 C 82 303.413, 81.550 304, 81 304 C 79.704 304, 79.720 303.488, 81.543 286.707 C 83.393 269.679, 86.723 249.385, 88.086 246.838 C 88.628 245.827, 89.708 245, 90.488 245 C 91.268 245, 93.052 244.478, 94.453 243.839 C 99.202 241.676, 96.934 233.934, 92.009 235.497 C 90.146 236.088, 89.989 235.855, 90.542 233.330 C 91.659 228.235, 98.139 205.727, 101.596 194.935 C 104.687 185.286, 105.264 184.245, 108.240 182.935 C 111.927 181.312, 113.253 177.281, 110.590 175.791 C 109.716 175.301, 109.002 174.135, 109.005 173.200 C 109.015 169.497, 121.500 138.271, 130.433 119.603 C 136.646 106.619, 137.855 102.650, 134.560 106.060 C 133.205 107.461, 118.868 135.587, 116.989 140.530 C 116.286 142.378, 115.314 143, 113.132 143 C 108.947 143, 107.479 147.662, 110.584 151.093 C 112.043 152.705, 111.443 155.033, 102.952 180.671 C 97.883 195.977, 93.571 208.687, 93.368 208.917 C 92.410 210.001, 91.780 207.287, 90.239 195.440 C 88.940 185.457, 88.845 182.552, 89.805 182.232 C 91.960 181.513, 94.110 178.811, 93.800 177.210 C 93.635 176.358, 92.157 174.918, 90.515 174.008 C 86.695 171.891, 85.756 167.249, 86.264 153 C 86.717 140.305, 88.126 136.586, 92.500 136.535 C 96.367 136.490, 97.163 132.867, 94.038 129.540 L 91.911 127.276 94.905 119.888 C 96.552 115.825, 99.037 109.800, 100.426 106.500 C 101.816 103.200, 102.963 99.938, 102.976 99.250 C 103.027 96.553, 101.112 98.230, 98.977 102.750 M 139.949 156.264 C 134.146 163.544, 127.396 172.346, 124.949 175.824 C 120.558 182.067, 120.500 182.256, 120.500 190.364 C 120.500 196.639, 120.932 199.240, 122.330 201.377 C 124.947 205.376, 125.474 203.943, 123.534 198.103 C 121.992 193.460, 121.987 192.600, 123.463 186.839 C 124.707 181.981, 126.342 179.042, 130.853 173.551 C 134.038 169.673, 139.523 162.970, 143.042 158.656 L 149.440 150.812 150.272 153.656 C 151.578 158.114, 151.448 180.811, 150.076 187.958 C 148.506 196.140, 146.938 199.128, 140.819 205.598 C 137.761 208.831, 136.305 211.071, 136.987 211.492 C 138.174 212.225, 139.645 211.300, 144.839 206.552 C 153.441 198.690, 155.932 186.215, 154.027 160.532 C 152.860 144.807, 152.566 142.986, 151.191 143.014 C 150.811 143.021, 145.752 148.984, 139.949 156.264 M 25 153.032 C 25 154.150, 25.653 156.627, 26.451 158.537 C 27.249 160.446, 29.037 167.069, 30.425 173.254 C 34.055 189.433, 35.629 193.371, 40.729 199.044 C 46.834 205.833, 54.743 209.843, 56.481 207.030 C 56.811 206.497, 55.399 205.358, 53.344 204.499 C 41.586 199.587, 37.808 193.021, 33.418 169.879 C 32.551 165.311, 31.391 160.731, 30.840 159.701 C 29.412 157.033, 29.979 156.893, 35.547 158.532 C 50.158 162.834, 56.973 170.084, 61.862 186.525 C 64.028 193.811, 66.807 198.858, 67.079 196 C 67.619 190.314, 63.217 175.809, 58.836 168.840 C 55.103 162.900, 47.758 157.912, 37.059 154.048 C 27.021 150.424, 25 150.253, 25 153.032 M 179.870 191.464 C 179.576 191.757, 175.098 193.275, 169.918 194.836 C 157.416 198.606, 152.574 201.225, 149.010 206.145 C 146.209 210.012, 144.125 216.458, 145.296 217.630 C 145.591 217.924, 147.406 215.707, 149.328 212.701 C 153.811 205.693, 158.348 202.283, 166.204 200.017 C 177.406 196.785, 178 196.729, 178 198.898 C 178 200.926, 175.634 206.896, 171.322 215.749 C 166.756 225.126, 156.959 232.982, 149.790 233.015 C 145.084 233.037, 143.116 234.456, 145.799 235.893 C 152.553 239.507, 164.924 233.200, 171.641 222.719 C 174.794 217.800, 182.753 198.347, 183.173 194.533 C 183.400 192.479, 183.025 191.473, 181.951 191.251 C 181.099 191.075, 180.163 191.171, 179.870 191.464 M 16.389 214.429 C 16.087 215.215, 16.743 218.477, 17.846 221.679 C 18.948 224.880, 21.057 231.325, 22.532 236 C 25.803 246.368, 30.965 255.197, 35.333 257.897 C 39.949 260.749, 45.990 261.532, 48.500 259.602 C 50.456 258.097, 50.444 258.063, 47.928 258.032 C 46.514 258.014, 43.238 257.278, 40.650 256.396 C 35.904 254.779, 32.870 251.733, 29.637 245.336 C 28.189 242.471, 22 222.353, 22 220.511 C 22 219.331, 29.935 220.872, 34.458 222.929 C 40.453 225.657, 47.871 233.572, 51.158 240.750 C 52.732 244.188, 54.465 247, 55.010 247 C 56.463 247, 56.218 242.996, 54.446 237.795 C 51.148 228.117, 41.213 220.312, 26.198 215.603 C 16.451 212.547, 17.082 212.622, 16.389 214.429 M 127.491 266.803 C 123.120 268.857, 116.023 276.174, 117.822 276.774 C 118.435 276.978, 120.638 275.802, 122.718 274.160 C 124.798 272.519, 128.686 270.450, 131.357 269.563 C 136.106 267.987, 136.336 268.007, 141.734 270.478 C 148.648 273.644, 160 281.672, 160 283.396 C 160 285.380, 157.199 287.483, 149 291.658 C 142.731 294.850, 140.515 295.471, 135.500 295.443 C 129.643 295.410, 128.535 295.006, 118.614 289.279 C 115.611 287.546, 115.383 289.414, 118.169 292.933 C 121.413 297.033, 126.265 299.171, 133.671 299.766 C 140.945 300.350, 146.441 298.660, 154.500 293.362 C 162.773 287.922, 166.393 284.467, 165.703 282.668 C 164.965 280.745, 153.472 272.136, 146.728 268.455 C 140.335 264.967, 132.782 264.318, 127.491 266.803" stroke="none" fill="#ffffff" fill-rule="evenodd"/>
</svg>