<svg xmlns="http://www.w3.org/2000/svg" width="384" height="655" viewBox="0 0 384 655" version="1.1">
	<path d="M 234.843 16.764 C 234.104 17.791, 232.713 18.925, 231.750 19.284 C 230.474 19.760, 230 21.048, 230 24.034 C 230 26.288, 229.551 28.971, 229.002 29.996 C 228.056 31.763, 229.279 34.077, 231.732 35.161 C 233.255 35.834, 243 51.015, 243.015 52.737 C 243.026 54.103, 243.308 53.967, 244.265 52.133 C 244.982 50.759, 247.456 49.030, 250.164 48.012 C 252.729 47.048, 256.233 45.258, 257.949 44.036 C 260.388 42.299, 261.377 42.068, 262.471 42.976 C 263.422 43.765, 264.455 43.827, 265.686 43.168 C 267.496 42.199, 268.213 42, 269.885 42 C 270.371 42, 270.769 39.704, 270.769 36.898 L 270.769 31.796 267.853 32.379 C 265.402 32.870, 264.786 32.567, 263.993 30.481 C 263.474 29.117, 262.619 28, 262.092 28 C 261.566 28, 260.849 27.100, 260.500 26 C 259.650 23.323, 257.665 23.479, 254.429 26.478 C 252.559 28.211, 251.923 29.596, 252.312 31.085 C 252.871 33.221, 247.462 42.831, 245.637 42.946 C 245.163 42.976, 244.951 39.872, 245.167 36.049 C 245.481 30.496, 246.025 28.602, 247.873 26.635 L 250.187 24.172 247.905 21.086 C 245.498 17.830, 244.512 17.363, 243.500 19 C 242.458 20.686, 240.526 20.115, 239.487 17.815 C 238.162 14.881, 236.472 14.499, 234.843 16.764 M 197.625 19.039 C 194.570 22.276, 194.452 22.878, 196.566 24.425 C 197.975 25.455, 197.925 26.125, 196.066 31.095 C 194.929 34.134, 193.379 37.467, 192.621 38.503 C 191.358 40.231, 191.158 39.982, 190.201 35.496 C 189.343 31.473, 189.421 30.413, 190.638 29.523 C 191.919 28.586, 191.848 28.131, 190.111 26.128 C 189.008 24.856, 187.942 23.326, 187.743 22.728 C 187.379 21.636, 186.604 21.875, 182.027 24.493 C 179.888 25.716, 179.338 25.711, 177.948 24.453 C 175.675 22.396, 174.103 22.648, 172.978 25.250 C 172.443 26.488, 171.441 28.314, 170.752 29.309 C 169.711 30.813, 169.794 31.336, 171.250 32.419 C 173.425 34.037, 173.473 35.820, 171.402 38.108 C 169.701 39.988, 170.244 42, 172.452 42 C 173.186 42, 174.045 42.675, 174.362 43.500 C 175.077 45.365, 177.883 45.468, 178.579 43.654 C 179.004 42.547, 180.181 42.606, 185.225 43.987 C 190.954 45.555, 191.541 45.997, 194.232 50.759 C 197.653 56.815, 203.704 71.313, 209.123 86.441 C 211.279 92.459, 214.165 99.390, 215.536 101.844 C 216.907 104.297, 217.829 106.504, 217.585 106.748 C 216.030 108.303, 195.340 90.314, 192.496 84.936 C 191.632 83.301, 191.346 80.763, 191.706 77.936 C 192.489 71.792, 193.682 69.764, 196.066 70.521 C 198.457 71.280, 199.762 68.623, 198.026 66.531 C 197.367 65.737, 197.087 64.669, 197.403 64.157 C 198.358 62.612, 195.738 61.419, 191.500 61.469 C 188.065 61.509, 187.452 61.852, 187.163 63.895 C 186.977 65.203, 187.202 66.550, 187.663 66.887 C 190.519 68.978, 192.277 78.093, 190.084 79.448 C 189.154 80.023, 184 65.909, 184 62.786 C 184 61.846, 184.973 60.172, 186.162 59.064 L 188.323 57.050 185.677 54.404 C 183.067 51.794, 182.982 51.781, 179.515 53.426 C 175.673 55.249, 174.738 58.585, 177.750 59.725 C 178.713 60.090, 180.059 60.941, 180.743 61.616 C 182.057 62.913, 187 75.857, 187 77.999 C 187 80.392, 180.583 74.397, 180.474 71.902 C 180.141 64.275, 180.051 64.019, 177.750 64.154 C 176.512 64.227, 175.050 64.169, 174.500 64.025 C 171.978 63.365, 170.791 64.094, 171.289 65.999 C 171.577 67.098, 171.404 68.250, 170.906 68.558 C 168.690 69.928, 171.002 73.166, 174.468 73.546 C 177.635 73.894, 183.769 77.947, 187.822 82.370 C 199.304 94.900, 205.708 101.035, 210.924 104.500 C 214.235 106.700, 216.957 108.813, 216.972 109.196 C 217.013 110.211, 208.021 107.379, 200.770 104.093 C 192.206 100.212, 177.432 90.217, 172.135 84.720 C 168.213 80.650, 167.497 79.115, 165.063 69.571 C 162.842 60.862, 162.593 58.753, 163.677 57.853 C 165.491 56.348, 165.335 55.056, 163.250 54.317 C 162.287 53.975, 160.713 53.020, 159.750 52.193 C 158.188 50.851, 157.804 50.868, 156.171 52.345 C 155.165 53.255, 153.815 54, 153.171 54 C 152.527 54, 152 54.372, 152 54.827 C 152 55.282, 150.650 55.455, 149 55.213 C 146.811 54.892, 146 55.176, 146 56.265 C 146 57.085, 145.003 58.418, 143.784 59.227 L 141.568 60.698 144.284 63.926 C 147.185 67.373, 147.698 69.902, 145.867 71.733 C 144.170 73.430, 145.617 76, 148.269 76 C 149.551 76, 151.170 76.563, 151.867 77.250 C 152.882 78.251, 153.373 78.178, 154.332 76.881 C 155.417 75.414, 155.854 75.484, 158.986 77.631 C 160.888 78.934, 163.058 80, 163.808 80 C 164.559 80, 167.947 82.652, 171.337 85.894 C 182.442 96.513, 200.754 106.826, 215.002 110.486 C 218.576 111.404, 221.878 112.520, 222.339 112.966 C 222.800 113.413, 221.294 119.565, 218.992 126.639 C 203.796 173.335, 190.363 258.765, 187.286 328.293 C 186.479 346.516, 186.211 345.826, 183.476 318.500 C 179.894 282.715, 172.466 240.846, 165.469 217 C 165.169 215.979, 166.476 214.903, 169.562 213.631 C 181.672 208.639, 194.384 192.323, 191.036 186.067 C 190.409 184.895, 188.711 184.002, 186.749 183.813 C 183.204 183.471, 183.108 183.114, 184.491 175.325 L 185.231 171.151 180.030 168.515 C 176.289 166.620, 174.012 166.058, 171.926 166.516 C 169.838 166.975, 168.207 166.571, 166.108 165.077 C 162.435 162.462, 158.987 162.436, 155.727 165 C 154.329 166.100, 152.310 167, 151.240 167 C 148.577 167, 142.713 171.068, 141.529 173.738 C 140.838 175.293, 139.957 175.776, 138.483 175.406 C 136.899 175.009, 135.391 176.094, 132.099 179.997 C 128.519 184.244, 127.868 185.648, 128.256 188.290 C 128.513 190.040, 128.240 192.244, 127.649 193.190 C 125.128 197.228, 140.269 211.518, 150.191 214.464 C 153.036 215.309, 157.239 216, 159.532 216 L 163.700 216 166.827 228.750 C 176.523 268.287, 181.825 306.581, 185.452 363.250 C 185.783 368.432, 185.629 372, 185.073 372 C 184.557 372, 183.909 371.212, 183.633 370.250 C 173.798 335.953, 168.738 323.644, 142.002 269 C 120.421 224.890, 111.646 204.469, 104.492 181.703 C 100.668 169.535, 99.702 163.500, 101.577 163.500 C 102.169 163.500, 104.687 165.975, 107.172 169 L 111.691 174.500 117.595 174.224 C 121.860 174.025, 124.415 173.299, 126.795 171.611 C 131.667 168.156, 139 159.162, 139 156.641 C 139 153.569, 141.494 150.345, 146.134 147.416 C 148.313 146.040, 150.366 144.146, 150.696 143.207 C 151.026 142.268, 152.467 139.925, 153.898 138 C 156.090 135.051, 156.500 133.451, 156.500 127.833 C 156.500 122.370, 156.893 120.746, 158.675 118.833 C 161.184 116.142, 165 106.988, 165 103.663 C 165 99.864, 163.116 99, 154.837 99 C 149.298 99, 145.560 98.399, 141.787 96.901 C 137.479 95.191, 134.968 94.880, 128.230 95.223 C 120.906 95.595, 119.444 96.007, 115.450 98.822 C 108.632 103.628, 107.578 103.214, 111.364 97.216 C 112.664 95.157, 114.925 91.108, 116.389 88.218 C 119.482 82.114, 119.145 80.867, 113.105 76.083 C 107.366 71.538, 102.680 69.791, 99.483 71.007 C 95.356 72.576, 93.483 72.217, 88.005 68.813 C 82.972 65.683, 82.773 65.647, 77.129 66.813 C 73.967 67.466, 70.057 68.010, 68.440 68.022 C 63.771 68.057, 57.940 71.277, 52 77.100 C 48.975 80.065, 44.025 83.844, 41 85.496 C 36.350 88.036, 35.068 89.391, 32.706 94.265 C 30.780 98.240, 28.721 100.782, 26.080 102.449 C 18.503 107.233, 15.436 114.075, 18.346 119.703 C 20.377 123.630, 31.858 134.284, 35.833 135.931 C 37.575 136.652, 39 137.536, 39 137.894 C 39 138.743, 20.659 149.336, 15.537 151.445 C 11.392 153.151, 8 155.718, 8 157.150 C 8 157.612, 9.983 158.922, 12.406 160.061 C 15.170 161.360, 17.239 163.162, 17.957 164.896 C 18.666 166.607, 20.623 168.331, 23.094 169.421 C 26.051 170.726, 27.233 171.916, 27.652 174.009 C 27.963 175.564, 29.406 178.251, 30.859 179.981 C 33.131 182.687, 34.524 183.284, 40.821 184.252 C 46.338 185.100, 49.221 185.088, 52.525 184.204 C 54.937 183.560, 58.214 183.293, 59.807 183.611 C 61.713 183.993, 64.084 183.488, 66.731 182.137 C 68.945 181.008, 73.752 179.331, 77.413 178.411 C 82.650 177.096, 84.654 176.030, 86.812 173.412 C 89.270 170.429, 95.237 167, 97.968 167 C 98.536 167, 99 167.632, 99 168.404 C 99 171.166, 108.309 198.770, 114.208 213.500 C 117.512 221.750, 129.815 248.075, 141.547 272 C 153.280 295.925, 165.550 322.250, 168.815 330.500 C 173.880 343.298, 182 368.394, 182 371.247 C 182 371.738, 181.011 371.995, 179.802 371.820 C 178.124 371.575, 175.223 367.367, 167.520 354 C 149.885 323.397, 133.802 298.746, 115.800 274.725 C 107.002 262.985, 106.979 262.940, 108.487 260.024 C 110.646 255.851, 110.368 251.814, 107.445 244.868 C 105.415 240.047, 103.056 227.649, 103.008 221.550 C 102.992 219.592, 101.160 222.599, 99.710 226.962 C 98.895 229.416, 97.839 231.520, 97.364 231.638 C 96.889 231.755, 94.363 229.203, 91.752 225.967 C 89.140 222.730, 83.391 217.166, 78.976 213.601 C 74.560 210.036, 68.910 204.617, 66.419 201.560 C 61.775 195.858, 59.363 194.458, 60.290 198 C 60.747 199.748, 60.320 200, 56.906 200 C 54.758 200, 53 200.450, 53 201 C 53 201.550, 52.153 202, 51.117 202 C 48.166 202, 48.978 207.072, 52.589 211.184 C 54.276 213.106, 58.647 219.814, 62.301 226.089 C 65.955 232.365, 70.987 239.975, 73.484 243 L 78.023 248.500 71.511 248.796 C 64.514 249.113, 62.983 250.404, 68.250 251.545 C 70.037 251.932, 76.810 255.005, 83.301 258.374 C 93.466 263.651, 95.878 264.511, 100.702 264.581 L 106.303 264.662 115.231 276.581 C 125.325 290.057, 144.556 318.531, 153.672 333.500 C 161.616 346.544, 175 370.211, 175 371.215 C 175 373.308, 171.262 371.497, 165.785 366.750 C 160.582 362.241, 158.979 359.948, 154.426 350.500 C 151.510 344.450, 147.715 337.925, 145.994 336 C 142.645 332.256, 142.944 333.574, 146.561 338.500 C 147.773 340.150, 149.523 342.999, 150.450 344.832 L 152.136 348.163 146.318 343.911 L 140.500 339.659 148.250 347.171 C 152.513 351.302, 156 355.466, 156 356.424 C 156 357.383, 155.662 358.003, 155.250 357.803 C 154.838 357.603, 151.912 356.240, 148.749 354.775 C 142.166 351.724, 134.047 345.116, 130.593 340 C 129.209 337.949, 127.995 334.324, 127.662 331.244 C 127.349 328.353, 126.602 325.203, 126.003 324.244 C 124.877 322.442, 124.933 323.199, 126.598 332.250 L 127.195 335.500 125.139 333.500 C 124.007 332.400, 121.721 329.025, 120.059 326 C 118.396 322.975, 117.028 320.885, 117.018 321.355 C 116.989 322.708, 121.995 332.319, 123.734 334.250 C 125.906 336.662, 124.431 336.443, 120.724 333.803 C 119.027 332.595, 117.973 332.147, 118.381 332.808 C 118.790 333.469, 121.684 335.791, 124.812 337.969 C 130.682 342.055, 138.066 349, 136.540 349 C 134.947 349, 120.562 340.104, 114.823 335.570 C 110.970 332.526, 107.969 328.982, 105.487 324.542 C 101.498 317.409, 99.728 315.587, 102.980 321.960 C 106.300 328.468, 105.318 328.737, 99.305 322.966 C 94.942 318.778, 94.206 318.318, 96.157 321 C 99.305 325.326, 118.212 340.112, 128.136 346.008 C 136.934 351.236, 136.443 350.890, 135.874 351.460 C 134.860 352.473, 123.138 348.917, 117.500 345.886 C 114.200 344.112, 109.298 340.487, 106.607 337.830 C 103.916 335.174, 101.216 333.007, 100.607 333.015 C 99.998 333.023, 101.300 334.556, 103.500 336.422 C 105.700 338.287, 107.232 340.086, 106.905 340.419 C 106.577 340.752, 104.327 340.154, 101.905 339.091 C 99.482 338.028, 95.700 336.872, 93.500 336.523 C 90.691 336.077, 91.719 336.668, 96.955 338.509 C 101.056 339.950, 107.806 342.777, 111.955 344.790 L 119.500 348.451 114.231 348.779 C 111.333 348.959, 106.203 348.399, 102.832 347.535 C 99.460 346.672, 96.498 346.168, 96.250 346.417 C 95.035 347.631, 112.741 350.985, 120.417 350.994 C 123.121 350.997, 125.008 351.326, 124.610 351.723 C 123.220 353.114, 109.452 355.916, 103.809 355.958 C 100.679 355.981, 97.852 356.431, 97.527 356.957 C 97.163 357.546, 98.868 357.684, 101.968 357.317 C 107.636 356.646, 108.074 357.304, 104.828 361.615 C 103.135 363.864, 103.543 363.661, 106.677 360.694 C 112.168 355.498, 119.427 353.555, 133 353.648 C 140.397 353.700, 144.657 354.211, 147.414 355.378 C 151.892 357.274, 161 363.952, 161 365.340 C 161 367.091, 147.541 365.248, 138.258 362.226 C 133.175 360.571, 129.242 359.583, 129.519 360.030 C 129.795 360.478, 132.942 361.816, 136.511 363.004 C 146.465 366.316, 145.005 367.520, 129.654 368.658 C 124.139 369.066, 121.366 369.625, 122.291 370.143 C 123.930 371.060, 138.586 369.488, 142.590 367.966 C 146.231 366.581, 162.037 366.793, 164.921 368.265 C 170.251 370.984, 168.262 371.676, 153.258 372.326 C 136.385 373.056, 124.104 374.949, 114.938 378.231 C 107.388 380.935, 105.669 383.304, 103.390 394.148 C 101.504 403.120, 102.205 411.683, 105.391 418.588 C 106.638 421.289, 108.469 426.507, 109.460 430.183 L 111.261 436.866 107.715 443.717 C 103.463 451.935, 101.879 459.293, 98.829 485 C 96.767 502.385, 96.515 508.946, 96.513 545.500 C 96.509 595.031, 98.012 609.452, 104.660 623.682 C 108.603 632.123, 117.506 638.440, 129 640.954 C 138.170 642.960, 209.329 643.461, 235.209 641.702 C 255.632 640.314, 257.292 640.051, 263.209 637.262 C 271.072 633.556, 274.530 630.132, 278.117 622.500 C 284.054 609.870, 286.308 588.991, 286.323 546.500 C 286.334 516.004, 285.245 497.484, 281.957 472.239 C 279.856 456.114, 278.269 450.070, 274.385 443.412 C 271.262 438.060, 271.376 434.274, 275 423 C 278.388 412.460, 278.756 405.833, 276.489 396.219 C 274.238 386.668, 271.752 382.518, 267.189 380.692 C 261.130 378.268, 248.861 376.237, 229.368 374.432 C 219.540 373.522, 211.308 372.597, 211.073 372.378 C 210.398 371.748, 214.259 369.080, 216.877 368.367 C 218.302 367.979, 222.784 368.776, 228.074 370.360 C 237.956 373.318, 239.650 373.569, 236 371.537 C 233.818 370.322, 233.721 370.059, 235.235 369.471 C 236.189 369.101, 240.239 368.423, 244.235 367.965 C 251.291 367.157, 251.241 367.148, 242.500 367.643 C 229.412 368.384, 226.869 368.349, 223.200 367.376 C 219.127 366.295, 219.314 365.319, 224.331 361.500 C 232.893 354.981, 232.914 354.974, 241.500 355.471 C 249.542 355.937, 249.828 355.680, 242.590 354.491 L 238.681 353.849 241.575 351.951 C 243.167 350.907, 247.615 349.097, 251.459 347.929 C 258.621 345.754, 268.536 341.202, 267.773 340.440 C 267.539 340.205, 265.582 340.860, 263.424 341.895 C 258.093 344.451, 249.844 347.177, 249.246 346.579 C 248.978 346.311, 250.883 343.116, 253.478 339.478 C 256.074 335.841, 257.973 332.640, 257.699 332.366 C 257.425 332.091, 254.625 335.463, 251.478 339.859 C 246.804 346.387, 244.662 348.434, 239.784 351.035 C 236.048 353.026, 233.940 353.709, 234.156 352.859 C 234.345 352.112, 236.727 347.225, 239.449 342 C 243.780 333.685, 245.902 331.021, 256.449 320.645 C 268.652 308.641, 269.759 306.053, 258.207 316.536 C 254.745 319.677, 251.683 322.017, 251.403 321.736 C 251.122 321.455, 252.014 318.465, 253.385 315.092 C 254.755 311.718, 255.504 309.188, 255.048 309.470 C 254.593 309.752, 253.009 313.007, 251.529 316.704 C 250.049 320.400, 246.460 327.492, 243.553 332.462 C 240.647 337.433, 237.087 343.598, 235.644 346.162 C 234.200 348.727, 231.825 352.242, 230.367 353.976 C 227.757 357.078, 212 369.591, 212 368.562 C 212 367.773, 225.554 345.923, 227.993 342.779 C 229.983 340.214, 239.605 326.148, 241.457 323.095 C 242.038 322.138, 241.940 321.919, 241.150 322.408 C 240.512 322.802, 238.176 325.796, 235.958 329.062 C 233.740 332.328, 231.724 335, 231.477 335 C 231.231 335, 231.940 332.689, 233.053 329.865 C 236.428 321.302, 234.694 322.262, 230.999 331.002 C 229.103 335.489, 227.133 339.418, 226.621 339.734 C 226.058 340.082, 225.969 337.603, 226.396 333.437 C 227.410 323.540, 226.313 325.934, 224.595 337.364 C 223.419 345.192, 222.473 348.149, 219.815 352.305 L 216.500 357.487 215.967 351.994 L 215.434 346.500 214.637 353.500 C 213.608 362.528, 213.533 362.769, 209.933 368.444 C 206.911 373.209, 206.852 373.243, 202.394 372.741 C 199.923 372.462, 197.627 371.960, 197.291 371.625 C 196.437 370.770, 216.409 330.600, 226.137 313.608 C 235.632 297.021, 249.512 275.892, 256.159 267.904 C 260.779 262.353, 260.955 262.253, 265.534 262.559 C 268.100 262.730, 270.978 263.575, 271.929 264.435 C 273.897 266.217, 276 266.496, 276 264.975 C 276 264.412, 277.125 263.523, 278.500 263 C 279.875 262.477, 281 261.651, 281 261.163 C 281 260.676, 282.172 260.501, 283.605 260.775 C 285.735 261.182, 286.891 260.482, 289.946 256.935 C 292.718 253.717, 294.433 252.585, 296.591 252.549 C 298.596 252.515, 299.799 251.820, 300.461 250.312 C 300.989 249.108, 302.226 247.913, 303.211 247.655 C 305.664 247.014, 305.463 243.438, 302.872 241.623 L 300.745 240.133 303.872 236.339 C 305.593 234.252, 307 231.733, 307 230.741 C 307 229.749, 307.678 228.677, 308.508 228.359 C 309.413 228.011, 309.934 226.714, 309.812 225.112 C 309.573 221.984, 310.725 219.712, 312.113 220.570 C 313.610 221.495, 316.111 218.925, 315.522 217.068 C 315.025 215.503, 318.070 211.411, 324.624 204.836 C 326.216 203.239, 327.042 201.551, 326.685 200.622 C 326.301 199.621, 327.137 198.327, 329.045 196.968 C 330.670 195.811, 332 194.295, 332 193.600 C 332 192.299, 340.965 186, 342.817 186 C 343.388 186, 344.757 184.853, 345.860 183.451 C 348.041 180.679, 352.890 177.195, 357.278 175.249 C 358.806 174.572, 360.345 173.263, 360.699 172.342 C 361.507 170.238, 366.924 165.242, 369.250 164.456 C 370.212 164.131, 371 163.290, 371 162.588 C 371 161.885, 371.900 160.495, 373 159.500 C 375.094 157.605, 375.691 155, 374.031 155 C 373.499 155, 373.294 155.603, 373.577 156.340 C 374.137 157.800, 371.338 160.671, 370.333 159.667 C 369.993 159.327, 370.328 158.250, 371.077 157.274 C 371.848 156.271, 371.339 156.477, 369.905 157.750 C 368.511 158.987, 366.673 160, 365.820 160 C 364.968 160, 363.068 160.945, 361.600 162.100 C 359.805 163.512, 358.149 164.003, 356.542 163.600 C 354.848 163.175, 353.289 163.728, 351.182 165.500 C 349.548 166.875, 347.558 168, 346.761 168 C 345.963 168, 344.505 168.889, 343.521 169.976 C 342.538 171.063, 341.323 171.700, 340.823 171.391 C 340.323 171.082, 338.422 171.966, 336.599 173.357 C 334.255 175.145, 332.973 175.573, 332.220 174.820 C 331.466 174.066, 330.387 174.522, 328.532 176.377 C 327.089 177.820, 325.060 179, 324.023 179 C 322.133 179, 318 183.785, 318 185.972 C 318 186.693, 317.213 186.885, 315.928 186.477 C 313.443 185.688, 310.701 187.893, 308.970 192.072 C 308.258 193.792, 307.007 195, 305.938 195 C 304.937 195, 303.821 195.481, 303.458 196.068 C 303.095 196.656, 302.103 196.870, 301.254 196.544 C 300.405 196.218, 298.904 196.682, 297.918 197.574 C 296.933 198.466, 295.684 198.923, 295.144 198.589 C 293.456 197.546, 290.888 200.922, 291.912 202.836 C 292.989 204.848, 290.730 209.990, 289.583 208.135 C 288.503 206.387, 285.016 206.791, 284.277 208.750 C 283.913 209.713, 282.307 211.817, 280.707 213.428 C 278.189 215.963, 277.533 216.190, 275.821 215.120 C 273.551 213.703, 271 215.118, 271 217.794 C 271 218.646, 270.212 220.213, 269.250 221.276 C 268.288 222.339, 267.398 224.400, 267.274 225.855 C 266.604 233.691, 266.710 233.500, 263 233.500 C 260.056 233.500, 259.446 233.885, 259.157 235.927 C 258.969 237.261, 258.256 239.286, 257.573 240.427 C 256.890 241.567, 256.232 245.255, 256.110 248.622 C 255.938 253.380, 256.235 254.876, 257.444 255.340 C 260.513 256.518, 259.289 261.836, 254.681 267.341 C 240.908 283.796, 218.278 322.034, 202.026 356.311 C 196.500 367.966, 194.126 372, 192.793 372 C 191.807 372, 191 371.800, 191 371.556 C 191 371.312, 192.389 364.225, 194.087 355.806 C 206.296 295.266, 222.130 245.994, 244.237 199.750 C 249.773 188.171, 250.575 187, 252.975 187 C 254.429 187, 256.491 186.339, 257.559 185.532 C 260.208 183.528, 261 183.643, 261 186.031 C 261 188.859, 263.959 189.776, 265.645 187.471 C 266.390 186.452, 267 184.054, 267 182.142 C 267 177.562, 268.041 178.777, 270.580 186.320 C 272.184 191.085, 273.157 192.573, 274.830 192.820 C 276.584 193.078, 277 192.639, 277 190.530 C 277 189.095, 276.100 186.156, 275 184 C 272.082 178.279, 272.459 178.223, 277.960 183.560 C 283.849 189.272, 290.898 194.181, 292.124 193.423 C 294.070 192.220, 292.730 189.882, 287.513 185.378 C 284.495 182.773, 282.181 180.486, 282.370 180.297 C 282.559 180.108, 284.690 181.083, 287.107 182.465 C 291.295 184.859, 295.940 185.727, 297.298 184.369 C 298.485 183.181, 295.942 180.018, 292.219 178.052 L 288.500 176.088 292.128 176.044 C 296.286 175.994, 298.637 174.037, 296.776 172.176 C 296.129 171.529, 294.367 171, 292.859 171 C 291.351 171, 289.840 170.550, 289.500 170 C 289.160 169.450, 289.514 169, 290.286 169 C 291.058 169, 292.529 168.073, 293.555 166.939 C 295.156 165.170, 295.213 164.740, 293.960 163.904 C 292.578 162.982, 290.074 163.123, 282 164.577 C 278.510 165.206, 278.513 165.201, 283 162.854 C 291.702 158.302, 288.306 154.340, 279.255 158.484 C 272.090 161.764, 271.767 161.663, 276.250 157.546 C 278.313 155.652, 280 153.404, 280 152.551 C 280 149.977, 275.748 150.759, 271.728 154.073 C 267.476 157.577, 267.451 157.559, 269.562 152.505 C 271.272 148.413, 270.898 146, 268.554 146 C 266.700 146, 264.350 149.486, 263.500 153.500 C 262.985 155.930, 263.247 155.693, 264.883 152.250 C 266.806 148.202, 268.297 147.054, 269.373 148.794 C 269.984 149.783, 266.588 157.518, 265.154 158.405 C 263.450 159.458, 262.001 155.532, 261.985 149.816 C 261.967 143.762, 260.916 141.434, 258.601 142.323 C 256.925 142.966, 256.491 145.645, 256.913 152.750 C 257.052 155.088, 256.963 157, 256.716 157 C 256.470 157, 255.052 153.667, 253.567 149.594 C 250.830 142.090, 247.998 138.265, 246.063 139.461 C 244.463 140.450, 244.779 144.396, 246.904 149.989 C 247.951 152.744, 248.401 154.748, 247.904 154.441 C 247.407 154.133, 247 154.332, 247 154.882 C 247 155.432, 247.448 156.159, 247.995 156.497 C 248.542 156.835, 249.501 158.068, 250.127 159.237 C 250.753 160.406, 248.343 158.782, 244.773 155.628 C 238.248 149.864, 235.072 145.595, 236.354 144.313 C 236.733 143.933, 239.284 146.009, 242.022 148.925 C 244.760 151.841, 247 153.823, 247 153.330 C 247 151.980, 236.622 142, 235.219 142 C 232.707 142, 234.140 146.196, 238.127 150.522 C 240.397 152.985, 241.933 155, 241.540 155 C 241.147 155, 238.009 153.425, 234.566 151.500 C 227.527 147.563, 225 147.126, 225 149.845 C 225 151.852, 227.949 155, 229.829 155 C 230.473 155, 231 155.450, 231 156 C 231 156.550, 229.636 157, 227.969 157 C 224.295 157, 222.829 159.670, 225.449 161.587 C 226.425 162.300, 229.648 163.187, 232.612 163.557 C 238.233 164.260, 238.996 164.928, 236.521 166.983 C 235.391 167.920, 235.294 168.680, 236.107 170.200 C 237.160 172.168, 239.952 172.211, 245.821 170.350 C 246.744 170.058, 245.943 171.162, 244.041 172.804 C 241.054 175.382, 240.763 176.010, 241.913 177.395 C 242.646 178.278, 243.865 179, 244.622 179 C 245.380 179, 246.014 179.787, 246.032 180.750 C 246.049 181.713, 246.681 183.314, 247.435 184.308 C 248.642 185.900, 248.173 187.453, 243.510 197.308 C 220.286 246.395, 203.468 298.726, 192.350 356.500 C 190.868 364.200, 189.283 370.928, 188.828 371.450 C 187.682 372.765, 187.791 345.897, 189.018 324.361 C 192.475 263.706, 200.543 205.979, 212.480 156.500 C 216.641 139.251, 223.461 116.301, 224.879 114.773 C 225.251 114.373, 228.752 115.157, 232.660 116.516 C 243.021 120.120, 253.515 121.320, 268 120.559 L 280.500 119.902 287.814 126.951 C 291.837 130.828, 295.465 134, 295.876 134 C 296.812 134, 301 128.407, 301 127.157 C 301 126.649, 300.212 125.969, 299.250 125.646 C 298.288 125.322, 296.688 124.483, 295.697 123.779 C 294.180 122.703, 293.735 122.778, 292.897 124.250 C 292.349 125.213, 291.283 126, 290.527 126 C 288.902 126, 283 121.225, 283 119.911 C 283 118.591, 294.390 118.790, 295.733 120.133 C 297.396 121.796, 300.323 120.342, 299.746 118.138 C 299.482 117.127, 300.083 115.220, 301.083 113.900 C 302.731 111.724, 303.021 111.652, 304.200 113.128 C 305.135 114.299, 306.547 114.620, 309.227 114.271 C 312.908 113.792, 312.950 113.736, 312.673 109.643 C 312.391 105.501, 312.390 105.500, 308.446 105.666 C 306.276 105.758, 304.163 105.870, 303.750 105.916 C 303.337 105.962, 303 107.173, 303 108.607 C 303 110.573, 302.611 111.065, 301.418 110.607 C 300.548 110.273, 299.142 110, 298.293 110 C 297.108 110, 296.891 109.296, 297.358 106.962 C 298.007 103.717, 297.843 103.579, 292.212 102.604 C 289.649 102.160, 288.806 102.417, 288.389 103.767 C 288.095 104.720, 287.437 106.281, 286.927 107.236 C 286.417 108.191, 286 109.558, 286 110.274 C 286 110.990, 284.762 113.028, 283.250 114.804 C 280.783 117.701, 279.653 118.150, 272.263 119.170 C 262.905 120.463, 243.753 119.127, 236 116.641 L 231.500 115.198 237 115.082 C 244.536 114.922, 254.340 112.717, 261.390 109.595 C 265.720 107.677, 267.622 107.271, 268.576 108.063 C 269.416 108.760, 270.511 108.810, 271.686 108.205 C 272.684 107.691, 274.078 107.477, 274.784 107.730 C 276.917 108.493, 279.037 105.996, 278.402 103.466 C 277.954 101.682, 278.464 100.758, 280.662 99.375 C 282.223 98.392, 284.935 96.368, 286.690 94.877 C 288.623 93.235, 292.143 91.697, 295.624 90.974 C 300.643 89.932, 301.516 89.985, 302.544 91.391 C 304.238 93.708, 306.110 93.342, 309.324 90.065 C 312.096 87.238, 312.117 87.128, 310.501 84.003 C 308.544 80.218, 309.106 77.954, 311.826 78.665 C 314.233 79.294, 314.702 78.564, 315.148 73.500 L 315.500 69.500 311.193 69.437 C 308.825 69.403, 306.661 69.740, 306.384 70.187 C 305.343 71.873, 304 70.905, 304 68.469 C 304 65.111, 301.760 64.412, 297.492 66.437 C 295.061 67.590, 294 68.763, 293.999 70.297 C 293.999 71.509, 293.099 74.867, 291.999 77.761 C 290.900 80.654, 290 84.802, 290 86.978 C 290 90.597, 289.537 91.285, 284.581 95.027 C 279.835 98.610, 278.913 98.963, 277.162 97.869 C 275.572 96.876, 274.857 96.874, 273.670 97.859 C 271.068 100.018, 270.811 97.307, 273.357 94.559 C 275.662 92.073, 275.691 91.856, 274.165 88.490 C 272.301 84.377, 271.915 84.302, 267.710 87.247 C 265.944 88.482, 264.292 89.628, 264.038 89.792 C 263.784 89.956, 264.130 90.978, 264.807 92.062 C 266.866 95.360, 261.040 102.159, 253 105.842 C 240.986 111.345, 227.204 112.855, 235.906 107.715 C 241.186 104.596, 257.362 89.503, 265.961 79.673 C 273.385 71.185, 274.818 70, 277.652 70 C 279.428 70, 281.174 70.472, 281.530 71.049 C 281.976 71.770, 282.604 71.744, 283.541 70.966 C 284.291 70.344, 285.828 70.128, 286.957 70.486 C 289.330 71.239, 290.646 69.024, 289.476 66.250 C 287.226 60.920, 288.639 56.923, 292.032 59.019 C 292.835 59.516, 294.545 59.252, 296.257 58.367 C 298.799 57.053, 299.053 56.510, 298.449 53.690 C 297.559 49.532, 297.577 49.544, 293.767 50.642 C 291.319 51.347, 290.494 52.156, 290.475 53.868 C 290.447 56.373, 287.292 59.330, 282.250 61.578 C 280.462 62.375, 279 63.696, 279 64.513 C 279 65.331, 278.352 66, 277.561 66 C 276.327 66, 276.346 65.322, 277.694 61.250 C 279.747 55.045, 280.409 54.410, 283.397 55.771 C 286.660 57.258, 287.734 55.795, 287.602 50.041 C 287.506 45.823, 287.321 45.545, 284.182 44.903 C 281.267 44.307, 280.750 44.527, 279.916 46.721 C 279.218 48.558, 278.639 48.945, 277.724 48.186 C 277.041 47.619, 274.911 47.233, 272.991 47.328 C 269.647 47.493, 269.499 47.661, 269.469 51.327 C 269.453 53.431, 269.790 55.370, 270.219 55.636 C 270.649 55.901, 271 57.277, 271 58.693 C 271 60.109, 271.517 62.992, 272.148 65.100 C 273.253 68.789, 273.150 69.112, 269.398 73.716 C 262.092 82.682, 250.515 94.237, 242.011 101.052 C 237.342 104.794, 233.394 107.727, 233.237 107.570 C 233.080 107.413, 235.686 102.935, 239.027 97.618 C 242.369 92.302, 246.577 84.498, 248.378 80.276 C 252.149 71.440, 254.715 69.094, 260.984 68.748 C 265.321 68.508, 265.488 68.378, 266.068 64.801 C 266.928 59.504, 266.172 55.923, 263.485 52.570 C 261.543 50.145, 260.880 49.854, 259.643 50.881 C 258.821 51.563, 257.552 52.007, 256.824 51.866 C 255.449 51.601, 246 55.679, 246 56.539 C 246 56.807, 246.426 57.809, 246.947 58.764 C 247.467 59.719, 248.615 62.822, 249.497 65.660 C 251.072 70.727, 251.053 70.935, 248.464 77.160 C 244.657 86.311, 231.342 108.675, 230.313 107.646 C 230.071 107.404, 231.011 103.447, 232.402 98.853 C 236.641 84.857, 243.127 57.858, 242.666 56.129 C 242.300 54.755, 242.214 54.780, 242.116 56.288 C 241.920 59.311, 232.056 96.133, 229.736 102.500 L 227.551 108.500 226.833 104.500 C 225.865 99.103, 225.900 85.467, 226.895 80.327 C 227.340 78.032, 228.445 75.412, 229.352 74.505 C 230.258 73.599, 231 72.214, 231 71.429 C 231 70.643, 231.450 70, 232 70 C 234.417 70, 232.709 66.298, 229.494 64.567 C 227.566 63.528, 225.878 62.863, 225.744 63.089 C 225.610 63.315, 224.999 64.400, 224.386 65.500 C 223.676 66.774, 222.234 67.500, 220.411 67.500 C 217.858 67.500, 217.474 67.930, 216.843 71.500 C 216.235 74.938, 216.462 75.781, 218.461 77.500 C 223.583 81.904, 225 86.553, 225 98.958 C 225 112.305, 224.568 112.227, 218.596 97.800 C 214.330 87.495, 212.172 75.879, 211.397 59.048 C 210.806 46.215, 210 41.510, 210 50.892 C 210 56.534, 209.005 56.844, 206.491 51.983 C 205.078 49.250, 205.135 48.956, 207.544 46.547 C 208.945 45.146, 210.725 44, 211.500 44 C 213.411 44, 214.626 50.768, 213.141 53.146 C 211.560 55.677, 211.710 56.165, 213.750 55.125 C 215.947 54.006, 219.928 52.367, 222.363 51.579 C 223.755 51.128, 224.056 50.409, 223.550 48.738 C 223.178 47.507, 222.781 45.600, 222.668 44.500 C 222.508 42.959, 221.806 42.547, 219.605 42.705 C 216.831 42.905, 216.764 42.797, 217.279 38.956 C 217.883 34.452, 217.292 33.841, 211.851 33.351 C 208.588 33.057, 208 33.300, 208 34.943 C 208 37.487, 206.280 38.477, 204.469 36.974 C 202.422 35.275, 200 36.519, 200 39.269 C 200 40.551, 199.535 42.065, 198.967 42.633 C 197.528 44.072, 198.854 47, 200.944 47 C 203.770 47, 209.766 60.203, 210.481 68 C 211.717 81.461, 213.889 89.477, 220.913 106.500 C 221.140 107.050, 220.671 106.960, 219.870 106.300 C 217.826 104.614, 213.907 95.806, 207.944 79.500 C 205.128 71.800, 200.400 60.464, 197.437 54.309 L 192.050 43.118 194.909 36.809 C 196.482 33.339, 198.050 29.666, 198.393 28.646 C 198.797 27.445, 199.585 27.010, 200.630 27.411 C 202.351 28.072, 207.033 23.845, 206.958 21.698 C 206.934 21.039, 205.416 19.546, 203.583 18.379 L 200.250 16.258 197.625 19.039 M 233.688 19.959 L 230.875 22.688 233.346 24.307 C 235.430 25.672, 235.995 25.710, 236.958 24.551 C 238.424 22.784, 238.806 17.793, 237.500 17.475 C 236.950 17.340, 235.234 18.459, 233.688 19.959 M 198.622 20.129 C 196.911 22.127, 196.920 22.277, 198.880 24.103 C 200 25.146, 201.277 26, 201.718 26 C 202.526 26, 205.412 21.945, 204.819 21.642 C 204.644 21.552, 203.577 20.708, 202.450 19.765 C 200.501 18.136, 200.312 18.154, 198.622 20.129 M 244 21 C 244 21.550, 242.875 22, 241.500 22 C 239.944 22, 239 22.567, 239 23.500 C 239 24.325, 239.461 25, 240.025 25 C 240.588 25, 241.488 26.152, 242.023 27.560 C 242.942 29.977, 245 30.143, 245 27.801 C 245 27.207, 245.728 26.188, 246.619 25.537 C 248.016 24.515, 248.051 24.055, 246.878 22.177 C 245.452 19.893, 244 19.300, 244 21 M 182.730 25.670 C 179.954 27.131, 179.858 29, 182.559 29 C 183.352 29, 184 29.675, 184 30.500 C 184 32.578, 185.626 32.374, 188 30 L 190 28 188 26 C 186.900 24.900, 185.887 24.048, 185.750 24.106 C 185.613 24.164, 184.254 24.868, 182.730 25.670 M 174.289 26.727 C 173.923 27.702, 172.948 29.007, 172.122 29.626 C 170.855 30.575, 171.126 31.014, 173.840 32.417 C 176.612 33.850, 177.257 33.886, 178.471 32.672 C 180.236 30.907, 179.487 27.785, 176.913 26.178 C 175.269 25.151, 174.848 25.239, 174.289 26.727 M 257.399 26.750 C 257.001 28.166, 255.976 29.012, 254.633 29.032 C 252.647 29.061, 252.621 29.155, 254.250 30.392 C 255.213 31.123, 256 32.432, 256 33.301 C 256 36.071, 257.539 35.966, 260.334 33.005 C 262.466 30.745, 262.757 29.952, 261.686 29.314 C 260.936 28.866, 259.807 27.600, 259.177 26.500 C 258.053 24.537, 258.020 24.542, 257.399 26.750 M 232 28 C 232 29.100, 231.550 30, 231 30 C 230.450 30, 230 30.675, 230 31.500 C 230 32.325, 230.863 33, 231.918 33 C 232.973 33, 234.493 33.252, 235.295 33.560 C 236.284 33.939, 236.980 33.216, 237.458 31.310 C 238.244 28.178, 238.044 27.506, 236.321 27.487 C 235.672 27.480, 234.809 27.143, 234.404 26.737 C 233.070 25.404, 232 25.966, 232 28 M 241.470 36.750 C 242.394 44.337, 244 45.944, 244 39.282 C 244 33.608, 243.300 31, 241.778 31 C 241.136 31, 241.024 33.089, 241.470 36.750 M 181 32.797 C 181 33.841, 188.850 41.501, 189.340 40.935 C 189.547 40.696, 189.502 38.777, 189.239 36.671 C 188.814 33.250, 188.516 32.905, 186.443 33.425 C 185.167 33.745, 183.843 33.556, 183.502 33.004 C 182.764 31.809, 181 31.663, 181 32.797 M 261.315 34.313 C 261.034 34.760, 261.534 35.933, 262.426 36.918 C 263.421 38.018, 263.779 39.414, 263.351 40.529 C 262.797 41.972, 263.015 42.208, 264.408 41.674 C 265.374 41.303, 266.922 41, 267.849 41 C 269.123 41, 269.559 40.051, 269.636 37.108 L 269.738 33.216 265.782 33.358 C 263.606 33.436, 261.596 33.866, 261.315 34.313 M 178.500 35 C 178.160 35.550, 178.610 36, 179.500 36 C 180.390 36, 180.840 35.550, 180.500 35 C 180.160 34.450, 179.710 34, 179.500 34 C 179.290 34, 178.840 34.450, 178.500 35 M 208.576 37.414 C 207.098 40.930, 207.508 42.403, 209.728 41.551 C 210.567 41.229, 211.831 41.445, 212.538 42.031 C 214.102 43.329, 215.235 41.835, 215.665 37.906 C 215.918 35.594, 215.536 35.159, 212.916 34.774 C 210.278 34.387, 209.699 34.739, 208.576 37.414 M 237.500 35.381 C 236.400 35.996, 235.336 36.589, 235.136 36.697 C 234.576 37.001, 238.840 43.622, 240.462 44.969 C 241.685 45.984, 241.809 45.589, 241.288 42.331 C 240.088 34.834, 239.712 34.143, 237.500 35.381 M 249.714 39.639 C 243.757 48.685, 244.787 49.611, 255.063 44.449 C 262.395 40.765, 264.087 37, 258.410 37 C 257.050 37, 255.678 36.325, 255.362 35.500 C 254.437 33.091, 253.643 33.672, 249.714 39.639 M 173.541 37.578 C 171.701 40.386, 171.629 41, 173.140 41 C 173.767 41, 174.884 41.788, 175.623 42.750 C 176.878 44.384, 177.009 44.351, 177.600 42.250 C 177.948 41.013, 178.631 40, 179.117 40 C 180.981 40, 179.869 37.447, 177.533 36.363 C 175.397 35.373, 174.883 35.529, 173.541 37.578 M 181.345 39.543 C 180.580 41.538, 180.953 41.847, 185.073 42.634 L 188.500 43.288 186.076 40.644 C 183.299 37.616, 182.184 37.356, 181.345 39.543 M 201.756 38.577 C 201.416 38.917, 201.362 39.781, 201.637 40.497 C 201.912 41.212, 201.656 42.095, 201.068 42.458 C 198.673 43.938, 200.147 45.538, 204 45.639 C 208.482 45.756, 208.534 45.658, 206.134 41.569 C 204.358 38.543, 202.833 37.501, 201.756 38.577 M 214 45.441 C 214 46.234, 214.408 47.134, 214.906 47.442 C 215.404 47.750, 215.577 48.902, 215.289 50.001 C 214.688 52.301, 216.034 52.555, 219.264 50.750 C 220.494 50.063, 221.634 49.441, 221.799 49.368 C 221.963 49.295, 221.802 48.058, 221.440 46.618 C 220.893 44.438, 220.216 44, 217.392 44 C 215.105 44, 214 44.470, 214 45.441 M 281 47.967 C 281 48.865, 280.499 50.101, 279.887 50.713 C 278.602 51.998, 279.655 54.331, 281.113 53.430 C 281.649 53.099, 282.754 53.381, 283.568 54.056 C 285.539 55.692, 286.174 54.866, 286.521 50.218 C 286.796 46.530, 286.664 46.333, 283.905 46.333 C 281.884 46.333, 281 46.830, 281 47.967 M 270.314 49.301 C 270.017 49.781, 270.240 50.640, 270.809 51.209 C 271.378 51.778, 271.606 52.864, 271.315 53.622 C 270.938 54.603, 271.647 55, 273.776 55 C 276.499 55, 276.752 54.718, 276.607 51.836 C 276.470 49.109, 276.062 48.656, 273.651 48.550 C 272.112 48.483, 270.611 48.821, 270.314 49.301 M 293.725 52.250 C 292.161 53.429, 291.888 56.221, 293.207 57.540 C 294.571 58.905, 297.663 55.685, 297.218 53.362 C 296.705 50.677, 296.076 50.477, 293.725 52.250 M 257.750 52.716 C 254.802 53.163, 254.031 55.414, 256.500 56.362 C 257.325 56.678, 258 57.626, 258 58.469 C 258 59.311, 258.675 60, 259.500 60 C 260.325 60, 261 59.602, 261 59.117 C 261 58.631, 261.944 57.986, 263.098 57.685 C 265.159 57.146, 265.163 57.091, 263.348 54.599 C 262.332 53.204, 261.275 52.116, 261 52.181 C 260.725 52.246, 259.262 52.487, 257.750 52.716 M 155.250 54.367 C 152.490 55.725, 152.365 57.021, 154.931 57.692 C 155.993 57.970, 157.104 58.828, 157.399 59.599 C 158.095 61.411, 160 61.417, 160 59.607 C 160 58.841, 160.675 57.955, 161.500 57.638 C 163.519 56.864, 163.396 55.373, 161.250 54.616 C 160.287 54.276, 159.050 53.832, 158.500 53.629 C 157.950 53.426, 156.488 53.758, 155.250 54.367 M 179.250 55.031 C 176.776 56.026, 176.196 58, 178.378 58 C 179.135 58, 180.327 58.689, 181.025 59.530 C 182.152 60.888, 182.510 60.829, 184.202 59.013 C 185.888 57.204, 185.937 56.794, 184.626 55.483 C 182.949 53.806, 182.410 53.761, 179.250 55.031 M 249.750 55.689 C 247.666 56.234, 247.558 57.833, 249.436 60.310 C 250.303 61.454, 251.049 61.730, 251.463 61.060 C 251.823 60.477, 253.104 59.986, 254.309 59.968 C 256.343 59.939, 256.375 59.841, 254.750 58.608 C 253.787 57.877, 253 56.767, 253 56.140 C 253 54.961, 252.698 54.919, 249.750 55.689 M 146.226 58.630 L 143.952 61.224 146.408 63.680 L 148.864 66.136 150.932 64.068 C 153.448 61.552, 153.501 60.609, 151.278 58.011 C 149.108 55.478, 148.975 55.494, 146.226 58.630 M 273.452 56.881 C 272.525 57.808, 273.039 66, 274.025 66 C 275.034 66, 276.443 63.067, 277.547 58.670 C 277.996 56.880, 277.685 56.429, 276.007 56.429 C 274.851 56.429, 273.701 56.632, 273.452 56.881 M 262.020 60.476 C 261.324 61.314, 259.902 62, 258.859 62 C 257.296 62, 257.078 62.485, 257.622 64.750 C 258.458 68.237, 258.591 68.373, 260.183 67.375 C 260.908 66.921, 262.175 66.660, 263 66.795 C 264.090 66.973, 264.500 66.101, 264.500 63.606 C 264.500 59.442, 263.708 58.442, 262.020 60.476 M 154.784 61.644 C 154.551 62.715, 155.675 65.009, 157.440 67.065 C 159.123 69.026, 161.523 71.951, 162.773 73.565 L 165.046 76.500 164.441 73 C 162.902 64.101, 161.989 62, 159.661 62 C 158.418 62, 156.902 61.502, 156.294 60.894 C 155.485 60.085, 155.079 60.287, 154.784 61.644 M 251.667 62.667 C 251.300 63.033, 251.014 64.496, 251.032 65.917 C 251.062 68.404, 251.118 68.428, 252.532 66.559 C 254.781 63.585, 254.048 60.285, 251.667 62.667 M 285.642 62.791 C 285.183 63.522, 284.002 63.818, 282.916 63.473 C 281.584 63.051, 281 63.343, 281 64.433 C 281 65.295, 281.408 66, 281.906 66 C 282.405 66, 282.577 66.900, 282.290 68 C 281.768 69.995, 283.379 70.813, 284.442 69.094 C 284.750 68.596, 285.902 68.423, 287.001 68.711 C 289.085 69.255, 289.652 68.086, 288.097 66.450 C 287.600 65.927, 287.027 64.600, 286.824 63.500 C 286.552 62.034, 286.237 61.845, 285.642 62.791 M 188 64.529 C 188 65.221, 188.722 66.063, 189.604 66.401 C 190.584 66.778, 190.967 67.644, 190.589 68.629 C 190.098 69.908, 190.437 70.116, 192.235 69.634 C 193.481 69.300, 195.357 69.021, 196.405 69.014 C 198.133 69.001, 198.169 68.838, 196.785 67.250 C 195.947 66.287, 195.444 64.999, 195.668 64.386 C 195.925 63.685, 194.582 63.273, 192.038 63.273 C 189.463 63.273, 188 63.728, 188 64.529 M 151.486 65.022 C 150.535 66.562, 152.364 68.272, 154.504 67.844 C 156.056 67.533, 156.027 67.325, 154.210 65.685 C 152.786 64.400, 151.991 64.206, 151.486 65.022 M 172.986 66.318 C 172.979 66.968, 172.683 68.584, 172.328 69.908 C 171.779 71.962, 171.980 72.238, 173.700 71.789 C 174.809 71.499, 176.425 71.658, 177.291 72.143 C 179.306 73.270, 180.579 71.403, 179.051 69.561 C 178.434 68.818, 178.058 67.667, 178.215 67.002 C 178.372 66.335, 177.269 65.647, 175.750 65.465 C 174.121 65.270, 172.994 65.618, 172.986 66.318 M 226 66.140 C 226 66.767, 225.213 67.886, 224.250 68.627 C 222.613 69.888, 222.661 70.103, 225 71.965 C 228.179 74.496, 229 74.497, 229 71.969 C 229 70.851, 229.675 69.678, 230.500 69.362 C 232.686 68.523, 232.344 67.478, 229.453 66.161 C 226.295 64.722, 226 64.720, 226 66.140 M 253.695 67.057 C 253.353 68.366, 253.584 68.972, 254.329 68.724 C 255.767 68.245, 256.518 65, 255.190 65 C 254.664 65, 253.991 65.926, 253.695 67.057 M 299.533 66.947 C 299.175 67.526, 298.009 68, 296.941 68 C 295.675 68, 295 68.687, 295 69.975 C 295 71.666, 295.467 71.859, 298.250 71.318 C 301.547 70.676, 303.209 69.265, 302.671 67.563 C 302.222 66.141, 300.268 65.758, 299.533 66.947 M 77.500 68 C 76.400 68.473, 73.817 68.891, 71.761 68.930 C 65.199 69.053, 58.206 72.455, 52.716 78.193 C 49.923 81.112, 45.132 84.850, 42.069 86.500 C 37.252 89.095, 36.098 90.326, 33.518 95.625 C 31.132 100.526, 29.671 102.208, 26.205 104.047 C 18.436 108.169, 16.787 115.597, 22.052 122.756 C 25.177 127.005, 31.918 132.426, 37.810 135.428 C 40.975 137.040, 41.393 137.018, 47.310 134.934 C 57.821 131.232, 66.809 130.838, 78.143 133.582 C 89.966 136.445, 92.624 135.861, 97.052 129.424 C 98.703 127.024, 101.598 120.210, 103.486 114.280 C 105.373 108.351, 109.299 98.905, 112.209 93.290 C 118.323 81.491, 118.337 81.585, 109.663 75.562 L 103.992 71.624 98.918 72.924 C 93.851 74.223, 93.836 74.220, 88.599 70.612 C 83.289 66.955, 81.119 66.445, 77.500 68 M 278.813 67.683 C 279.534 67.972, 280.397 67.936, 280.729 67.604 C 281.061 67.272, 280.471 67.036, 279.417 67.079 C 278.252 67.127, 278.015 67.364, 278.813 67.683 M 148 69.941 C 148 71.009, 147.543 72.165, 146.984 72.510 C 145.352 73.519, 146.992 75.137, 149 74.500 C 150.007 74.180, 151.121 74.387, 151.475 74.959 C 152.578 76.744, 154.166 76.097, 153.538 74.118 C 153.154 72.911, 153.511 72.018, 154.534 71.625 C 155.410 71.289, 155.859 70.581, 155.531 70.051 C 155.204 69.521, 154.321 69.323, 153.569 69.612 C 152.817 69.900, 151.905 69.656, 151.542 69.068 C 150.435 67.277, 148 67.877, 148 69.941 M 218.550 68.919 C 218.183 69.513, 218.172 70.470, 218.527 71.044 C 218.882 71.618, 218.662 72.703, 218.038 73.455 C 216.778 74.973, 217.267 75.429, 221.146 76.355 C 222.850 76.761, 223.963 76.538, 224.274 75.728 C 224.922 74.040, 219.426 67.501, 218.550 68.919 M 156.658 71.198 C 156.342 72.407, 156.595 74.012, 157.219 74.764 C 158.544 76.360, 164 79.331, 164 78.456 C 164 77.746, 158.052 69, 157.569 69 C 157.384 69, 156.975 69.989, 156.658 71.198 M 309.855 70.706 C 307.808 71.021, 307.111 71.787, 306.772 74.100 C 306.285 77.421, 307.414 78.731, 309.368 77.110 C 310.278 76.354, 310.987 76.387, 311.824 77.224 C 312.471 77.871, 313.026 78.198, 313.058 77.950 C 313.713 72.829, 313.765 70.030, 313.202 70.150 C 312.816 70.232, 311.310 70.483, 309.855 70.706 M 297.420 73.348 C 297.091 74.204, 297.095 75.345, 297.428 75.883 C 297.760 76.421, 297.575 77.144, 297.016 77.490 C 294.479 79.058, 296.174 80.667, 300.364 80.667 L 304.727 80.667 304.727 76.833 C 304.727 73.823, 304.345 73, 302.945 73 C 301.965 73, 300.456 72.728, 299.590 72.396 C 298.659 72.039, 297.773 72.427, 297.420 73.348 M 293.103 77.250 C 291.541 81.395, 290.830 86, 291.752 86 C 292.860 86, 294.859 82.069, 294.803 80 C 294.780 79.175, 295.089 77.713, 295.488 76.750 C 295.929 75.686, 295.770 75, 295.082 75 C 294.460 75, 293.569 76.013, 293.103 77.250 M 223.750 77.798 C 221.667 78.213, 221.633 78.714, 223.463 82 C 224.648 84.128, 224.952 84.250, 225.507 82.823 C 226.589 80.035, 225.673 77.415, 223.750 77.798 M 306 82 C 306 82.550, 304.875 83, 303.500 83 C 301.667 83, 301 83.533, 301 85 C 301 86.100, 301.461 87, 302.025 87 C 302.588 87, 303.488 88.152, 304.023 89.560 C 305.010 92.157, 307 92.078, 307 89.441 C 307 88.648, 307.675 88, 308.500 88 C 310.326 88, 310.372 87.201, 308.750 83.707 C 307.506 81.029, 306 80.094, 306 82 M 295 84.500 C 294.293 85.352, 293.940 86.273, 294.215 86.548 C 294.490 86.823, 295.293 86.352, 296 85.500 C 296.707 84.648, 297.060 83.727, 296.785 83.452 C 296.510 83.177, 295.707 83.648, 295 84.500 M 86.079 85.583 C 86.127 86.748, 86.364 86.985, 86.683 86.188 C 86.972 85.466, 86.936 84.603, 86.604 84.271 C 86.272 83.939, 86.036 84.529, 86.079 85.583 M 93.793 88.045 C 93.409 90.545, 92.842 93.470, 92.533 94.545 C 92.223 95.620, 92.677 94.981, 93.539 93.125 C 94.402 91.268, 94.969 88.343, 94.800 86.625 C 94.529 83.870, 94.409 84.038, 93.793 88.045 M 295.536 86.962 C 292.920 89.692, 292.828 90, 294.622 90 C 297.605 90, 299.910 87.803, 299.121 85.712 C 298.522 84.122, 298.124 84.261, 295.536 86.962 M 269.638 88.500 C 269.322 89.325, 268.374 90, 267.531 90 C 266.689 90, 266 90.450, 266 91 C 266 91.550, 266.398 92, 266.883 92 C 267.369 92, 268.052 93.013, 268.400 94.250 C 268.991 96.351, 269.122 96.384, 270.377 94.750 C 271.116 93.787, 272.271 93, 272.944 93 C 273.616 93, 273.904 92.438, 273.584 91.750 C 273.263 91.063, 272.724 89.713, 272.384 88.750 C 271.627 86.604, 270.409 86.493, 269.638 88.500 M 52.624 91.530 C 53.800 94.704, 57.566 100.344, 59.909 102.440 C 61.101 103.507, 59.989 101.257, 57.437 97.440 C 52.046 89.378, 51.643 88.883, 52.624 91.530 M 121.954 97.361 C 117.642 98.524, 110.799 102.840, 108.394 105.913 C 107.786 106.690, 106.268 110.515, 105.021 114.413 C 102.063 123.654, 99.698 128.222, 95.415 132.962 L 91.917 136.834 97.209 138.314 C 100.119 139.128, 104.172 140.083, 106.215 140.436 C 111.207 141.298, 111.579 142.339, 108.146 145.851 C 105.992 148.054, 104.960 150.440, 104.135 155.123 C 103.068 161.179, 103.128 161.577, 105.650 165.217 C 109.427 170.667, 112.698 174, 114.271 174 C 115.022 174, 117.939 173.317, 120.752 172.481 C 124.625 171.331, 127.226 169.572, 131.471 165.231 C 134.554 162.079, 137.301 158.375, 137.575 157 C 138.794 150.886, 139.715 149.420, 143.731 147.205 C 146.631 145.605, 149.054 143.026, 151.610 138.820 C 155.342 132.675, 155.993 129.646, 154.608 124.873 C 153.995 122.763, 154.422 121.582, 156.776 118.873 C 158.389 117.018, 160.679 112.882, 161.865 109.682 C 164.918 101.451, 164.171 100.531, 154.320 100.380 C 149.114 100.301, 144.525 99.549, 140.593 98.130 C 134.006 95.755, 128.719 95.536, 121.954 97.361 M 263.241 99.512 L 260.982 103 264.459 103 C 267.153 103, 267.806 102.659, 267.357 101.487 C 267.037 100.655, 267.273 99.376, 267.879 98.645 C 269.038 97.250, 268.418 95.991, 266.583 96.012 C 265.988 96.019, 264.483 97.594, 263.241 99.512 M 269.365 103.131 C 269.460 106.777, 269.543 106.856, 272.981 106.547 C 274.917 106.373, 276.455 105.729, 276.400 105.116 C 276.345 104.502, 276.233 102.965, 276.150 101.700 C 276.025 99.785, 275.436 99.400, 272.633 99.400 C 269.395 99.400, 269.271 99.542, 269.365 103.131 M 289 106 C 289 106.880, 288.475 108.125, 287.833 108.767 C 286.943 109.657, 287.092 110.098, 288.459 110.622 C 290.751 111.502, 295.406 108.740, 295.793 106.271 C 296.033 104.740, 295.443 104.400, 292.543 104.400 C 289.962 104.400, 289 104.834, 289 106 M 251.062 108.186 C 246.972 109.823, 240.897 111.499, 237.562 111.911 C 232.318 112.558, 231.876 112.765, 234.283 113.446 C 239.798 115.006, 262.111 109.738, 266.450 105.851 C 268.721 103.817, 257.862 105.464, 251.062 108.186 M 309.091 106.923 C 308.316 107.413, 307.107 107.595, 306.405 107.325 C 305.531 106.990, 305.157 107.805, 305.217 109.918 C 305.294 112.619, 305.657 113, 308.152 113 C 310.740 113, 311 112.681, 311 109.500 C 311 105.611, 311.052 105.681, 309.091 106.923 M 39.918 111.363 C 41.249 113.003, 45 115.483, 45 114.723 C 45 114.532, 43.538 113.305, 41.750 111.997 C 39.739 110.525, 39.040 110.283, 39.918 111.363 M 292.504 113.293 C 290.899 116.511, 291.284 118.212, 293.431 117.388 C 294.183 117.100, 295.095 117.344, 295.458 117.932 C 295.821 118.519, 296.775 119, 297.578 119 C 298.636 119, 298.865 118.312, 298.411 116.500 C 298.024 114.960, 298.209 114, 298.892 114 C 301.433 114, 299.771 111.193, 296.988 110.785 C 294.444 110.412, 293.747 110.801, 292.504 113.293 M 284.899 114.608 C 283.667 115.919, 282.940 117.273, 283.283 117.616 C 284.382 118.715, 288.460 117.140, 289.695 115.139 C 291.602 112.049, 287.708 111.618, 284.899 114.608 M 135.500 117.909 C 138.250 118.358, 142.075 119.032, 144 119.406 C 146.921 119.974, 147.188 119.893, 145.613 118.917 C 144.576 118.274, 140.751 117.600, 137.113 117.420 C 130.759 117.106, 130.696 117.125, 135.500 117.909 M 88.635 125.448 C 88.095 127.508, 87.620 128.003, 87.056 127.091 C 86.480 126.159, 86.052 126.107, 85.556 126.910 C 85.174 127.527, 84.443 127.774, 83.931 127.457 C 83.419 127.141, 83 127.359, 83 127.941 C 83 128.523, 82.175 129, 81.167 129 C 80.158 129, 79.026 129.307, 78.650 129.683 C 77.550 130.783, 83.885 133, 88.130 133 C 91.456 133, 92.321 132.522, 94.011 129.750 C 95.101 127.963, 95.978 125.600, 95.961 124.500 C 95.933 122.723, 95.770 122.779, 94.500 125 C 93.214 127.250, 93.059 127.300, 92.956 125.500 C 92.894 124.400, 92.615 124.063, 92.338 124.750 C 91.608 126.558, 90.207 126.284, 89.777 124.250 C 89.521 123.035, 89.172 123.401, 88.635 125.448 M 292.700 126.206 C 290.964 128.033, 290.981 128.166, 293.200 130.016 C 296.103 132.436, 296.139 132.433, 298.297 129.469 C 299.478 127.845, 299.676 127, 298.875 127 C 298.206 127, 296.947 126.395, 296.079 125.656 C 294.738 124.516, 294.228 124.599, 292.700 126.206 M 48.906 135.855 C 44.729 137.364, 37.924 140.710, 33.783 143.291 C 29.642 145.872, 22.596 149.790, 18.127 151.997 C 13.657 154.204, 10 156.377, 10 156.825 C 10 157.273, 11.461 158.283, 13.248 159.070 C 15.034 159.856, 17.396 161.905, 18.498 163.623 C 19.599 165.341, 22.253 167.591, 24.396 168.623 C 27.394 170.067, 28.596 171.422, 29.609 174.500 C 31.392 179.920, 33.541 181.404, 41.886 182.979 C 47.373 184.014, 49.583 184.055, 51.547 183.160 C 52.948 182.522, 56.435 181.986, 59.297 181.968 C 62.178 181.951, 65.330 181.308, 66.360 180.528 C 67.383 179.753, 71.594 178.323, 75.718 177.351 C 82.061 175.856, 83.614 175.061, 85.802 172.193 C 87.274 170.263, 90.661 167.798, 93.668 166.468 C 99.660 163.818, 102.990 159.433, 102.996 154.184 C 103 150.483, 104.251 147.597, 107.299 144.250 C 109.283 142.073, 109.287 142, 107.424 141.993 C 106.366 141.990, 98.103 139.965, 89.061 137.493 C 68.616 131.905, 60.731 131.583, 48.906 135.855 M 121.264 140.418 C 124.434 141.721, 128.259 143.536, 129.764 144.449 C 132.355 146.023, 132.341 145.976, 129.500 143.566 C 127.850 142.166, 124.507 140.341, 122.072 139.511 C 115.296 137.199, 114.797 137.758, 121.264 140.418 M 246 142.895 C 246 144.544, 251.529 158.753, 252.629 159.933 C 252.851 160.172, 253.526 159.874, 254.128 159.272 C 256.111 157.289, 249.706 141, 246.943 141 C 246.424 141, 246 141.853, 246 142.895 M 258.682 143.652 C 257.669 144.664, 257.855 157, 258.883 157 C 260.034 157, 260.973 153.402, 260.971 149 C 260.969 145.260, 259.802 142.532, 258.682 143.652 M 226.413 150.860 C 227.309 152.309, 244.316 161.797, 247.399 162.567 C 252.288 163.789, 249.664 161.587, 239.109 155.611 C 230.108 150.514, 225.024 148.612, 226.413 150.860 M 271.286 156.344 C 268.555 158.924, 267.122 160.958, 267.758 161.350 C 269.140 162.205, 277.389 155.934, 277.819 153.703 C 278.365 150.865, 276.127 151.770, 271.286 156.344 M 66.185 161.610 C 66.083 163.871, 65.782 167.921, 65.515 170.610 L 65.031 175.500 66.055 171.500 C 66.619 169.300, 66.920 165.250, 66.725 162.500 C 66.394 157.832, 66.358 157.773, 66.185 161.610 M 226.459 159.067 C 226.096 159.653, 225.984 160.318, 226.210 160.544 C 226.805 161.138, 247.239 165.095, 247.640 164.693 C 247.826 164.507, 244.495 162.922, 240.239 161.170 C 232.297 157.900, 227.621 157.187, 226.459 159.067 M 276.250 161.089 C 272.813 162.694, 270 164.280, 270 164.615 C 270 165.600, 277.153 163.994, 281.750 161.977 C 286.060 160.086, 287.446 157.929, 284.250 158.086 C 283.288 158.133, 279.688 159.485, 276.250 161.089 M 255.164 160.598 C 251.429 163.214, 252.753 165.925, 259.409 169.295 C 264.944 172.097, 265.399 172.175, 266.598 170.535 C 268.380 168.098, 267.506 162.890, 264.997 160.998 C 262.144 158.845, 257.912 158.673, 255.164 160.598 M 362.646 162.468 C 359.932 164.524, 360.979 166.403, 363.755 164.459 C 365.926 162.939, 366.786 160.967, 365.250 161.032 C 364.837 161.049, 363.665 161.696, 362.646 162.468 M 367.500 163 C 367.160 163.550, 367.332 164, 367.882 164 C 368.432 164, 369.160 163.550, 369.500 163 C 369.840 162.450, 369.668 162, 369.118 162 C 368.568 162, 367.840 162.450, 367.500 163 M 40.459 165.067 C 40.096 165.653, 40.014 166.348, 40.276 166.610 C 40.538 166.872, 41.019 166.392, 41.345 165.543 C 42.021 163.781, 41.445 163.471, 40.459 165.067 M 156 166.517 C 153.525 167.748, 149.700 169.598, 147.500 170.628 C 144.565 172.002, 143.245 173.365, 142.543 175.750 C 141.566 179.068, 140.601 179.782, 139.500 178 C 138.378 176.184, 135.966 176.959, 135.023 179.439 C 134.513 180.781, 133.227 182.343, 132.166 182.911 C 127.863 185.214, 128.796 190.408, 134.118 193.778 C 138.155 196.334, 139.778 195.636, 143.665 189.669 C 145.652 186.619, 147.846 184.759, 151 183.450 C 156.111 181.329, 165.176 181.071, 167.478 182.982 C 168.733 184.023, 169.607 183.774, 172.527 181.547 C 175.266 179.458, 176.716 178.998, 178.992 179.498 C 181.533 180.056, 182.010 179.809, 182.552 177.650 C 183.553 173.661, 182.742 171.927, 178.812 169.651 C 175.679 167.837, 174.671 167.686, 172.119 168.649 C 169.568 169.612, 168.864 169.507, 167.460 167.956 C 164.325 164.491, 160.930 164.065, 156 166.517 M 280.225 165.822 C 270.495 167.430, 270.776 167.232, 269.778 173.148 C 269.520 174.681, 284.641 188.667, 289.185 191.099 C 291.260 192.210, 291.504 191.224, 289.718 188.945 C 288.304 187.140, 275.873 177.537, 272.868 175.930 C 271.747 175.329, 271.036 174.631, 271.288 174.378 C 271.541 174.126, 276.462 176.187, 282.223 178.959 C 292.464 183.887, 296 184.943, 296 183.073 C 296 181.292, 291.086 178.301, 285.315 176.571 C 282.117 175.612, 277.700 174.187, 275.500 173.404 L 271.500 171.980 275 172.525 C 287.113 174.411, 293.389 175.065, 294.666 174.575 C 297.950 173.315, 294.428 172.231, 282.785 170.920 L 270.500 169.536 280 168.935 C 290.083 168.298, 293.318 167.455, 292.709 165.627 C 292.186 164.055, 290.779 164.077, 280.225 165.822 M 351.500 167 C 350.505 168.100, 350.014 169, 350.411 169 C 351.838 169, 355 166.909, 355 165.965 C 355 164.396, 353.439 164.857, 351.500 167 M 356.200 166.200 C 355.540 166.860, 355 168.055, 355 168.855 C 355 170.010, 355.412 169.937, 357 168.500 C 359.054 166.641, 359.617 165, 358.200 165 C 357.760 165, 356.860 165.540, 356.200 166.200 M 238.200 167.200 C 236.330 169.070, 236.773 170, 239.532 170 C 242.168 170, 249 167.511, 249 166.551 C 249 165.453, 239.369 166.031, 238.200 167.200 M 360.729 167.132 C 359.778 167.664, 359 168.485, 359 168.956 C 359 169.969, 362.806 169.122, 363.532 167.948 C 364.357 166.613, 362.581 166.095, 360.729 167.132 M 37.158 171.457 C 36.008 173.406, 35.247 175, 35.466 175 C 36.248 175, 40.209 168.875, 39.733 168.400 C 39.466 168.133, 38.307 169.509, 37.158 171.457 M 344.044 171.671 C 342.586 173.525, 342.262 174.662, 342.985 175.385 C 344.303 176.703, 349.565 171.723, 348.564 170.104 C 347.495 168.375, 346.315 168.784, 344.044 171.671 M 246.732 172.536 C 244.679 173.931, 243 175.506, 243 176.036 C 243 178.031, 245.725 176.879, 249 173.500 C 252.987 169.387, 251.990 168.963, 246.732 172.536 M 251.809 172.750 C 247.414 177.462, 246.623 179.776, 248.452 182.567 C 249.637 184.375, 250.942 185, 253.538 185 C 256.404 185, 257.384 184.418, 259.011 181.750 C 260.962 178.550, 261.761 172, 260.201 172 C 259.761 172, 258.834 173.570, 258.140 175.490 C 256.692 179.494, 254.493 182, 252.429 182 C 250.244 182, 250.723 178.687, 253.500 174.595 C 254.875 172.569, 256 170.706, 256 170.456 C 256 169.243, 254.121 170.272, 251.809 172.750 M 349.980 171.524 C 349.284 172.362, 349.026 173.359, 349.405 173.739 C 350.240 174.573, 353.226 172.823, 353.774 171.179 C 354.344 169.469, 351.468 169.731, 349.980 171.524 M 355.250 171.662 C 353.598 172.329, 353.638 175, 355.300 175 C 356.741 175, 359 173.046, 359 171.800 C 359 170.929, 357.229 170.864, 355.250 171.662 M 254.615 175.465 C 252.806 178.226, 252.471 180.445, 254.007 179.496 C 255.509 178.568, 258.195 173, 257.141 173 C 256.640 173, 255.503 174.109, 254.615 175.465 M 336.099 175.395 C 334.550 177.044, 334.207 178.010, 334.999 178.499 C 336.137 179.203, 341 175.416, 341 173.826 C 341 172.187, 338.301 173.051, 336.099 175.395 M 57.624 175.539 C 56.659 178.053, 56.943 178.702, 58.122 176.675 C 58.706 175.671, 58.973 174.639, 58.715 174.382 C 58.458 174.124, 57.966 174.645, 57.624 175.539 M 262 180.500 C 262 185.611, 262.321 187, 263.500 187 C 265.087 187, 265.589 180.798, 264.370 176.250 C 263.205 171.904, 262 174.066, 262 180.500 M 268.492 177.949 C 269.463 179.846, 271.021 183.644, 271.954 186.391 C 273.605 191.247, 276 193.745, 276 190.611 C 276 188.145, 271.053 178.355, 268.787 176.336 L 266.726 174.500 268.492 177.949 M 347.250 175.662 C 345.728 176.276, 345.578 179, 347.066 179 C 348.776 179, 352 177.017, 352 175.965 C 352 174.958, 349.404 174.793, 347.250 175.662 M 328.073 178.635 C 325.968 181.311, 325.336 184, 326.812 184 C 327.844 184, 332 178.425, 332 177.040 C 332 175.198, 330.201 175.928, 328.073 178.635 M 338.750 179.115 C 336.383 180.881, 334.955 184, 336.514 184 C 337.918 184, 343.977 179.338, 343.988 178.250 C 344.006 176.424, 341.888 176.774, 338.750 179.115 M 321.129 182.564 C 318.470 185.943, 318.445 187, 321.021 187 C 323.476 187, 325.898 182.498, 324.302 180.902 C 323.576 180.176, 322.608 180.683, 321.129 182.564 M 330.479 182.024 C 327.775 185.012, 330.043 186.957, 332.900 184.100 C 334.055 182.945, 335 181.550, 335 181 C 335 179.306, 332.407 179.893, 330.479 182.024 M 171.132 184.500 C 169.001 186.425, 166.212 188, 164.934 188 C 163.655 188, 161.363 189.194, 159.840 190.653 C 157.989 192.426, 156.045 193.277, 153.979 193.218 C 152.053 193.164, 150.664 193.712, 150.295 194.673 C 149.297 197.275, 152.904 206.750, 156.116 209.962 C 157.787 211.633, 158.648 213, 158.029 213 C 156 213, 152.509 208.315, 150.616 203.054 C 148.137 196.159, 145.277 194.259, 140 196 C 136.614 197.117, 135.756 197.070, 133.581 195.645 C 130.458 193.598, 129 193.554, 129 195.507 C 129 197.660, 140.513 208.705, 145.388 211.229 C 150.479 213.864, 162.461 214.454, 168.391 212.362 C 177.669 209.089, 188.724 197.477, 189.734 189.943 C 190.239 186.184, 190.136 186, 187.526 186 C 186.021 186, 183.452 184.875, 181.818 183.500 C 177.835 180.149, 175.730 180.346, 171.132 184.500 M 342.079 182.279 C 338.706 183.980, 337.979 186.448, 341.132 185.493 C 344.099 184.594, 345.330 183.480, 344.863 182.117 C 344.616 181.398, 343.724 181.450, 342.079 182.279 M 156 183.698 C 154.625 183.957, 153.072 184.581, 152.550 185.085 C 152.028 185.588, 150.779 186, 149.775 186 C 148.770 186, 147.541 187.076, 147.040 188.395 C 146.539 189.712, 145.538 190.989, 144.815 191.233 C 143.740 191.594, 143.751 191.979, 144.872 193.337 C 146.579 195.405, 148.602 195.478, 149.362 193.500 C 149.689 192.648, 151.179 192, 152.813 192 C 154.423 192, 156.945 190.921, 158.543 189.547 C 160.113 188.198, 162.546 186.961, 163.949 186.797 C 165.418 186.626, 166.500 185.864, 166.500 185 C 166.500 183.428, 161.031 182.750, 156 183.698 M 332.648 186.925 C 329.755 188.400, 329 188.496, 329 187.392 C 329 184.904, 326.163 185.920, 323.551 189.344 C 322.148 191.184, 321 192.984, 321 193.344 C 321 194.815, 323.791 193.852, 325.836 191.675 C 327.385 190.026, 328.828 189.468, 330.798 189.757 C 332.544 190.013, 334.457 189.451, 335.950 188.242 C 339.280 185.545, 337.077 184.666, 332.648 186.925 M 310.925 190.139 C 309.552 192.706, 307.965 198, 308.570 198 C 310.140 198, 315 191.247, 315 189.066 C 315 187.172, 312.105 187.935, 310.925 190.139 M 317.028 190.471 C 315.032 192.595, 314.897 193.170, 316.061 194.573 C 317.298 196.065, 317.570 196.014, 319.208 193.992 C 321.048 191.720, 321.648 188, 320.174 188 C 319.720 188, 318.304 189.112, 317.028 190.471 M 325.750 193.080 C 323.976 194.114, 323.277 198, 324.865 198 C 326.157 198, 331 193.996, 331 192.927 C 331 191.706, 327.957 191.795, 325.750 193.080 M 311.070 197.426 C 308.785 199.858, 308.961 202, 311.444 202 C 313.118 202, 316.286 197.272, 315.483 195.972 C 314.551 194.464, 313.539 194.797, 311.070 197.426 M 319.308 196.239 C 317.149 197.239, 315.499 199.832, 316.430 200.763 C 317.404 201.737, 321.802 199.959, 322.422 198.341 C 323.322 195.997, 321.902 195.037, 319.308 196.239 M 304.160 197.240 C 302.533 198.867, 302.717 200.677, 304.582 201.393 C 306.911 202.287, 307 202.220, 307 199.559 C 307 196.647, 305.763 195.637, 304.160 197.240 M 298.500 199 C 298.160 199.550, 296.862 200, 295.616 200 C 293.651 200, 293.360 200.498, 293.425 203.750 C 293.466 205.813, 293.940 207.815, 294.477 208.199 C 295.627 209.022, 299 206.239, 299 204.467 C 299 203.795, 299.675 202.685, 300.500 202 C 301.325 201.315, 302 200.135, 302 199.378 C 302 197.791, 299.420 197.512, 298.500 199 M 62 200.804 C 62 202.600, 67.894 210.714, 71.481 213.857 C 74.725 216.699, 84.722 223.502, 90 226.460 C 93.092 228.192, 84.222 219.532, 77.104 213.869 C 73.036 210.632, 68.328 206.188, 66.640 203.992 C 63.733 200.210, 62 199.019, 62 200.804 M 55 201.466 C 55 202.765, 69.462 222.211, 72.045 224.385 C 73.691 225.770, 77.634 228.286, 80.806 229.977 C 87.203 233.387, 93.490 239.067, 98.318 245.799 C 102.455 251.569, 103.066 249.125, 99.482 241.140 C 96.249 233.935, 93.325 231.024, 79.416 221.165 C 72.998 216.616, 67.275 211.670, 65.338 209 C 60.369 202.148, 59.172 201, 57 201 C 55.900 201, 55 201.210, 55 201.466 M 321.250 201.662 C 319.728 202.276, 319.578 205, 321.066 205 C 322.776 205, 326 203.017, 326 201.965 C 326 200.958, 323.404 200.793, 321.250 201.662 M 301.667 202.667 C 301.300 203.033, 301 204.136, 301 205.117 C 301 206.098, 300.255 207.317, 299.346 207.827 C 297.038 209.118, 298.361 212.338, 300.871 211.541 C 302.213 211.115, 302.904 211.525, 303.282 212.972 C 303.875 215.238, 307 215.780, 307 213.617 C 307 212.856, 307.900 211.998, 309 211.710 C 311.078 211.167, 311.814 209, 309.921 209 C 309.231 209, 309.090 207.867, 309.530 205.864 C 310.183 202.889, 310.088 202.761, 307.671 203.368 C 306.269 203.720, 304.843 203.556, 304.502 203.004 C 303.786 201.845, 302.626 201.708, 301.667 202.667 M 312.571 203.571 C 310.883 205.260, 310.446 208, 311.865 208 C 313.157 208, 318 203.996, 318 202.927 C 318 201.425, 314.276 201.867, 312.571 203.571 M 53.306 206.532 C 56.563 209.397, 58.930 209.874, 56.872 207.250 C 54.976 204.832, 53.753 204.028, 52 204.047 C 51.011 204.058, 51.456 204.905, 53.306 206.532 M 315.750 207.572 C 312.400 209.389, 312.189 211, 315.300 211 C 317.845 211, 320 209.303, 320 207.300 C 320 205.657, 319.184 205.709, 315.750 207.572 M 285.439 210.388 C 285.078 211.824, 284.157 213, 283.392 213 C 281.559 213, 281.621 214.441, 283.523 216.019 C 284.364 216.717, 284.793 218.076, 284.482 219.057 C 283.728 221.432, 285.452 222.365, 287.046 220.445 C 287.915 219.397, 289.219 219.109, 291.159 219.535 C 293.679 220.088, 294 219.881, 294 217.702 C 294 216.351, 294.648 214.707, 295.441 214.049 C 297.883 212.022, 296.146 209.721, 292.693 210.411 C 290.631 210.824, 289.107 210.502, 287.884 209.395 C 286.213 207.883, 286.051 207.948, 285.439 210.388 M 57.880 216.250 C 60.549 220.238, 63.748 225.525, 64.988 228 C 68.601 235.208, 75.498 244.364, 81.132 249.429 C 86.355 254.124, 94.728 259.605, 95.500 258.833 C 95.726 258.608, 92.744 254.953, 88.874 250.712 C 85.004 246.470, 82.212 243.005, 82.669 243.012 C 84.413 243.037, 92.358 248.151, 97.568 252.602 C 100.555 255.154, 103 256.790, 103 256.235 C 103 254.513, 95.073 243.259, 90.666 238.724 C 88.357 236.349, 84.374 233.392, 81.815 232.153 C 74.464 228.594, 69.443 224.514, 64.981 218.474 C 61.353 213.564, 55.965 209.015, 53.763 209.004 C 53.358 209.002, 55.210 212.262, 57.880 216.250 M 310 212.645 C 308.454 213.071, 306 217.399, 306 219.699 C 306 221.227, 308.603 221.451, 309.500 220 C 309.840 219.450, 310.991 219, 312.059 219 C 313.306 219, 314 218.314, 314 217.082 C 314 216.027, 314.273 214.452, 314.607 213.582 C 315.214 212.001, 313.559 211.665, 310 212.645 M 288 215 C 288 215.550, 288.450 216, 289 216 C 289.550 216, 290 215.550, 290 215 C 290 214.450, 289.550 214, 289 214 C 288.450 214, 288 214.450, 288 215 M 297.200 215.200 C 296.540 215.860, 296 217.155, 296 218.078 C 296 220.460, 293.761 222.012, 291.266 221.359 C 289.450 220.884, 289.212 221.149, 289.657 223.151 C 290.731 227.994, 290.859 228.146, 292.924 227.040 C 294.223 226.346, 295.087 226.331, 295.498 226.997 C 296.500 228.618, 300 228.162, 300 226.410 C 300 225.536, 300.989 224.020, 302.198 223.041 L 304.396 221.261 302.198 220.563 C 300.592 220.053, 300 219.075, 300 216.933 C 300 213.800, 299.135 213.265, 297.200 215.200 M 272.459 217.067 C 272.096 217.653, 272.074 218.407, 272.409 218.742 C 272.744 219.077, 272.067 220.364, 270.904 221.602 C 268.562 224.095, 269.177 226.396, 271.950 225.516 C 273.410 225.052, 273.645 225.406, 273.250 227.475 C 272.864 229.492, 273.168 230, 274.761 230 C 275.858 230, 277.277 229.371, 277.914 228.603 C 278.552 227.835, 279.895 227.421, 280.899 227.684 C 283.334 228.321, 284.490 225.199, 282.595 223.105 C 281.521 221.918, 281.411 221.017, 282.174 219.653 C 283.664 216.990, 281.825 215.468, 279.143 217.143 C 277.491 218.174, 276.792 218.192, 275.825 217.225 C 274.319 215.719, 273.321 215.672, 272.459 217.067 M 302 217.500 C 302 218.325, 302.450 219, 303 219 C 303.550 219, 304 218.325, 304 217.500 C 304 216.675, 303.550 216, 303 216 C 302.450 216, 302 216.675, 302 217.500 M 295 222 C 295 222.550, 295.450 223, 296 223 C 296.550 223, 297 222.550, 297 222 C 297 221.450, 296.550 221, 296 221 C 295.450 221, 295 221.450, 295 222 M 275.500 223 C 275.160 223.550, 275.359 224, 275.941 224 C 276.523 224, 277 223.550, 277 223 C 277 222.450, 276.802 222, 276.559 222 C 276.316 222, 275.840 222.450, 275.500 223 M 285.638 224.500 C 285.955 225.325, 286.616 226, 287.107 226 C 287.598 226, 288 225.325, 288 224.500 C 288 223.675, 287.339 223, 286.531 223 C 285.637 223, 285.288 223.586, 285.638 224.500 M 303.669 224.166 C 302.690 224.713, 301.475 226.250, 300.969 227.581 C 300.438 228.979, 299.240 230, 298.132 230 C 296.144 230, 294.571 232.498, 295.556 234.090 C 296.444 235.528, 298.728 235.151, 299.377 233.460 C 299.756 232.473, 300.963 232.024, 302.734 232.210 C 304.867 232.434, 305.435 232.111, 305.218 230.802 C 305.063 229.868, 305.851 228.615, 306.968 228.017 C 309.471 226.678, 309.557 225.368, 307.224 224.120 C 306.089 223.512, 304.807 223.529, 303.669 224.166 M 268.667 227.667 C 267.318 229.016, 268.065 230.709, 270.500 231.818 C 271.899 232.456, 273 233.800, 273 234.872 C 273 235.925, 273.712 237.059, 274.582 237.393 C 277.126 238.369, 277.405 238.112, 275.823 236.250 C 275.005 235.287, 273.564 232.813, 272.621 230.750 C 270.939 227.071, 269.997 226.337, 268.667 227.667 M 284.120 228.750 C 283.607 229.667, 281.959 230.436, 280.459 230.459 C 276.761 230.515, 274.818 233.610, 277.316 235.467 C 278.830 236.593, 278.928 237.142, 277.908 238.776 C 277.235 239.853, 276.966 241.470, 277.311 242.368 C 278.027 244.233, 281.534 244.563, 282.584 242.864 C 283.049 242.111, 283.917 242.533, 285.157 244.114 L 287.027 246.500 288.764 244.451 C 289.719 243.325, 291.349 242.078, 292.386 241.681 C 294.134 241.011, 294.153 240.827, 292.650 239.165 C 291.453 237.843, 291.321 237.079, 292.146 236.254 C 293.746 234.654, 292.427 232, 290.031 232 C 288.705 232, 288 231.343, 288 230.107 C 288 227.591, 285.298 226.646, 284.120 228.750 M 101 230.008 C 101 233.133, 105.188 257.514, 105.963 258.899 C 106.710 260.232, 107.038 260.030, 107.930 257.685 C 109.474 253.623, 109.280 252.140, 106.405 246 C 104.988 242.975, 103.579 238.124, 103.272 235.221 C 102.965 232.317, 102.328 229.703, 101.857 229.412 C 101.386 229.120, 101 229.389, 101 230.008 M 290 230 C 290 230.550, 291.125 231, 292.500 231 C 293.875 231, 295 230.550, 295 230 C 295 229.450, 293.875 229, 292.500 229 C 291.125 229, 290 229.450, 290 230 M 267.464 234.059 C 267.089 234.666, 265.571 234.845, 263.905 234.479 C 261.207 233.887, 261 234.053, 261 236.814 C 261 238.533, 260.368 240.029, 259.500 240.362 C 257.130 241.271, 257.752 243.900, 260.500 244.589 C 262.295 245.040, 263 245.891, 263 247.608 C 263 250.406, 266.400 251.007, 267.405 248.387 C 267.903 247.088, 268.310 247.013, 269.499 247.999 C 270.311 248.673, 271.675 248.955, 272.530 248.627 C 273.780 248.147, 273.865 247.617, 272.964 245.933 C 272.055 244.235, 272.173 243.594, 273.583 242.563 C 275.592 241.094, 274.879 238, 272.531 238 C 271.565 238, 271 237.078, 271 235.500 C 271 232.953, 268.721 232.024, 267.464 234.059 M 300.639 233.694 C 299.444 234.889, 299.994 237, 301.500 237 C 302.325 237, 303 236.352, 303 235.559 C 303 233.888, 301.573 232.761, 300.639 233.694 M 283.639 235.694 C 282.513 236.820, 282.954 238, 284.500 238 C 285.325 238, 286 237.577, 286 237.059 C 286 235.798, 284.438 234.895, 283.639 235.694 M 293.622 236.711 C 293.345 236.989, 293.648 238.064, 294.295 239.101 C 295.311 240.728, 294.961 241.407, 291.736 244.066 C 287.600 247.475, 287.031 249, 289.893 249 C 290.934 249, 292.064 249.726, 292.405 250.613 C 292.879 251.848, 293.342 251.961, 294.385 251.095 C 295.134 250.474, 296.479 250.246, 297.373 250.590 C 298.466 251.009, 299 250.678, 299 249.582 C 299 248.685, 300.162 247.509, 301.581 246.969 C 304.521 245.851, 304.373 243.953, 301.235 242.534 C 299.979 241.966, 299.182 240.771, 299.300 239.633 C 299.438 238.298, 298.666 237.465, 296.813 236.952 C 295.336 236.542, 293.900 236.434, 293.622 236.711 M 265.192 241.075 C 265.389 241.666, 265.978 242.150, 266.500 242.150 C 267.022 242.150, 267.611 241.666, 267.808 241.075 C 268.005 240.484, 267.417 240, 266.500 240 C 265.583 240, 264.995 240.484, 265.192 241.075 M 293 245 C 293 245.550, 293.675 246, 294.500 246 C 295.325 246, 296 245.550, 296 245 C 296 244.450, 295.325 244, 294.500 244 C 293.675 244, 293 244.450, 293 245 M 275 247.259 C 275 248.502, 274.100 250.081, 273 250.768 C 270.288 252.462, 270.481 254.852, 273.421 255.970 C 275.157 256.630, 275.698 257.439, 275.334 258.832 C 275.054 259.900, 275.274 261.052, 275.823 261.390 C 277.290 262.298, 280 261.002, 280 259.393 C 280 257.713, 280.507 257.666, 283.182 259.098 C 284.800 259.963, 285.578 259.844, 286.867 258.533 C 288.380 256.993, 288.323 256.726, 286.090 254.896 C 284.261 253.397, 283.960 252.640, 284.840 251.760 C 285.478 251.122, 286 249.738, 286 248.683 C 286 247.145, 285.472 246.868, 283.324 247.278 C 281.743 247.581, 280.076 247.219, 279.252 246.395 C 277.130 244.273, 275 244.706, 275 247.259 M 258.750 246.749 C 257.788 246.968, 257 247.564, 257 248.073 C 257 249.281, 260.710 249.278, 261.457 248.069 C 262.206 246.858, 260.956 246.248, 258.750 246.749 M 90.917 250.895 C 97.683 259.438, 104 264.616, 104 261.619 C 104 260.141, 93.093 249.687, 89.556 247.773 C 88.216 247.049, 88.640 248.020, 90.917 250.895 M 257.649 251.473 C 257.326 252.314, 257.979 253.572, 259.173 254.409 C 260.323 255.214, 261.020 256.504, 260.724 257.277 C 260.428 258.049, 260.580 259.316, 261.062 260.091 C 261.795 261.269, 262.287 261.284, 264.061 260.184 C 265.893 259.049, 266.368 259.117, 267.531 260.684 C 268.778 262.365, 269.001 262.379, 270.538 260.866 C 272.084 259.343, 272.083 259.056, 270.516 256.664 C 269.511 255.131, 269.096 253.273, 269.484 252.049 C 270.237 249.679, 269.743 249.519, 266.986 251.241 C 265.405 252.228, 264.595 252.228, 263.014 251.241 C 260.365 249.586, 258.339 249.674, 257.649 251.473 M 79 251.393 C 79 251.609, 79.698 252.054, 80.552 252.382 C 81.442 252.723, 81.843 252.555, 81.493 251.989 C 80.906 251.038, 79 250.583, 79 251.393 M 286.570 251.887 C 285.817 253.105, 288.665 255.325, 289.956 254.527 C 291.727 253.432, 291.109 251, 289.059 251 C 287.991 251, 286.871 251.399, 286.570 251.887 M 79 254.636 C 86.655 259.079, 95.405 263.002, 97.500 262.930 C 98.600 262.892, 94.594 260.418, 88.598 257.431 C 77.392 251.848, 70.980 249.981, 79 254.636 M 278 253.500 C 278 254.417, 278.484 255.005, 279.075 254.808 C 279.666 254.611, 280.150 254.022, 280.150 253.500 C 280.150 252.978, 279.666 252.389, 279.075 252.192 C 278.484 251.995, 278 252.583, 278 253.500 M 265 254.500 C 265 255.417, 265.484 256.005, 266.075 255.808 C 266.666 255.611, 267.150 255.022, 267.150 254.500 C 267.150 253.978, 266.666 253.389, 266.075 253.192 C 265.484 252.995, 265 253.583, 265 254.500 M 273 262.441 C 273 263.298, 273.450 264, 274 264 C 274.550 264, 275 263.577, 275 263.059 C 275 262.541, 274.550 261.840, 274 261.500 C 273.450 261.160, 273 261.584, 273 262.441 M 143.500 375.101 C 127.515 376.414, 110 380.576, 110 383.062 C 110 384.067, 126.198 389.340, 134 390.874 C 141.802 392.408, 158.912 394, 167.592 394 C 175.600 394, 184 392.221, 184 390.524 C 184 389.550, 179.364 383.524, 173.404 376.750 C 171.089 374.119, 170.606 374.006, 162.242 374.140 C 157.434 374.217, 149 374.649, 143.500 375.101 M 174 374.559 C 174 375.501, 180.307 383.026, 180.737 382.597 C 181.602 381.731, 176.874 374, 175.480 374 C 174.666 374, 174 374.251, 174 374.559 M 179.685 374.700 C 179.411 375.144, 180.358 377.490, 181.790 379.914 C 184.735 384.900, 185.686 384.220, 183.778 378.492 C 182.537 374.763, 180.699 373.061, 179.685 374.700 M 188.079 376.583 C 188.127 377.748, 188.364 377.985, 188.683 377.188 C 188.972 376.466, 188.936 375.603, 188.604 375.271 C 188.272 374.939, 188.036 375.529, 188.079 376.583 M 189.810 378.500 C 189.585 380.425, 189.525 382, 189.675 382 C 190.038 382, 193 376.254, 193 375.550 C 193 375.247, 192.374 375, 191.609 375 C 190.765 375, 190.058 376.374, 189.810 378.500 M 192.471 380.661 C 189.118 388.243, 189.765 390, 195.911 390 C 198.538 390, 203.345 390.933, 206.593 392.073 C 212.004 393.973, 214.180 394.111, 232.500 393.717 C 249.470 393.352, 253.508 392.960, 259.151 391.134 C 262.809 389.950, 266.829 388.149, 268.084 387.133 L 270.366 385.286 267.933 383.768 C 266.595 382.933, 263.475 381.770, 261 381.182 C 254.845 379.722, 234.534 377.221, 223 376.504 C 217.775 376.179, 212.120 375.702, 210.432 375.445 C 207.788 375.042, 206.341 375.872, 199.932 381.466 C 195.845 385.034, 192.050 387.962, 191.500 387.972 C 190.950 387.983, 193.313 385.482, 196.750 382.416 C 200.188 379.349, 203 376.426, 203 375.920 C 203 375.414, 201.194 375, 198.987 375 C 195.071 375, 194.915 375.136, 192.471 380.661 M 107.123 387.628 C 104.952 392.394, 103.813 403.534, 104.896 409.398 C 106.919 420.341, 110.450 423.892, 121.325 425.922 C 124.721 426.557, 128.718 427.315, 130.207 427.608 C 132.579 428.074, 133.105 427.685, 134.451 424.464 C 136.118 420.472, 135.793 419, 133.243 419 C 130.995 419, 114.690 413.977, 115.219 413.447 C 115.453 413.213, 120.414 414.244, 126.244 415.737 C 136.644 418.401, 136.882 418.416, 138.922 416.571 C 142.112 413.683, 141.448 412.294, 136.523 411.556 C 134.061 411.187, 131.755 410.412, 131.398 409.835 C 130.997 409.185, 131.464 408.995, 132.625 409.336 C 133.656 409.639, 136.578 410.179, 139.118 410.537 C 143.377 411.137, 144.117 410.897, 148.618 407.461 C 151.303 405.412, 156.313 402.348, 159.750 400.653 C 163.188 398.958, 166 397.286, 166 396.938 C 166 396.590, 161.162 396.026, 155.250 395.685 C 139.466 394.774, 122.635 391.343, 112.371 386.944 L 108.241 385.175 107.123 387.628 M 265.948 390.727 C 258.589 394.436, 248.942 395.964, 232.750 395.983 C 224.637 395.992, 218.006 396.337, 218.012 396.750 C 218.019 397.163, 219.482 398.506, 221.262 399.736 C 223.043 400.966, 225.403 402.635, 226.506 403.446 C 228.490 404.904, 233.972 404.515, 253 401.566 C 256.038 401.095, 255.907 401.221, 252.001 402.520 C 249.527 403.343, 243.595 404.518, 238.819 405.131 L 230.135 406.244 233.633 411.330 C 236.987 416.206, 237.304 416.404, 241.316 416.141 C 246.166 415.823, 255.840 413.553, 261.250 411.464 C 263.313 410.668, 265 410.379, 265 410.823 C 265 412.073, 253.309 415.844, 245.250 417.193 L 238 418.407 238 421.769 C 238 423.618, 237.500 426.066, 236.889 427.207 C 235.803 429.237, 235.920 429.268, 242.139 428.596 C 251.154 427.622, 265.612 425.098, 268.529 423.989 C 272.912 422.323, 274.992 417.437, 274.996 408.799 C 275 400.346, 273.546 391.998, 271.691 389.826 C 270.684 388.648, 269.796 388.787, 265.948 390.727 M 191.500 393 C 191.840 393.550, 194.229 393.968, 196.809 393.930 C 200.350 393.877, 201.010 393.649, 199.500 393 C 196.658 391.779, 190.745 391.779, 191.500 393 M 109 393.380 C 109 393.707, 112.201 395.587, 116.114 397.558 C 123.711 401.383, 136.331 405.054, 141.410 404.916 C 143.266 404.865, 141.224 404.091, 136.294 402.978 C 131.780 401.958, 124.355 399.485, 119.794 397.482 C 115.232 395.478, 110.938 393.602, 110.250 393.313 C 109.563 393.023, 109 393.054, 109 393.380 M 212 396.731 C 212 398.189, 221.606 405.002, 223.609 404.964 C 225.197 404.934, 225.040 404.552, 222.630 402.581 C 218.703 399.369, 212 395.680, 212 396.731 M 166.093 400.750 L 159.732 404.500 164.948 405.404 L 170.165 406.309 174.819 401.654 L 179.474 397 175.964 397 C 173.706 397, 170.186 398.337, 166.093 400.750 M 191 397.208 C 191 397.387, 193.667 403.376, 196.926 410.517 L 202.851 423.500 207.926 423.802 C 213.564 424.138, 214.270 423.144, 210.500 420.179 C 209.125 419.097, 208 417.929, 208 417.583 C 208 416.754, 193.305 398.307, 192.005 397.503 C 191.452 397.162, 191 397.029, 191 397.208 M 199.134 400.941 C 203.181 405.680, 204.657 406.196, 213.031 405.803 L 219.500 405.500 214.160 401.250 C 209.109 397.230, 208.468 397, 202.294 397 L 195.768 397 199.134 400.941 M 180.373 400.254 C 175.796 405.478, 175.574 406, 177.929 406 C 179.480 406, 180.534 404.967, 181.610 402.392 C 183.442 398.007, 183.004 397.251, 180.373 400.254 M 183.081 402.849 C 181.736 405.362, 181.697 407, 182.981 407 C 184.079 407, 185.542 402.209, 184.701 401.368 C 184.405 401.071, 183.676 401.738, 183.081 402.849 M 190.087 403.083 C 190.039 404.504, 190.250 405.917, 190.557 406.223 C 190.863 406.529, 191.318 410.256, 191.568 414.505 C 191.819 418.753, 192.270 422.628, 192.571 423.115 C 193.233 424.186, 201.015 424.312, 200.963 423.250 C 200.942 422.837, 198.507 417.550, 195.550 411.500 C 191.733 403.688, 190.150 401.249, 190.087 403.083 M 156.500 404 C 156.160 404.550, 156.332 405, 156.882 405 C 157.432 405, 158.160 404.550, 158.500 404 C 158.840 403.450, 158.668 403, 158.118 403 C 157.568 403, 156.840 403.450, 156.500 404 M 150.253 408.250 C 146.849 410.630, 146.140 412, 148.313 412 C 149.035 412, 150.919 410.650, 152.500 409 C 155.897 405.454, 154.784 405.083, 150.253 408.250 M 154.643 409.028 C 152.915 410.572, 151.726 412.035, 152.001 412.279 C 152.275 412.524, 155.076 412.977, 158.224 413.287 C 163.710 413.827, 164.058 413.719, 166.588 410.713 C 168.040 408.988, 168.839 407.484, 168.364 407.371 C 167.889 407.258, 165.314 406.953, 162.642 406.693 C 158.378 406.279, 157.400 406.565, 154.643 409.028 M 224.643 406.769 C 224.382 407.191, 225.560 409.666, 227.262 412.269 C 229.482 415.663, 231.012 417, 232.678 417 C 235.974 417, 235.583 415.588, 230.873 410.478 C 226.768 406.025, 225.551 405.300, 224.643 406.769 M 210.750 407.728 C 208.688 407.944, 207 408.452, 207 408.857 C 207 409.263, 208.814 411.366, 211.032 413.531 C 214.956 417.363, 215.229 417.460, 221.272 417.160 C 224.687 416.991, 227.645 416.688, 227.846 416.487 C 228.047 416.286, 226.738 414.069, 224.936 411.561 C 221.426 406.673, 221.262 406.629, 210.750 407.728 M 169.644 414.234 C 167.184 417.663, 165.384 420.813, 165.645 421.234 C 165.905 421.655, 167.859 422, 169.987 422 C 173.736 422, 173.918 421.837, 175.842 416.750 C 176.934 413.863, 178.140 410.712, 178.521 409.750 C 179.071 408.360, 178.690 408, 176.666 408 C 174.686 408, 173.120 409.390, 169.644 414.234 M 179.874 410.750 C 176.279 419.929, 175.950 421.351, 177.231 422.164 C 179.947 423.888, 181.774 423.021, 182.323 419.750 C 184.213 408.483, 184.223 408, 182.563 408 C 181.676 408, 180.466 409.238, 179.874 410.750 M 188.063 415.250 C 188.016 421.070, 188.332 423, 189.332 423 C 190.342 423, 190.551 421.607, 190.197 417.250 C 189.428 407.794, 188.134 406.582, 188.063 415.250 M 205.786 411.596 C 209.335 416.229, 212 418.688, 212 417.331 C 212 416.828, 209.896 414.410, 207.324 411.958 L 202.649 407.500 205.786 411.596 M 166.342 413.750 C 161.215 419.884, 160.574 421.002, 162.191 420.992 C 162.911 420.988, 164.513 419.301, 165.752 417.242 C 166.991 415.184, 168.733 412.488, 169.624 411.250 C 172.469 407.298, 170.450 408.836, 166.342 413.750 M 184.668 416.334 C 184.210 419.543, 184.097 422.430, 184.418 422.751 C 185.661 423.994, 186.095 421.994, 185.803 416.363 L 185.500 410.500 184.668 416.334 M 142.174 415.314 C 139.492 418.170, 139.440 419, 141.943 419 C 143.726 419, 147 415.619, 147 413.777 C 147 412.203, 144.286 413.067, 142.174 415.314 M 147.399 416.513 C 145.985 418.672, 145.908 419.325, 146.991 419.995 C 147.955 420.590, 147.665 420.913, 145.945 421.159 C 144.246 421.403, 143.300 422.433, 142.634 424.767 C 142.121 426.564, 141.898 428.231, 142.138 428.471 C 142.378 428.712, 144.419 429.203, 146.674 429.564 L 150.772 430.219 156.826 422.883 C 160.156 418.848, 162.795 415.479, 162.690 415.397 C 162.586 415.314, 159.494 414.933, 155.820 414.551 C 149.353 413.878, 149.085 413.940, 147.399 416.513 M 232.395 418.765 C 231.786 419.169, 231.054 421.637, 230.767 424.250 C 230.330 428.236, 230.515 429, 231.923 429 C 234.689 429, 236 426.846, 236 422.300 C 236 418.069, 234.967 417.056, 232.395 418.765 M 213 419.845 C 213 421.046, 216.433 424, 217.829 424 C 218.473 424, 219 424.663, 219 425.474 C 219 427.033, 224.454 430.349, 226.110 429.797 C 226.970 429.510, 214.668 419, 213.472 419 C 213.213 419, 213 419.380, 213 419.845 M 220.076 421.598 C 221.409 423.027, 223.714 425.066, 225.198 426.129 C 227.882 428.052, 227.902 428.051, 229.033 425.938 C 229.658 424.770, 229.898 422.731, 229.566 421.407 C 229.017 419.219, 228.447 419, 223.307 419 L 217.651 419 220.076 421.598 M 136.375 423.645 C 134.811 427.388, 135.489 428.944, 138.703 428.985 C 140.008 429.001, 142.256 422.223, 141.403 420.844 C 140.204 418.902, 137.796 420.244, 136.375 423.645 M 159.500 422.798 C 158.950 423.202, 157.178 424.987, 155.563 426.766 C 152.910 429.687, 152.820 430, 154.625 430 C 155.724 430, 157.639 428.628, 158.879 426.950 C 161.087 423.963, 161.479 421.346, 159.500 422.798 M 161.637 426.231 C 160.187 428.133, 159 429.984, 159 430.344 C 159 430.705, 161.601 431, 164.781 431 C 170.360 431, 170.603 430.889, 171.763 427.816 C 172.424 426.065, 172.785 424.452, 172.565 424.232 C 172.345 424.012, 170.390 423.594, 168.220 423.303 C 164.623 422.820, 164.042 423.079, 161.637 426.231 M 173.642 427.250 C 171.893 431.420, 172.296 432, 176.934 432 C 180.402 432, 180.807 431.717, 181.371 428.897 C 182.170 424.899, 181.542 424, 177.944 424 C 175.575 424, 174.741 424.630, 173.642 427.250 M 111.592 428.645 C 113.134 435.604, 112.586 440.227, 109.679 444.772 C 105.983 450.551, 104.385 457.430, 102.077 477.500 C 98.913 505.016, 97.678 531.288, 98.342 557 C 99.282 593.419, 101.460 610.773, 106.465 621.705 L 108.857 626.929 114.678 623.947 C 117.880 622.307, 124.028 620.298, 128.339 619.483 C 140.095 617.259, 169.972 615.904, 192.500 616.573 C 268.638 618.834, 261.920 618.422, 268.835 621.248 L 275.170 623.836 276.494 620.668 C 278.753 615.259, 280.821 605.937, 282.188 595 C 283.993 580.558, 283.982 509.041, 282.173 492 C 279.306 465.002, 277.206 453.951, 273.494 446.312 C 269.901 438.920, 269.212 434.202, 271.028 429.426 C 272.331 425.998, 272.106 425.822, 267.944 427.016 C 262.956 428.447, 238.674 431.684, 222.500 433.075 C 214.800 433.737, 208.376 434.378, 208.224 434.499 C 208.071 434.620, 211.268 443.220, 215.328 453.610 C 219.387 463.999, 223.731 475.650, 224.980 479.500 C 226.230 483.350, 228.053 487.400, 229.031 488.500 C 230.038 489.633, 231.001 492.669, 231.251 495.500 C 231.493 498.250, 233.786 508.333, 236.346 517.906 C 238.906 527.479, 241 535.466, 241 535.656 C 241 535.845, 241.415 536, 241.922 536 C 242.430 536, 243.340 534.499, 243.946 532.665 C 245.625 527.577, 250.313 523.600, 254.631 523.600 C 258.475 523.600, 260.582 525.490, 261.700 529.941 C 263.178 535.828, 256.695 549.339, 246.139 562.373 C 239.660 570.372, 241.209 571.202, 231.453 554.500 C 227.919 548.450, 225.242 542.914, 225.503 542.198 C 225.764 541.482, 225.579 541.142, 225.093 541.442 C 222.615 542.974, 222.145 529.665, 224.557 526.223 C 226.287 523.753, 231.604 523.183, 235.160 525.086 C 236.899 526.016, 237.115 525.909, 236.669 524.336 C 236.383 523.326, 234.894 517.888, 233.361 512.250 C 231.827 506.613, 230.226 502, 229.803 502 C 229.380 502, 227.916 504.205, 226.551 506.900 C 225.185 509.595, 222.363 513.769, 220.281 516.176 C 218.198 518.582, 215.565 521.827, 214.429 523.386 L 212.364 526.220 208.077 521.360 C 205.719 518.687, 201.531 513.237, 198.770 509.250 C 196.009 505.262, 193.464 502, 193.113 502 C 192.763 502, 191.668 511.113, 190.680 522.250 C 189.692 533.388, 188.404 542.950, 187.817 543.500 C 187.067 544.204, 186.933 543.020, 187.365 539.500 C 190.424 514.574, 191.308 498.905, 191.400 468 C 191.498 435.133, 191.462 434.500, 189.500 434.500 C 187.640 434.500, 187.448 435.412, 186.765 447.500 C 185.046 477.927, 178.675 531, 176.742 531 C 176.196 531, 176.041 529.591, 176.386 527.750 C 180.931 503.477, 187.055 436.707, 184.934 434.550 C 182.909 432.491, 182.092 436.158, 180.492 454.500 C 179.581 464.950, 178.477 476.200, 178.041 479.500 L 177.247 485.500 177.186 479 C 177.153 475.425, 177.898 464.038, 178.842 453.696 C 179.786 443.354, 180.358 434.691, 180.113 434.446 C 179.867 434.201, 177.749 434, 175.405 434 C 171.179 434, 171.128 434.043, 169.191 439.250 C 165.376 449.508, 154.039 484.699, 150.426 497.500 C 148.407 504.650, 146.586 510.688, 146.378 510.917 C 143.660 513.915, 151.258 486.834, 162.037 455.109 C 165.860 443.859, 168.741 434.408, 168.440 434.107 C 167.561 433.227, 155.058 433.642, 148.021 434.784 C 141.144 435.901, 136.153 434.792, 134.352 431.746 C 133.845 430.888, 129.694 429.617, 124.095 428.605 C 118.922 427.669, 113.800 426.428, 112.714 425.847 C 110.848 424.848, 110.786 425.005, 111.592 428.645 M 183.667 425.667 C 182.315 427.018, 182.971 432, 184.500 432 C 185.548 432, 186 430.944, 186 428.500 C 186 425.191, 185.161 424.172, 183.667 425.667 M 187.578 427.546 C 186.839 430.490, 187.511 432, 189.559 432 C 190.539 432, 191 430.881, 191 428.500 C 191 424.329, 188.556 423.648, 187.578 427.546 M 193 428.595 L 193 432 198.500 432 C 202.365 432, 204 431.611, 204 430.691 C 204 428.119, 201.433 426.226, 197.250 425.712 L 193 425.190 193 428.595 M 208.775 425.907 C 204.122 426.491, 204.070 426.538, 205.305 429 C 206.492 431.365, 206.936 431.481, 213.530 431.153 C 217.363 430.962, 220.664 430.648, 220.865 430.454 C 221.451 429.890, 215.601 425.051, 214.500 425.189 C 213.950 425.258, 211.374 425.581, 208.775 425.907 M 138.441 432.532 C 141.136 434.570, 143.699 434.547, 142 432.500 C 141.315 431.675, 139.798 431.014, 138.628 431.032 C 136.542 431.063, 136.538 431.092, 138.441 432.532 M 150 433.059 C 150 433.641, 150.450 433.840, 151 433.500 C 151.550 433.160, 152 432.684, 152 432.441 C 152 432.198, 151.550 432, 151 432 C 150.450 432, 150 432.477, 150 433.059 M 193.936 434.750 C 193.901 435.163, 193.860 447.601, 193.844 462.390 L 193.815 489.281 196.832 489.518 C 200.331 489.793, 204.523 492.554, 208.745 497.362 L 211.723 500.755 213.414 496.922 C 215.481 492.238, 220.308 488, 223.577 488 C 224.910 488, 226 487.859, 226 487.688 C 226 485.977, 214.002 453.778, 208.323 440.250 L 205.700 434 199.850 434 C 196.632 434, 193.971 434.337, 193.936 434.750 M 115.166 439.118 C 115.078 441.389, 113.401 446.789, 111.431 451.153 C 109.465 455.507, 108.022 459.567, 108.225 460.175 C 108.428 460.783, 110.286 457.578, 112.354 453.053 C 116.065 444.935, 118.238 435, 116.303 435 C 115.767 435, 115.255 436.853, 115.166 439.118 M 264.942 439.750 C 266.125 443.802, 271.297 454, 272.169 454 C 272.583 454, 271.364 450.750, 269.461 446.778 C 267.557 442.806, 266 438.981, 266 438.278 C 266 437.575, 265.581 437, 265.070 437 C 264.527 437, 264.474 438.146, 264.942 439.750 M 274.127 464.594 C 273.918 472.971, 275.246 491, 276.072 491 C 276.893 491, 276.239 475.421, 275.002 465.500 L 274.254 459.500 274.127 464.594 M 105.639 470.675 C 104.391 474.872, 101.994 521, 103.025 521 C 103.407 521, 104.033 514.587, 104.417 506.750 C 104.800 498.913, 105.522 487.346, 106.021 481.048 C 106.897 469.998, 106.781 466.840, 105.639 470.675 M 220.084 491.583 C 218.334 493.055, 215.746 496.541, 214.333 499.329 L 211.765 504.398 210.261 501.449 C 208.012 497.039, 205.331 494.453, 200.968 492.486 C 197.772 491.044, 196.764 490.951, 195.523 491.981 C 192.742 494.289, 193.754 499.157, 198.651 507.026 C 203.337 514.555, 210.750 524, 211.973 524 C 212.859 524, 221.857 510.917, 225.908 503.739 C 229.072 498.132, 229.122 497.865, 227.747 493.739 C 226.027 488.578, 224.249 488.078, 220.084 491.583 M 276.397 508 C 279.820 570.125, 279.618 580.996, 274.663 601.250 C 273.351 606.612, 272.581 611, 272.951 611 C 273.528 611, 276.645 599.558, 278.454 590.805 C 280.211 582.300, 280.883 562.791, 279.968 546.850 C 279.421 537.307, 278.694 523.200, 278.354 515.500 C 278.014 507.800, 277.317 500.825, 276.805 500 C 276.211 499.043, 276.063 501.942, 276.397 508 M 225.557 528.223 C 223.514 531.139, 223.591 532.870, 226.048 539.213 C 228.745 546.174, 240.204 565.089, 241.492 564.705 C 242.884 564.290, 253.418 548.749, 257.033 541.779 C 261.793 532.600, 260.756 526, 254.554 526 C 250.336 526, 246.901 529.770, 244.480 537.059 C 242.596 542.732, 242.106 542.609, 239.619 535.847 C 236.270 526.739, 229.259 522.937, 225.557 528.223 M 101.721 543 C 100.933 555.671, 102.064 579.804, 104.017 592 C 105.300 600.012, 109.025 613, 110.041 613 C 110.453 613, 109.912 610.188, 108.838 606.750 C 105.342 595.558, 103.758 581.371, 103.117 555.500 C 102.502 530.693, 102.491 530.597, 101.721 543 M 222.217 566.561 C 219.510 568.456, 217.074 572.973, 215.506 579 L 214.336 583.500 212.236 579.500 C 209.699 574.667, 204.513 571, 200.214 571 C 197.723 571, 196.727 571.627, 195.526 573.950 C 194.687 575.573, 194 577.540, 194 578.321 C 194 581.098, 203.811 593.137, 211.306 599.558 L 218.919 606.080 221.415 602.290 C 225.417 596.212, 232.194 580.076, 232.621 575.607 C 232.997 571.672, 232.969 571.626, 231.963 574.500 C 229.981 580.166, 218.561 603, 217.710 603 C 216.496 603, 200.151 586.091, 197.894 582.500 C 191.046 571.607, 203.201 569.790, 210.929 580.551 C 212.686 582.998, 214.475 585, 214.904 585 C 215.333 585, 216.525 582.222, 217.553 578.826 C 220.746 568.278, 226.532 563.968, 230.407 569.250 L 232.058 571.500 231.006 569.273 C 230.008 567.159, 227.118 565, 225.288 565 C 224.824 565, 223.442 565.702, 222.217 566.561 M 142.347 620.035 C 127.267 621.198, 114.603 624.597, 112.465 628.056 C 111.418 629.751, 115.049 633.087, 120.670 635.597 C 130.062 639.788, 139.448 640.308, 194.500 639.681 C 255.740 638.985, 260.415 638.412, 269.880 630.447 C 271.596 629.004, 273 627.271, 273 626.596 C 273 624.826, 267.101 622.277, 260.344 621.129 C 252.648 619.821, 156.669 618.931, 142.347 620.035" stroke="none" fill="#ffffff" fill-rule="evenodd"/>
</svg>