<svg xmlns="http://www.w3.org/2000/svg" width="282" height="596" viewBox="0 0 282 596" version="1.1">
	<path d="M 147.001 66.123 C 141.084 68.483, 136.129 76.168, 134.057 86.199 C 132.076 95.789, 135.091 111.226, 143.979 136.994 L 147.943 148.489 143.270 153.234 C 138.806 157.765, 138.577 158.278, 138.173 164.625 C 137.940 168.280, 138.282 178.101, 138.933 186.448 L 140.115 201.625 132.090 218.313 C 127.676 227.491, 123.693 235, 123.239 235 C 122.785 235, 121.086 231.062, 119.462 226.250 C 115.756 215.266, 106.678 196.814, 100.153 187 C 90.762 172.878, 76.591 158, 72.531 158 C 71.880 158, 70.310 159.105, 69.041 160.456 C 66.876 162.761, 66.777 163.423, 67.435 171.206 C 69.297 193.224, 77.769 217.280, 90.840 237.655 C 95.579 245.044, 106.371 256.547, 111.834 260.034 L 114.168 261.523 110.562 275.470 C 105.817 293.820, 102.300 312.053, 101.021 324.924 C 99.941 335.799, 99.424 337.509, 97.990 334.947 C 95.057 329.705, 84.280 315.799, 78.874 310.279 C 67.446 298.613, 57.519 293.629, 50.121 295.846 C 44.371 297.568, 41.611 301.066, 42.249 305.823 C 42.935 310.937, 49.719 324.916, 56.263 334.704 C 63.021 344.810, 79.276 361.185, 89.777 368.466 C 94.330 371.622, 98.661 375.396, 99.402 376.852 C 100.142 378.309, 101.064 382.650, 101.450 386.500 C 102.070 392.683, 105.387 415.763, 106.733 423.250 C 107.434 427.151, 105.810 426.709, 100.279 421.492 C 93.873 415.448, 76.762 406.962, 70.739 406.841 C 59.532 406.617, 56.934 415.777, 64.917 427.379 C 71.600 437.092, 83.852 445.829, 106.145 456.777 L 117.789 462.495 121.574 471.498 C 131.771 495.751, 147.443 525.970, 154.767 535.500 C 160.598 543.087, 172.082 554.474, 175.889 556.443 C 178.235 557.656, 179.004 557.700, 179.858 556.671 C 181.275 554.964, 179.337 551.332, 173.171 544.136 C 159.683 528.394, 154.030 519.284, 140.510 491.500 C 130.395 470.713, 127.070 462.390, 126.307 455.942 C 125.727 451.049, 125.776 450.941, 130.646 446.247 C 133.356 443.636, 139.610 437.857, 144.545 433.404 C 155.901 423.159, 161.374 416.055, 163.449 408.864 C 164.955 403.647, 164.953 402.923, 163.425 399.105 C 160.596 392.033, 154.611 392.237, 147.404 399.652 C 141.717 405.504, 131.346 421.108, 125.994 431.866 C 123.660 436.558, 121.454 439.852, 120.971 439.366 C 117.536 435.910, 109.910 381.188, 112.320 377.290 C 112.732 376.624, 121.630 370.426, 132.094 363.516 C 158.675 345.962, 172.292 332.550, 177.321 318.967 C 178.245 316.473, 179 313.661, 179 312.717 C 179 310.397, 175.457 307, 173.038 307 C 166.423 307, 150.051 316.434, 139.078 326.569 C 132.411 332.727, 120.923 346.126, 115.193 354.428 C 113.374 357.064, 111.599 358.933, 111.249 358.582 C 110.392 357.726, 110.846 340.964, 112.078 328 C 113.526 312.746, 118.360 286.890, 121.635 276.876 C 123.159 272.219, 123.217 272.174, 130.834 269.708 C 163.797 259.036, 181.702 251.049, 196.947 240.214 C 209.251 231.470, 220.323 220.918, 219.838 218.399 C 219.104 214.585, 214.530 213.638, 196.500 213.567 C 181.183 213.507, 178.780 213.736, 172.226 215.883 C 163.827 218.635, 149.589 226.511, 142.861 232.128 C 140.310 234.257, 137.947 236, 137.611 236 C 136.281 236, 137.219 232.959, 142.582 219.891 L 148.167 206.282 156.333 205.649 C 177.015 204.045, 197 194.635, 197 186.501 C 197 183.715, 199.924 182.539, 210.550 181.051 C 239.622 176.981, 255.379 168.572, 261.793 153.703 C 262.457 152.165, 263 148.744, 263 146.101 C 263 139.742, 259.961 135.232, 253.499 132 C 249.155 129.827, 247.256 129.513, 239 129.602 C 232.797 129.669, 227.819 130.301, 224.655 131.424 C 221.991 132.370, 219.587 132.921, 219.315 132.648 C 219.042 132.376, 221.289 129.241, 224.308 125.683 C 230.816 118.011, 235.601 108.488, 236.553 101.312 C 237.963 90.686, 231.195 83.246, 221.008 84.225 C 208.693 85.409, 188.929 100.232, 181.833 113.608 C 180.552 116.024, 179.059 117.853, 178.516 117.672 C 177.973 117.491, 177 112.878, 176.354 107.421 C 173.541 83.664, 167.868 69.932, 159.407 66.397 C 155.566 64.792, 150.613 64.683, 147.001 66.123 M 147.776 77.750 C 139.705 86.955, 142.102 104.854, 155.919 138.547 C 162.645 154.950, 164.931 155.001, 166.071 138.775 C 167.710 115.454, 162.832 85.161, 156.245 77.750 C 155.390 76.787, 153.480 76, 152 76 C 150.520 76, 148.619 76.787, 147.776 77.750 M 213.500 98.277 C 205.047 102.818, 195.559 112.756, 188.915 124.026 C 183.163 133.784, 172.386 157.719, 173.322 158.656 C 174.677 160.010, 178.865 157.103, 187.712 148.667 C 198.833 138.063, 217.357 117.978, 221.412 112.127 C 225.018 106.924, 227.180 100.566, 226.401 97.460 C 225.523 93.962, 220.998 94.248, 213.500 98.277 M 231.500 140.666 C 227.039 141.634, 217.120 145.568, 211 148.797 C 199.877 154.665, 185 164.971, 185.005 166.804 C 185.008 167.737, 186.054 169.805, 187.330 171.399 L 189.649 174.298 202.075 172.108 C 233.395 166.589, 242.666 163.432, 249.377 156.005 C 254.553 150.275, 254.368 144.276, 248.928 141.463 C 246.262 140.084, 236.284 139.628, 231.500 140.666 M 151.368 159.997 C 148.588 161.107, 148.215 164.596, 149.285 179.456 C 150.499 196.298, 150.211 195.851, 159.161 194.790 C 172.112 193.256, 186 188.053, 186 184.736 C 186 183.163, 175.518 172.829, 168.084 167.073 C 159.591 160.497, 154.991 158.550, 151.368 159.997 M 77.464 180.607 C 79.983 197.409, 87.723 217.208, 97.553 232 C 102.715 239.766, 115.460 252.683, 116.423 251.124 C 118.197 248.254, 106.679 219.998, 96.662 202.649 C 90.669 192.268, 79.073 176.035, 77.636 176.013 C 77.162 176.006, 77.084 178.073, 77.464 180.607 M 185 224.026 C 176.287 224.893, 170.250 227.112, 159.803 233.289 C 148.480 239.983, 128.504 256.095, 129.185 257.985 C 130.006 260.260, 172.410 242.927, 187.500 234.147 C 195.332 229.591, 202.101 224.434, 201.301 223.634 C 200.546 222.879, 195.241 223.007, 185 224.026 M 52 307.774 C 52 310.420, 59.928 323.830, 67.522 334.029 C 76.088 345.534, 94.440 361.813, 97.514 360.633 C 98.812 360.135, 98.589 359.129, 96.077 354.152 C 91.078 344.250, 79.016 327.024, 71.564 319.148 C 61.339 308.339, 52 302.909, 52 307.774 M 155.049 325.543 C 147.856 330.838, 130.912 347.379, 129.009 350.963 L 127.702 353.425 130.601 351.546 C 143.151 343.409, 156.600 331.583, 162.118 323.834 C 165.209 319.494, 162.317 320.193, 155.049 325.543 M 153.333 404.237 C 147.353 410.869, 137.070 427, 138.822 427 C 140.421 427, 152.730 412.945, 155.215 408.282 C 157.922 403.201, 156.678 400.527, 153.333 404.237 M 70 419.356 C 70 422.375, 77.436 430.161, 85.245 435.319 C 94.944 441.725, 111.293 451, 112.887 451 C 115.096 451, 113.905 448.779, 108.750 443.286 C 100.969 434.996, 89.738 426.393, 80.882 421.941 C 72.577 417.765, 70 417.153, 70 419.356" stroke="none" fill="#000000" fill-rule="evenodd"/>
</svg>