<svg xmlns="http://www.w3.org/2000/svg" width="194" height="446" viewBox="0 0 194 446" version="1.1">
	<path d="M 86.500 18 C 86.160 18.550, 84.647 19, 83.137 19 C 80.513 19, 74 24.334, 74 26.483 C 74 26.972, 73.077 28.354, 71.948 29.555 C 69.222 32.457, 70.156 36.052, 74.666 40.011 C 79.229 44.018, 80.907 42.797, 76.982 38.326 C 73.419 34.268, 73.542 32.363, 77.337 32.822 C 80.346 33.185, 80.991 31.067, 78.500 29 C 77.675 28.315, 77 27.312, 77 26.771 C 77 26.229, 77.675 26.059, 78.500 26.393 C 79.325 26.727, 80.746 27.301, 81.659 27.668 C 83.063 28.233, 83.220 27.851, 82.684 25.168 C 81.974 21.620, 83.354 20.924, 85 24 C 86.554 26.904, 88 26.451, 88 23.059 C 88 21.441, 88.430 19.852, 88.956 19.527 C 90.379 18.648, 93.178 23.493, 93.350 27.133 C 93.478 29.839, 93.072 30.429, 90.619 31.104 C 83.632 33.027, 80.142 41.377, 85.337 43.744 C 87.188 44.587, 88.774 47.888, 92.980 59.654 C 95.899 67.819, 99.108 76.750, 100.111 79.500 C 103.091 87.671, 102.485 94.380, 96.632 118 L 91.305 139.500 89.625 133.500 C 85.697 119.464, 77.359 95.583, 72.210 83.618 C 66.680 70.766, 66.670 70.726, 68.142 66.618 C 70.487 60.077, 67.652 47, 63.890 47 C 63.305 47, 62.317 48.350, 61.694 50 C 60.444 53.312, 60.208 53.410, 56.692 52.073 C 54.623 51.286, 54.087 51.513, 53.149 53.573 C 52.540 54.908, 51.188 56, 50.144 56 C 47.353 56, 46.240 57.910, 45.849 63.372 C 45.536 67.738, 45.791 68.464, 48.300 70.355 C 50.482 72, 52.406 72.436, 57.009 72.330 C 60.777 72.243, 63.306 72.664, 63.993 73.491 C 66.687 76.738, 78.680 104.654, 77.771 105.563 C 77.582 105.752, 75.167 105.244, 72.404 104.434 C 67.754 103.071, 66.912 103.111, 61.060 104.981 C 57.584 106.091, 53.935 107, 52.952 107 C 50.418 107, 48 108.050, 48 109.150 C 48 110.939, 57.241 119.951, 61.839 122.646 C 66.781 125.542, 73.179 126.242, 80.145 124.650 L 83.790 123.817 85.843 132.658 C 94.014 167.861, 98.474 199.608, 97.805 217.809 L 97.500 226.118 94.556 217.309 C 89.749 202.926, 81.919 187.323, 72.680 173.721 C 67.906 166.693, 64 160.110, 64 159.093 C 64 158.076, 64.714 155.535, 65.587 153.446 C 68.666 146.077, 64.668 136.296, 55.483 128.725 C 50.504 124.621, 48.795 125.727, 47.574 133.843 C 47.065 137.229, 46.254 140, 45.771 140 C 45.288 140, 41.862 137.582, 38.158 134.626 C 31.587 129.383, 31.433 129.154, 31.810 125.194 C 32.129 121.847, 31.575 120.199, 28.648 115.788 C 23.489 108.016, 20.457 105.376, 18.529 106.976 C 17.688 107.674, 17 109.765, 17 111.622 C 17 114.559, 16.673 115, 14.500 115 C 12.477 115, 12 115.494, 12 117.590 C 12 119.014, 11.165 120.927, 10.145 121.840 C 8.679 123.152, 8.386 124.501, 8.748 128.278 C 9.133 132.294, 9.660 133.290, 12.053 134.528 C 15.192 136.151, 19.587 136.477, 20.408 135.148 C 20.698 134.680, 19.149 133.762, 16.967 133.108 C 12.786 131.856, 11.612 130, 15 130 C 17.849 130, 17.491 127.137, 14.500 126 C 11.054 124.690, 11.362 123.679, 15.044 124.220 C 18.364 124.707, 19.874 123.474, 18.113 121.713 C 17.501 121.101, 17 120.025, 17 119.321 C 17 118.320, 17.543 118.290, 19.504 119.184 C 23.080 120.813, 23.445 119.794, 21.148 114.602 C 20.038 112.092, 19.509 109.803, 19.974 109.516 C 21.080 108.832, 25.296 113.887, 26.950 117.880 C 28.152 120.781, 28.035 121.342, 25.453 125.068 C 23.111 128.448, 22.812 129.550, 23.627 131.805 C 24.599 134.494, 25.126 134.625, 30.179 133.428 C 32.584 132.859, 34.122 134.058, 45.207 145.147 C 56.815 156.759, 68.125 171.209, 66.711 172.622 C 66.363 172.971, 62.572 171.884, 58.289 170.207 C 45.939 165.372, 37.701 162.278, 35.020 161.468 C 33.656 161.056, 31.339 159.434, 29.872 157.863 C 26.026 153.746, 15.148 147.843, 12.068 148.201 C 9.757 148.470, 9.500 148.928, 9.500 152.786 C 9.500 155.316, 8.944 157.416, 8.143 157.911 C 6.674 158.820, 7.433 163, 9.067 163 C 9.580 163, 10 164.184, 10 165.632 C 10 167.080, 10.937 169.780, 12.082 171.632 C 13.742 174.319, 14.809 175, 17.359 175 C 21.014 175, 25.843 171.138, 28.422 166.151 C 29.318 164.418, 30.412 163, 30.853 163 C 33.197 163, 68.419 176.573, 71.766 178.766 C 73.793 180.094, 77 184.808, 77 186.459 C 77 186.766, 74.604 186.736, 71.676 186.392 C 65.311 185.644, 62.294 186.941, 56.177 193.058 C 51.052 198.184, 51.550 199.163, 60.725 201.997 C 68.928 204.530, 72.614 204.517, 79.176 201.931 C 83.805 200.106, 84.556 200.040, 85.529 201.371 C 88.010 204.763, 95.964 230.942, 96.955 238.974 C 98.124 248.452, 98.258 283.487, 97.136 286.337 C 96.546 287.835, 95.885 287.188, 93.555 282.837 C 88.724 273.815, 80.046 260.871, 73.553 253 C 64.169 241.626, 63.788 240.907, 65.116 237.096 C 65.737 235.316, 66.004 232.063, 65.709 229.867 C 64.590 221.522, 55.233 206.732, 52.505 208.996 C 50.734 210.465, 47.758 221.661, 48.508 224.026 C 49.438 226.955, 47.068 226.505, 42.728 222.927 C 39.441 220.218, 39 219.327, 39 215.395 C 39 209.704, 36.998 204.930, 33.438 202.130 C 29.543 199.066, 27.500 199.713, 27.500 204.010 C 27.500 207.004, 27.124 207.544, 24.734 207.987 C 18.909 209.067, 15.015 221.015, 19.143 225.143 C 20.770 226.770, 21.912 226.993, 25.803 226.446 C 28.386 226.083, 32.012 224.920, 33.859 223.862 L 37.219 221.938 41.859 225.649 C 51.444 233.313, 76.072 259.261, 74.887 260.446 C 74.669 260.664, 70.701 259.744, 66.069 258.403 C 55.846 255.442, 47.054 254.019, 36.717 253.651 C 29.126 253.382, 28.860 253.286, 25.959 249.767 C 23.736 247.070, 21.798 245.906, 18.284 245.156 C 12.134 243.845, 9.522 245.076, 10.473 248.839 C 10.843 250.302, 11.164 254.073, 11.185 257.217 C 11.222 262.497, 11.479 263.128, 14.546 265.467 C 20.460 269.978, 24.612 268.221, 28.654 259.500 C 30.488 255.540, 30.568 255.497, 36.504 255.241 C 45.616 254.848, 46.224 255.845, 40.653 262.041 C 35.288 268.008, 35.520 269.138, 42.473 270.889 C 51.940 273.273, 60.234 271.075, 65.532 264.780 C 68.038 261.801, 68.218 261.752, 71.999 263 C 77.912 264.951, 82.143 269.031, 87.287 277.743 C 95.992 292.484, 97.506 297.830, 98.403 317 C 99.777 346.334, 107.128 384.122, 114.889 401.738 C 121.639 417.062, 129.982 431.554, 130.741 429.276 C 131.155 428.035, 128.570 421.694, 120.236 403.500 C 110.103 381.379, 103.770 350.555, 102.333 316.364 C 101.717 301.713, 101.771 301.104, 104.028 297.364 C 109.510 288.281, 130.940 263.900, 142.370 253.741 L 149.392 247.500 157.446 247.412 C 171.690 247.256, 176.087 244.923, 171.978 239.699 C 170.890 238.316, 170 236.574, 170 235.827 C 170 233.853, 158.428 222, 156.501 222 C 153.777 222, 151.287 223.799, 149.089 227.355 C 146.615 231.358, 146.526 232, 148.443 232 C 149.237 232, 150.685 230.649, 151.660 228.999 C 154.551 224.104, 159.653 223.544, 157.050 228.406 C 155.212 231.841, 156.552 233.524, 159.557 231.554 C 162.732 229.474, 163.287 229.595, 161.958 232.078 C 160.332 235.116, 161.445 237.367, 163.919 236.043 C 164.991 235.469, 166.123 235, 166.434 235 C 167.594 235, 166.947 237.799, 165.511 238.991 C 163.411 240.733, 164.574 242, 168.273 242 C 171.067 242, 171.258 242.171, 169.940 243.488 C 169.122 244.307, 166.406 245.257, 163.905 245.600 L 159.357 246.223 157.580 241.570 C 155.571 236.311, 152.159 233.497, 149.003 234.499 C 147.204 235.070, 146.940 235.862, 147.134 240.111 C 147.345 244.738, 147.075 245.348, 142.952 249.549 L 138.544 254.040 136.357 249.085 C 134.115 244.005, 127.843 237, 125.537 237 C 120.823 237, 119.817 251.069, 123.907 259.800 L 126.313 264.939 120.606 271.219 C 117.467 274.674, 111.884 281.247, 108.199 285.828 L 101.500 294.155 101.222 279.372 C 101.069 271.241, 101.143 264.070, 101.386 263.436 C 101.629 262.803, 103.201 262.010, 104.879 261.674 C 108.477 260.955, 112.414 255.599, 114.543 248.525 C 115.646 244.857, 115.714 242.744, 114.858 238.678 C 113.099 230.321, 112.842 230.183, 107.769 234.859 C 101.516 240.623, 100.864 240.349, 101.574 232.250 C 102.457 222.178, 113.025 191.768, 117.223 187.220 C 118.475 185.863, 122.425 182.517, 126 179.784 C 132.921 174.494, 132.989 174.482, 143.500 176.518 L 146.500 177.100 143.611 175.445 C 141.543 174.261, 141.083 173.567, 141.995 173.003 C 144.171 171.658, 153.226 175.157, 155.897 178.376 C 156.961 179.658, 156.563 180.041, 153.221 180.941 C 144.523 183.283, 140.594 183.322, 136.464 181.109 C 131.308 178.345, 129.835 178.477, 133.158 181.404 C 134.677 182.742, 137.676 183.987, 140.158 184.309 C 145.518 185.004, 160.198 182.909, 160.708 181.376 C 161.231 179.808, 156.346 174.230, 152.881 172.438 C 148.959 170.410, 149.258 169.303, 154.121 167.846 C 157.776 166.751, 158.389 166.811, 159.534 168.377 C 161.088 170.503, 167.862 172.659, 175.810 173.558 C 180.579 174.098, 181.951 173.906, 183.354 172.503 C 185.496 170.361, 184.162 168.414, 179.914 167.481 L 176.966 166.834 179.983 164.016 C 183.563 160.672, 183.861 158.261, 180.750 157.820 C 178.845 157.549, 178.500 156.887, 178.500 153.500 C 178.500 149.862, 178.247 149.471, 175.698 149.179 C 173.796 148.960, 172.591 148.055, 171.946 146.359 C 170.629 142.894, 167.183 143.586, 164.284 147.898 C 162.003 151.291, 161.250 155, 162.843 155 C 163.306 155, 164.533 153.425, 165.570 151.500 C 168.066 146.864, 170.059 146.864, 169.306 151.500 C 168.677 155.376, 169.437 155.783, 172.842 153.398 C 175.882 151.269, 176.496 152.140, 174.574 155.857 C 172.240 160.370, 172.530 161.344, 176 160.650 C 180.207 159.809, 179.910 162.055, 175.500 164.430 C 173.575 165.467, 172 166.623, 172 166.999 C 172 167.376, 173.800 168.223, 176 168.882 C 181.525 170.537, 181.062 172.088, 175.250 171.396 C 168.605 170.604, 168 170.325, 168 168.052 C 168 166.945, 167.276 164.231, 166.391 162.020 C 164.239 156.640, 160.703 156.382, 158.585 161.451 C 157.329 164.458, 156.392 165.110, 151.321 166.511 C 136.917 170.491, 130.352 173.322, 123.633 178.450 C 121.085 180.395, 119 181.530, 119 180.972 C 119 177.859, 128.719 161.191, 139.423 145.949 L 151.676 128.500 156.088 128.450 C 160.391 128.402, 167.252 125.399, 172.906 121.090 C 176.172 118.601, 175.101 116.013, 170.781 115.957 C 168.061 115.922, 166.862 115.087, 163.769 111.074 C 160.535 106.879, 159.418 106.140, 155.398 105.537 C 152.846 105.154, 150.350 105.250, 149.851 105.749 C 149.351 106.249, 148.436 109.382, 147.817 112.711 C 146.788 118.239, 146.873 119.059, 148.794 122.167 L 150.897 125.570 143.699 134.969 C 139.739 140.138, 135.938 144.548, 135.250 144.767 C 134.427 145.030, 134 144.074, 134 141.970 C 134 140.211, 133.236 134.053, 132.302 128.284 C 130.710 118.448, 130.710 117.630, 132.289 115.148 C 136.601 108.370, 138.101 103.932, 137.802 98.842 C 137.399 91.986, 134.997 90.221, 131.698 94.356 C 129.650 96.923, 129.286 97.049, 128.088 95.606 C 126.420 93.596, 124.611 93.559, 123 95.500 C 122.315 96.325, 120.875 97, 119.799 97 C 117.641 97, 110 104.391, 110 106.478 C 110 108.409, 117.309 114.573, 117.811 113.066 C 118.036 112.391, 117.046 110.613, 115.610 109.115 C 112.334 105.696, 112.302 104.608, 115.500 105.411 C 117.753 105.976, 118 105.740, 118 103.019 C 118 99.655, 119.433 99.177, 122.150 101.636 C 124.078 103.380, 124.430 103.023, 125.242 98.500 C 125.551 96.776, 125.829 96.930, 127.257 99.617 C 129.120 103.122, 128.555 104.367, 123.750 107.343 C 119.736 109.829, 120.044 113.504, 124.486 116.124 C 128.520 118.505, 129.015 119.982, 131.523 137.130 L 133.223 148.759 127.945 156.581 L 122.667 164.402 121.357 160.617 C 119.916 156.455, 114.665 148.888, 110.538 145.026 C 108.371 142.998, 107.736 142.809, 107.015 143.975 C 105.846 145.868, 103.999 156.673, 104.006 161.582 C 104.016 169.118, 107.843 177.958, 111.742 179.455 C 114.669 180.578, 114.973 178.757, 112.374 175.675 C 110.902 173.929, 109.090 171.052, 108.348 169.282 C 106.639 165.203, 106.658 153.244, 108.379 150.141 L 109.687 147.782 113.286 152.173 C 120.688 161.207, 120.719 167.550, 113.446 185 C 111.956 188.575, 109.031 196.377, 106.947 202.338 C 104.863 208.299, 102.919 213.414, 102.628 213.706 C 101.814 214.520, 101.169 210.415, 100.476 200 C 99.801 189.865, 98.135 177.633, 95.414 162.827 C 93.039 149.899, 93.877 142.178, 100.389 117 C 108.097 87.194, 110.604 78.063, 111.254 77.412 C 111.562 77.104, 113.184 77.561, 114.857 78.426 C 121.943 82.091, 127.765 79.060, 135.279 67.796 C 138.322 63.235, 140.602 59.165, 140.346 58.751 C 139.697 57.701, 133.654 57.828, 126.125 59.049 C 122.619 59.618, 119.563 59.896, 119.333 59.666 C 118.568 58.901, 123.879 47.984, 125.278 47.447 C 126.035 47.156, 127.854 47.374, 129.319 47.931 C 132.881 49.285, 133.747 48.792, 139 42.418 C 146.702 33.071, 147.572 28.295, 141.360 29.460 C 138.342 30.026, 137.998 29.857, 137.985 27.795 C 137.959 23.928, 136.591 22.711, 133.125 23.473 C 131.187 23.898, 130 23.764, 130 23.118 C 130 22.546, 129.019 21.164, 127.820 20.047 C 125.788 18.153, 125.517 18.127, 123.820 19.663 C 122.128 21.194, 121.864 21.187, 120.074 19.567 C 117.261 17.021, 114.559 17.914, 114.205 21.508 C 113.705 26.588, 117.683 41.322, 119.973 42.872 C 121.088 43.627, 122 44.824, 122 45.533 C 122 46.242, 119.947 51.069, 117.437 56.261 C 114.927 61.452, 111.433 69.930, 109.672 75.100 C 107.912 80.270, 106.034 84.426, 105.500 84.335 C 104.966 84.244, 103.654 81.737, 102.585 78.764 L 100.641 73.359 104.749 69.251 C 107.919 66.081, 109.013 64.098, 109.544 60.556 C 110.385 54.946, 109.211 41.249, 107.815 40.386 C 106.381 39.500, 102.083 42.922, 98.137 48.093 C 96.287 50.517, 94.441 52.628, 94.035 52.784 C 93.630 52.940, 92.541 51.087, 91.617 48.666 L 89.936 44.264 93.468 40.732 C 95.411 38.789, 97 36.316, 97 35.236 C 97 30.664, 94.871 22.628, 92.942 19.919 C 90.882 17.026, 87.690 16.075, 86.500 18 M 117.443 24.750 C 117.775 26.262, 118.106 29.132, 118.180 31.126 L 118.315 34.753 123.761 35.315 C 129.307 35.887, 132.475 37.772, 133.542 41.132 C 134.537 44.269, 136.636 43.243, 140.024 37.962 C 143.721 32.202, 143.300 30.380, 139.185 34.323 C 134.992 38.340, 133.996 37.826, 134.686 32 C 135.306 26.772, 134.352 25.606, 132.232 29 C 130.305 32.085, 129.132 31.409, 127.896 26.500 C 126.682 21.681, 125 20.457, 125 24.393 C 125 28.127, 122.181 28.481, 120.197 24.995 C 118.069 21.256, 116.650 21.129, 117.443 24.750 M 89.329 34.458 C 84.417 36.594, 82.442 42, 86.573 42 C 88.544 42, 94.822 37.842, 95.512 36.080 C 95.818 35.299, 95.490 34.293, 94.784 33.845 C 93.150 32.809, 93.110 32.813, 89.329 34.458 M 120 38.845 C 120 41.062, 130.478 46.654, 131.508 44.986 C 132.322 43.669, 130.335 40.250, 128.043 39.023 C 125.737 37.789, 120 37.662, 120 38.845 M 103.250 46.281 C 99.232 50.651, 97.008 55.466, 97.004 59.800 C 97 64.124, 99.275 70, 100.953 70 C 102.544 70, 105.960 64.861, 107.043 60.840 C 108.103 56.903, 107.375 45.350, 106.014 44.508 C 105.616 44.263, 104.373 45.060, 103.250 46.281 M 64 54.800 C 64 59.530, 63.362 59.859, 59.727 57 C 56.380 54.368, 55.830 54.476, 56.617 57.611 C 57.267 60.201, 57.238 60.216, 52.886 59.497 L 48.500 58.772 50.750 61.200 C 53.534 64.205, 53.627 66, 51 66 C 48.221 66, 48.501 67.452, 51.547 68.839 C 55.309 70.553, 56.292 70.254, 58.516 66.719 C 59.821 64.644, 61.585 63.326, 63.516 62.982 C 66.345 62.478, 66.497 62.204, 66.436 57.711 C 66.401 55.105, 65.839 52.439, 65.186 51.786 C 64.271 50.871, 64 51.560, 64 54.800 M 101.639 58.817 C 100.671 60.642, 100.042 62.892, 100.240 63.817 C 100.504 65.048, 101.073 64.609, 102.361 62.183 C 103.329 60.358, 103.958 58.108, 103.760 57.183 C 103.496 55.952, 102.927 56.391, 101.639 58.817 M 124.364 62.057 C 118.015 64.070, 115.612 66.380, 113.993 72.026 C 112.939 75.698, 114.397 77, 119.565 77 C 124.780 77, 127.786 74.730, 133.033 66.830 C 135.215 63.546, 137 60.665, 137 60.429 C 137 59.376, 129.962 60.283, 124.364 62.057 M 61.655 66.829 C 59.649 69.046, 59.556 70, 61.345 70 C 62.695 70, 66 66.927, 66 65.671 C 66 64.321, 63.265 65.050, 61.655 66.829 M 119.750 70.115 C 115.655 73.170, 116.426 74.333, 121 72 C 123.200 70.878, 125 69.518, 125 68.980 C 125 67.408, 122.717 67.902, 119.750 70.115 M 133.103 97.250 C 131.152 102.426, 130.904 105.675, 132.367 106.889 C 134.336 108.524, 135.019 107.214, 135.715 100.474 C 136.310 94.712, 134.774 92.816, 133.103 97.250 M 63.292 106.779 C 61.207 107.577, 57.813 108.450, 55.750 108.720 C 53.688 108.990, 52 109.754, 52 110.418 C 52 113.490, 63.764 121.351, 70.091 122.507 C 75.005 123.405, 82 121.446, 82 119.173 C 82 116.452, 78.337 109.927, 75.799 108.125 C 72.332 105.664, 67.552 105.150, 63.292 106.779 M 150.975 110.565 C 149.562 114.282, 149.707 114.776, 152.750 116.625 C 154.262 117.544, 156.902 119.867, 158.617 121.787 L 161.733 125.278 165.867 122.955 C 168.140 121.677, 170 120.265, 170 119.816 C 170 118.662, 168.881 118.853, 166 120.500 C 162.360 122.581, 161.766 122.340, 162.483 119.077 C 163.052 116.485, 162.892 116.216, 161.062 116.694 C 159.248 117.168, 159 116.779, 159 113.462 C 159 109.871, 158.912 109.769, 157.171 111.345 C 154.671 113.608, 154 113.429, 154 110.500 C 154 107.250, 152.221 107.288, 150.975 110.565 M 123.667 109.667 C 122.360 110.973, 123.032 112.875, 125.022 113.507 C 129.790 115.020, 135.867 111.314, 131.418 109.607 C 129.307 108.797, 124.500 108.834, 123.667 109.667 M 70.581 114.981 C 71.121 115.521, 73.123 116.228, 75.031 116.553 C 78.309 117.111, 78.393 117.057, 76.559 115.572 C 74.435 113.852, 68.906 113.306, 70.581 114.981 M 150 119.911 C 150 121.020, 155.787 126, 157.077 126 C 158.738 126, 158.050 124.422, 155.195 121.687 C 152.396 119.006, 150 118.186, 150 119.911 M 27.902 125.640 C 25.751 128.144, 24.885 130.811, 26 131.500 C 27.238 132.265, 30.247 127.506, 29.833 125.439 C 29.534 123.947, 29.338 123.967, 27.902 125.640 M 50.688 129.747 C 50.450 130.161, 49.947 132.627, 49.570 135.226 C 48.831 140.321, 51.058 147.165, 54.335 149.870 C 55.854 151.124, 55.941 150.828, 55.356 146.370 C 54.514 139.941, 55.673 141.213, 57.796 149.048 C 58.733 152.507, 60.060 155.523, 60.744 155.750 C 63.889 156.793, 65.170 144.197, 62.349 139.973 C 58.341 133.972, 51.639 128.095, 50.688 129.747 M 13.750 154.015 C 17.329 157.271, 17.882 159, 15.345 159 C 13.805 159, 13.805 159.127, 15.345 160.829 C 17.400 163.100, 17.452 164.613, 15.500 165.362 C 13.320 166.198, 13.662 168, 16 168 C 17.372 168, 18 168.667, 18 170.122 C 18 172.099, 18.154 172.142, 20.250 170.750 C 22.213 169.447, 22.514 168.345, 22.610 162.123 C 22.718 155.118, 22.662 154.954, 19.492 152.995 C 17.717 151.898, 14.967 151.013, 13.382 151.029 L 10.500 151.059 13.750 154.015 M 25.683 157.650 C 24.628 158.706, 24.876 164, 25.981 164 C 27.366 164, 28.447 159.047, 27.310 157.910 C 26.791 157.391, 26.059 157.274, 25.683 157.650 M 161.428 161.328 C 160.645 163.366, 162.762 168, 164.475 168 C 166.350 168, 166.354 167.783, 164.551 163.468 C 162.996 159.746, 162.235 159.224, 161.428 161.328 M 111.548 164.250 C 112.637 169.259, 113.850 172, 114.975 172 C 116.258 172, 116.287 172.331, 114.461 166.182 C 112.763 160.461, 110.380 158.882, 111.548 164.250 M 62.500 190.752 C 57.631 194.300, 55.641 196.609, 56.397 197.833 C 57.208 199.146, 65.156 201, 69.975 201 C 74.296 201, 80.290 198.958, 81.442 197.093 C 83.450 193.845, 78.041 189.663, 70.236 188.428 C 67.145 187.939, 65.810 188.340, 62.500 190.752 M 70 194 C 70 194.550, 70.900 195.067, 72 195.150 C 73.100 195.233, 74.525 195.345, 75.167 195.400 C 75.808 195.455, 76.521 194.938, 76.750 194.250 C 77.032 193.405, 76.006 193, 73.583 193 C 71.612 193, 70 193.450, 70 194 M 30 204.050 C 30 204.627, 30.708 206.469, 31.574 208.143 C 33.540 211.945, 32.807 212.743, 28.754 211.213 C 25.203 209.873, 23.087 210.997, 25.458 212.965 C 27.885 214.980, 27.295 215.852, 23.250 216.227 L 19.500 216.575 22.250 217.763 C 25.429 219.136, 25.895 221, 23.059 221 C 20.319 221, 19.574 222.730, 21.985 223.495 C 25.111 224.488, 27.377 223.312, 29.330 219.686 C 30.315 217.856, 32.444 215.578, 34.061 214.623 C 37.637 212.511, 37.664 212.013, 34.487 206.980 C 32.085 203.175, 30 201.813, 30 204.050 M 53.100 213.813 C 51.541 216.726, 51.735 226.594, 53.415 229.800 C 54.193 231.285, 56.462 234.070, 58.458 235.988 C 61.493 238.905, 62.251 239.233, 63.087 237.988 C 65.285 234.715, 61.857 223.226, 56.117 214.628 C 54.251 211.833, 54.171 211.811, 53.100 213.813 M 32.615 218.465 C 30.799 221.237, 30.538 223, 31.943 223 C 33.141 223, 36 218.967, 36 217.277 C 36 215.226, 34.361 215.801, 32.615 218.465 M 107.669 238.250 C 104.477 242.514, 102.404 246.743, 101.541 250.750 C 100.652 254.880, 101.777 254.883, 105.223 250.759 C 107.048 248.575, 107.955 248.027, 107.973 249.097 C 107.988 249.975, 106.425 252.315, 104.500 254.297 C 102.575 256.279, 101 258.598, 101 259.450 C 101 264.391, 110.164 256.670, 111.956 250.220 C 113.723 243.858, 113.134 235, 110.944 235 C 110.481 235, 109.007 236.463, 107.669 238.250 M 149 238.500 C 149 240.187, 152.466 244, 154 244 C 155.673 244, 155.117 240.416, 153.171 238.655 C 150.894 236.594, 149 236.524, 149 238.500 M 124.426 242.545 C 123.176 249.206, 126.153 262, 128.953 262 C 131.179 262, 134 256.578, 134 252.298 C 134 247.690, 130.722 241.992, 126.892 239.942 C 125.357 239.121, 124.997 239.500, 124.426 242.545 M 13.919 248.402 C 14.558 249.173, 16.221 250.090, 17.612 250.439 C 20.619 251.193, 20.285 253.362, 17.089 253.830 C 14.900 254.151, 14.887 254.218, 16.647 256.162 C 18.355 258.050, 18.360 258.219, 16.729 259.132 C 13.884 260.724, 14.691 262.227, 18 261.500 C 20.635 260.921, 21 261.113, 21 263.076 C 21 265.247, 21.057 265.259, 23 263.500 C 25.336 261.386, 25.498 259.241, 23.518 256.627 C 22.656 255.489, 22.324 253.632, 22.670 251.898 C 23.155 249.473, 22.837 248.888, 20.556 248.021 C 19.078 247.460, 16.719 247, 15.312 247 C 13.232 247, 12.972 247.262, 13.919 248.402 M 25 254.441 C 25 255.234, 25.450 256.160, 26 256.500 C 26.550 256.840, 27 256.191, 27 255.059 C 27 253.927, 26.550 253, 26 253 C 25.450 253, 25 253.648, 25 254.441 M 47.500 258.959 C 46.400 259.417, 44.175 261.192, 42.557 262.903 C 40.362 265.222, 39.902 266.302, 40.748 267.148 C 42.459 268.859, 51.286 269.391, 55.409 268.030 C 60.186 266.454, 65.060 262.320, 64.344 260.453 C 63.578 258.458, 61.156 258.632, 56.735 261.002 C 54.681 262.103, 53 262.539, 53 261.971 C 53 261.402, 53.675 260.678, 54.500 260.362 C 55.325 260.045, 56 259.384, 56 258.893 C 56 257.786, 50.209 257.832, 47.500 258.959" stroke="none" fill="#ffffff" fill-rule="evenodd"/>
</svg>